<mxfile host="Electron" modified="2023-09-02T12:05:16.628Z" agent="Mozilla/5.0 (Macintosh; Intel Mac OS X 10_15_7) AppleWebKit/537.36 (KHTML, like Gecko) draw.io/21.6.8 Chrome/114.0.5735.289 Electron/25.5.0 Safari/537.36" etag="3z5UyaGn_OmvfehqWMS_" version="21.6.8" type="device">
  <diagram name="第 1 页" id="Ka-Vx9XKMTlzFheJ5ESn">
    <mxGraphModel dx="954" dy="703" grid="1" gridSize="10" guides="1" tooltips="1" connect="1" arrows="1" fold="1" page="1" pageScale="1" pageWidth="827" pageHeight="1169" math="0" shadow="0">
      <root>
        <mxCell id="0" />
        <mxCell id="1" parent="0" />
        <mxCell id="SAYPR_8h2VooXGS9I6N6-1" value="" style="shape=image;verticalLabelPosition=bottom;labelBackgroundColor=default;verticalAlign=top;aspect=fixed;imageAspect=0;image=data:image/svg+xml,PHN2ZyB4bWxuczp4bGluaz0iaHR0cDovL3d3dy53My5vcmcvMTk5OS94bGluayIgeG1sbnM9Imh0dHA6Ly93d3cudzMub3JnLzIwMDAvc3ZnIiBwcmVzZXJ2ZUFzcGVjdFJhdGlvPSJ4TWlkWU1pZCIgdmVyc2lvbj0iMS4xIiB2aWV3Qm94PSIwIDAuMjY3NjIzOTAxMzY3MTg3NSAyNTUuNTgyMDAwNzMyNDIxODggMjg3LjI1MjYyNDUxMTcxODc1IiBoZWlnaHQ9IjI4Ny4yNTI2MjQ1MTE3MTg3NSIgd2lkdGg9IjI1NS41ODIwMDA3MzI0MjE4OCI+JiN4YTsJPGc+JiN4YTsJCTxwYXRoIGZpbGw9IiM1QzhEQkMiIGQ9Ik0yNTUuNTY5LDg0LjcyIEMyNTUuNTY3LDc5Ljg5IDI1NC41MzQsNzUuNjIyIDI1Mi40NDUsNzEuOTU5IEMyNTAuMzkzLDY4LjM1NyAyNDcuMzIsNjUuMzM4IDI0My4xOTgsNjIuOTUxIEMyMDkuMTczLDQzLjMzMiAxNzUuMTE1LDIzLjc3MyAxNDEuMTAxLDQuMTM0IEMxMzEuOTMxLC0xLjE2IDEyMy4wNCwtMC45NjcgMTEzLjkzOCw0LjQwMyBDMTAwLjM5NSwxMi4zOSAzMi41OSw1MS4yMzcgMTIuMzg1LDYyLjk0IEM0LjA2NCw2Ny43NTcgMC4wMTUsNzUuMTI5IDAuMDEzLDg0LjcxMSBDMCwxMjQuMTY2IDAuMDEzLDE2My42MiAwLDIwMy4wNzYgQzAuMDAyLDIwNy44IDAuOTkxLDIxMS45ODUgMi45ODgsMjE1LjU5MyBDNS4wNDEsMjE5LjMwNCA4LjE1NywyMjIuNDA2IDEyLjM3NCwyMjQuODQ3IEMzMi41OCwyMzYuNTUgMTAwLjM5NCwyNzUuMzk0IDExMy45MzQsMjgzLjM4MyBDMTIzLjA0LDI4OC43NTYgMTMxLjkzMSwyODguOTQ4IDE0MS4xMDQsMjgzLjY1MiBDMTc1LjExOSwyNjQuMDEyIDIwOS4xNzksMjQ0LjQ1NCAyNDMuMjA5LDIyNC44MzUgQzI0Ny40MjYsMjIyLjM5NSAyNTAuNTQyLDIxOS4yOTEgMjUyLjU5NSwyMTUuNTgzIEMyNTQuNTg5LDIxMS45NzUgMjU1LjU4LDIwNy43OSAyNTUuNTgyLDIwMy4wNjUgQzI1NS41ODIsMjAzLjA2NSAyNTUuNTgyLDEyNC4xNzYgMjU1LjU2OSw4NC43MiIvPiYjeGE7CQk8cGF0aCBmaWxsPSIjMUE0Njc0IiBkPSJNMTI4LjE4MiwxNDMuNTA5IEwyLjk4OCwyMTUuNTkzIEM1LjA0MSwyMTkuMzA0IDguMTU3LDIyMi40MDYgMTIuMzc0LDIyNC44NDcgQzMyLjU4LDIzNi41NSAxMDAuMzk0LDI3NS4zOTQgMTEzLjkzNCwyODMuMzgzIEMxMjMuMDQsMjg4Ljc1NiAxMzEuOTMxLDI4OC45NDggMTQxLjEwNCwyODMuNjUyIEMxNzUuMTE5LDI2NC4wMTIgMjA5LjE3OSwyNDQuNDU0IDI0My4yMDksMjI0LjgzNSBDMjQ3LjQyNiwyMjIuMzk1IDI1MC41NDIsMjE5LjI5MSAyNTIuNTk1LDIxNS41ODMgTDEyOC4xODIsMTQzLjUwOSIvPiYjeGE7CQk8cGF0aCBmaWxsPSIjMUE0Njc0IiBkPSJNOTEuMTAxLDE2NC44NjEgQzk4LjM4NiwxNzcuNTc5IDExMi4wODEsMTg2LjE1NyAxMjcuNzkxLDE4Ni4xNTcgQzE0My41OTgsMTg2LjE1NyAxNTcuMzcxLDE3Ny40NyAxNjQuNjE5LDE2NC42MTYgTDEyOC4xODIsMTQzLjUwOSBMOTEuMTAxLDE2NC44NjEiLz4mI3hhOwkJPHBhdGggZmlsbD0iIzFCNTk4RSIgZD0iTTI1NS41NjksODQuNzIgQzI1NS41NjcsNzkuODkgMjU0LjUzNCw3NS42MjIgMjUyLjQ0NSw3MS45NTkgTDEyOC4xODIsMTQzLjUwOSBMMjUyLjU5NSwyMTUuNTgzIEMyNTQuNTg5LDIxMS45NzUgMjU1LjU4LDIwNy43OSAyNTUuNTgyLDIwMy4wNjUgQzI1NS41ODIsMjAzLjA2NSAyNTUuNTgyLDEyNC4xNzYgMjU1LjU2OSw4NC43MiIvPiYjeGE7CQk8cGF0aCBmaWxsPSIjRkZGRkZGIiBkPSJNMjQ4LjcyOCwxNDguNjYxIEwyMzkuMDA2LDE0OC42NjEgTDIzOS4wMDYsMTU4LjM4NSBMMjI5LjI4MiwxNTguMzg1IEwyMjkuMjgyLDE0OC42NjEgTDIxOS41NjEsMTQ4LjY2MSBMMjE5LjU2MSwxMzguOTQgTDIyOS4yODIsMTM4Ljk0IEwyMjkuMjgyLDEyOS4yMTggTDIzOS4wMDYsMTI5LjIxOCBMMjM5LjAwNiwxMzguOTQgTDI0OC43MjgsMTM4Ljk0IEwyNDguNzI4LDE0OC42NjEiLz4mI3hhOwkJPHBhdGggZmlsbD0iI0ZGRkZGRiIgZD0iTTIxMy4yNTMsMTQ4LjY2MSBMMjAzLjUzMiwxNDguNjYxIEwyMDMuNTMyLDE1OC4zODUgTDE5My44MSwxNTguMzg1IEwxOTMuODEsMTQ4LjY2MSBMMTg0LjA4OCwxNDguNjYxIEwxODQuMDg4LDEzOC45NCBMMTkzLjgxLDEzOC45NCBMMTkzLjgxLDEyOS4yMTggTDIwMy41MzIsMTI5LjIxOCBMMjAzLjUzMiwxMzguOTQgTDIxMy4yNTMsMTM4Ljk0IEwyMTMuMjUzLDE0OC42NjEiLz4mI3hhOwkJPHBhdGggZmlsbD0iI0ZGRkZGRiIgZD0iTTE2NC42MTksMTY0LjYxNiBDMTU3LjM3MSwxNzcuNDcgMTQzLjU5OCwxODYuMTU3IDEyNy43OTEsMTg2LjE1NyBDMTEyLjA4MSwxODYuMTU3IDk4LjM4NiwxNzcuNTc5IDkxLjEwMSwxNjQuODYxIEM4Ny41NjIsMTU4LjY4MSA4NS41MjcsMTUxLjUyNiA4NS41MjcsMTQzLjg5MyBDODUuNTI3LDEyMC41NTIgMTA0LjQ1LDEwMS42MyAxMjcuNzkxLDEwMS42MyBDMTQzLjQsMTAxLjYzIDE1Ny4wMjMsMTEwLjEwMSAxNjQuMzQ0LDEyMi42ODkgTDIwMS4yODUsMTAxLjQxNyBDMTg2LjYwMiw3Ni4wNzEgMTU5LjE4OSw1OS4wMTkgMTI3Ljc5MSw1OS4wMTkgQzgwLjkxNSw1OS4wMTkgNDIuOTE2LDk3LjAxOSA0Mi45MTYsMTQzLjg5MyBDNDIuOTE2LDE1OS4yNzEgNDcuMDA3LDE3My42OTIgNTQuMTU3LDE4Ni4xMzEgQzY4LjgwMywyMTEuNjExIDk2LjI5NCwyMjguNzY4IDEyNy43OTEsMjI4Ljc2OCBDMTU5LjM0NiwyMjguNzY4IDE4Ni44OCwyMTEuNTQyIDIwMS41MDUsMTg1Ljk4NyBMMTY0LjYxOSwxNjQuNjE2Ii8+JiN4YTsJPC9nPiYjeGE7PC9zdmc+;" parent="1" vertex="1">
          <mxGeometry x="60" y="153.13" width="53.52" height="60" as="geometry" />
        </mxCell>
        <mxCell id="SAYPR_8h2VooXGS9I6N6-2" value="" style="shape=image;verticalLabelPosition=bottom;labelBackgroundColor=default;verticalAlign=top;aspect=fixed;imageAspect=0;image=data:image/svg+xml,PHN2ZyB4bWxuczp4bGluaz0iaHR0cDovL3d3dy53My5vcmcvMTk5OS94bGluayIgeG1sbnM9Imh0dHA6Ly93d3cudzMub3JnLzIwMDAvc3ZnIiBwcmVzZXJ2ZUFzcGVjdFJhdGlvPSJ4TWlkWU1pZCIgdmVyc2lvbj0iMS4xIiB2aWV3Qm94PSIwIDQuNzY4MzcxNTgyMDMxMjVlLTcgMjU1LjU4MjAwMDczMjQyMTg4IDI4Ny4yNTI2MjQ1MTE3MTg3NSIgaGVpZ2h0PSIyODcuMjUyNjI0NTExNzE4NzUiIHdpZHRoPSIyNTUuNTgyMDAwNzMyNDIxODgiPiYjeGE7ICAgIDxnPiYjeGE7ICAgICAgICA8cGF0aCBmaWxsLXJ1bGU9Im5vbnplcm8iIGZpbGw9IiNBMTc5REMiIGQ9Ik0yNTUuNTY5LDg0LjQ1MjM3NiBDMjU1LjU2Nyw3OS42MjIzNzYgMjU0LjUzNCw3NS4zNTQzNzYgMjUyLjQ0NSw3MS42OTEzNzYgQzI1MC4zOTMsNjguMDg5Mzc2IDI0Ny4zMiw2NS4wNzAzNzYgMjQzLjE5OCw2Mi42ODMzNzYgQzIwOS4xNzMsNDMuMDY0Mzc2IDE3NS4xMTUsMjMuNTA1Mzc2IDE0MS4xMDEsMy44NjYzNzYwNSBDMTMxLjkzMSwtMS40Mjc2MjM5NSAxMjMuMDQsLTEuMjM0NjIzOTUgMTEzLjkzOCw0LjEzNTM3NjA1IEMxMDAuMzk1LDEyLjEyMjM3NiAzMi41OSw1MC45NjkzNzYgMTIuMzg1LDYyLjY3MjM3NiBDNC4wNjQsNjcuNDg5Mzc2IDAuMDE1LDc0Ljg2MTM3NiAwLjAxMyw4NC40NDMzNzYgQzAsMTIzLjg5ODM3NiAwLjAxMywxNjMuMzUyMzc2IDAsMjAyLjgwODM3NiBDMCwyMDcuNTMyMzc2IDAuOTkxLDIxMS43MTczNzYgMi45ODgsMjE1LjMyNTM3NiBDNS4wNDEsMjE5LjAzNjM3NiA4LjE1NywyMjIuMTM4Mzc2IDEyLjM3NCwyMjQuNTc5Mzc2IEMzMi41OCwyMzYuMjgyMzc2IDEwMC4zOTQsMjc1LjEyNjM3NiAxMTMuOTM0LDI4My4xMTUzNzYgQzEyMy4wNCwyODguNDg4Mzc2IDEzMS45MzEsMjg4LjY4MDM3NiAxNDEuMTA0LDI4My4zODQzNzYgQzE3NS4xMTksMjYzLjc0NDM3NiAyMDkuMTc5LDI0NC4xODYzNzYgMjQzLjIwOSwyMjQuNTY3Mzc2IEMyNDcuNDI2LDIyMi4xMjczNzYgMjUwLjU0MiwyMTkuMDIzMzc2IDI1Mi41OTUsMjE1LjMxNTM3NiBDMjU0LjU4OSwyMTEuNzA3Mzc2IDI1NS41ODIsMjA3LjUyMjM3NiAyNTUuNTgyLDIwMi43OTczNzYgQzI1NS41ODIsMjAyLjc5NzM3NiAyNTUuNTgyLDEyMy45MDgzNzYgMjU1LjU2OSw4NC40NTIzNzYiLz4mI3hhOyAgICAgICAgPHBhdGggZmlsbC1ydWxlPSJub256ZXJvIiBmaWxsPSIjMjgwMDY4IiBkPSJNMTI4LjE4MiwxNDMuMjQxMzc2IEwyLjk4OCwyMTUuMzI1Mzc2IEM1LjA0MSwyMTkuMDM2Mzc2IDguMTU3LDIyMi4xMzgzNzYgMTIuMzc0LDIyNC41NzkzNzYgQzMyLjU4LDIzNi4yODIzNzYgMTAwLjM5NCwyNzUuMTI2Mzc2IDExMy45MzQsMjgzLjExNTM3NiBDMTIzLjA0LDI4OC40ODgzNzYgMTMxLjkzMSwyODguNjgwMzc2IDE0MS4xMDQsMjgzLjM4NDM3NiBDMTc1LjExOSwyNjMuNzQ0Mzc2IDIwOS4xNzksMjQ0LjE4NjM3NiAyNDMuMjA5LDIyNC41NjczNzYgQzI0Ny40MjYsMjIyLjEyNzM3NiAyNTAuNTQyLDIxOS4wMjMzNzYgMjUyLjU5NSwyMTUuMzE1Mzc2IEwxMjguMTgyLDE0My4yNDEzNzYiLz4mI3hhOyAgICAgICAgPHBhdGggZmlsbC1ydWxlPSJub256ZXJvIiBmaWxsPSIjMzkwMDkxIiBkPSJNMjU1LjU2OSw4NC40NTIzNzYgQzI1NS41NjcsNzkuNjIyMzc2IDI1NC41MzQsNzUuMzU0Mzc2IDI1Mi40NDUsNzEuNjkxMzc2IEwxMjguMTgyLDE0My4yNDEzNzYgTDI1Mi41OTUsMjE1LjMxNTM3NiBDMjU0LjU4OSwyMTEuNzA3Mzc2IDI1NS41OCwyMDcuNTIyMzc2IDI1NS41ODIsMjAyLjc5NzM3NiBDMjU1LjU4MiwyMDIuNzk3Mzc2IDI1NS41ODIsMTIzLjkwODM3NiAyNTUuNTY5LDg0LjQ1MjM3NiIvPiYjeGE7ICAgICAgICA8cGF0aCBmaWxsPSIjRkZGRkZGIiBkPSJNMjAxLjg5MjMyNiwxMTYuMjk0MDA4IEwyMDEuODkyMzI2LDEyOS43Njc2OTIgTDIxNS4zNjYwMSwxMjkuNzY3NjkyIEwyMTUuMzY2MDEsMTE2LjI5NDAwOCBMMjIyLjEwMjg1MiwxMTYuMjk0MDA4IEwyMjIuMTAyODUyLDEyOS43Njc2OTIgTDIzNS41NzY1MzcsMTI5Ljc2NzY5MiBMMjM1LjU3NjUzNywxMzYuNTA0NTM0IEwyMjIuMTAyODUyLDEzNi41MDQ1MzQgTDIyMi4xMDI4NTIsMTQ5Ljk3ODIxOCBMMjM1LjU3NjUzNywxNDkuOTc4MjE4IEwyMzUuNTc2NTM3LDE1Ni43MTUwNiBMMjIyLjEwMjg1MiwxNTYuNzE1MDYgTDIyMi4xMDI4NTIsMTcwLjE4ODc0NCBMMjE1LjM2NjAxLDE3MC4xODg3NDQgTDIxNS4zNjYwMSwxNTYuNzE1MDYgTDIwMS44OTIzMjYsMTU2LjcxNTA2IEwyMDEuODkyMzI2LDE3MC4xODg3NDQgTDE5NS4xNTU0ODQsMTcwLjE4ODc0NCBMMTk1LjE1NTQ4NCwxNTYuNzE1MDYgTDE4MS42ODE4LDE1Ni43MTUwNiBMMTgxLjY4MTgsMTQ5Ljk3ODIxOCBMMTk1LjE1NTQ4NCwxNDkuOTc4MjE4IEwxOTUuMTU1NDg0LDEzNi41MDQ1MzQgTDE4MS42ODE4LDEzNi41MDQ1MzQgTDE4MS42ODE4LDEyOS43Njc2OTIgTDE5NS4xNTU0ODQsMTI5Ljc2NzY5MiBMMTk1LjE1NTQ4NCwxMTYuMjk0MDA4IEwyMDEuODkyMzI2LDExNi4yOTQwMDggWiBNMjE1LjM2NjAxLDEzNi41MDQ1MzQgTDIwMS44OTIzMjYsMTM2LjUwNDUzNCBMMjAxLjg5MjMyNiwxNDkuOTc4MjE4IEwyMTUuMzY2MDEsMTQ5Ljk3ODIxOCBMMjE1LjM2NjAxLDEzNi41MDQ1MzQgWiIvPiYjeGE7ICAgICAgICA8cGF0aCBmaWxsLXJ1bGU9Im5vbnplcm8iIGZpbGw9IiNGRkZGRkYiIGQ9Ik0xMjguNDU2NzUyLDQ4LjYyNTg3NiBDMTYzLjYwMDUyMyw0OC42MjU4NzYgMTk0LjI4Mzg4NSw2Ny43MTIxNzQxIDIxMC43MTg1NjIsOTYuMDgxOTQzNSBMMjEwLjU1ODE5Miw5NS44MDg4NzYgTDE2OS4yMDk2MTUsMTE5LjYxNzE1OSBDMTYxLjA2Mjk1OSwxMDUuODIzNTU0IDE0Ni4xMjgxMzYsOTYuNTE1MDcxNyAxMjguOTk2MzgzLDk2LjMyMzM3MjIgTDEyOC40NTY3NTIsOTYuMzIwMzU0NCBDMTAyLjMzMTE3OCw5Ni4zMjAzNTQ0IDgxLjE1MDY3MDUsMTE3LjQ5OTc0MyA4MS4xNTA2NzA1LDE0My42MjUzMTYgQzgxLjE1MDY3MDUsMTUyLjE2ODkzMSA4My40Mjg0NDUzLDE2MC4xNzc1MiA4Ny4zODk2NDY5LDE2Ny4wOTQ3OTIgQzk1LjU0Mzc0NSwxODEuMzMwMDQ1IDExMC44NzI1NTQsMTkwLjkzMTM5OCAxMjguNDU2NzUyLDE5MC45MzEzOTggQzE0Ni4xNDk1MjIsMTkwLjkzMTM5OCAxNjEuNTY1NjM2LDE4MS4yMDgwNDEgMTY5LjY3ODMyLDE2Ni44MjA1NjMgTDE2OS40ODExOTIsMTY3LjE2NTg3NiBMMjEwLjc2NzY3OCwxOTEuMDgzOTEzIEMxOTQuNTEzMjgsMjE5LjIxMzQ3IDE2NC4yNTAyNywyMzguMjQwODYxIDEyOS41MTQ5NzcsMjM4LjYyMDEwMiBMMTI4LjQ1Njc1MiwyMzguNjI1ODc2IEM5My4yMDIxNzAxLDIzOC42MjU4NzYgNjIuNDMxNTAyOCwyMTkuNDIyMDUyIDQ2LjAzODIzOTgsMTkwLjkwMjI5NiBDMzguMDM1MjQ3MSwxNzYuOTc5MzI3IDMzLjQ1NjE5MjIsMTYwLjgzNzkwNyAzMy40NTYxOTIyLDE0My42MjUzMTYgQzMzLjQ1NjE5MjIsOTEuMTU5MjYzNiA3NS45ODg0NjA0LDQ4LjYyNTg3NiAxMjguNDU2NzUyLDQ4LjYyNTg3NiBaIi8+JiN4YTsgICAgPC9nPiYjeGE7PC9zdmc+;" parent="1" vertex="1">
          <mxGeometry x="126" y="153.13" width="53.52" height="60" as="geometry" />
        </mxCell>
        <mxCell id="SAYPR_8h2VooXGS9I6N6-3" value="" style="shape=image;verticalLabelPosition=bottom;labelBackgroundColor=default;verticalAlign=top;aspect=fixed;imageAspect=0;image=data:image/svg+xml,PHN2ZyB4bWxuczp4bGluaz0iaHR0cDovL3d3dy53My5vcmcvMTk5OS94bGluayIgeG1sbnM9Imh0dHA6Ly93d3cudzMub3JnLzIwMDAvc3ZnIiBwcmVzZXJ2ZUFzcGVjdFJhdGlvPSJ4TWlkWU1pZCIgdmVyc2lvbj0iMS4xIiB2aWV3Qm94PSIwLjg0NjUxOTcwODYzMzQyMjkgMC4wMDA5MTY5NTc4NTUyMjQ2MDk0IDI1NC4zMDU0NjU2OTgyNDIyIDI1NS45OTkwODQ0NzI2NTYyNSIgaGVpZ2h0PSIyNTUuOTk5MDg0NDcyNjU2MjUiIHdpZHRoPSIyNTQuMzA1NDY1Njk4MjQyMiI+JiN4YTsJPGc+JiN4YTsJCTxwYXRoIGZpbGw9IiMwMEQyQjgiIGQ9Ik03MC41MzQsNjkuNjk2IEw1My45ODgsNTMuMTUgTDU0LjA1OCwxNzIuNzUgTDU0LjI1NiwxNzguMzQgQzU0LjMzOCwxODAuOTcgNTQuODI2LDE4My45MzggNTUuNjQsMTg3LjAxNCBMMTg2Ljc0NCwyMzMuMjQ0IEwyMTkuNTE2LDIxOC43MjQgTDIxOS41MjgsMjE4LjY4NCBMNzAuNTM0LDY5LjY5NiIvPiYjeGE7CQk8cGF0aCBmaWxsPSIjNTVERENBIiBkPSJNNTUuNjQsMTg3LjAxNCBMNTUuNjQ4LDE4Ny4wMjIgQzU1LjY0LDE4Ni45NjggNTUuNjEyLDE4Ni45MDggNTUuNjEyLDE4Ni44NTIgQzU1LjYxMiwxODYuOTA4IDU1LjYyLDE4Ni45NiA1NS42NCwxODcuMDE0IEw1NS42NCwxODcuMDE0IFogTTIxOS41MTYsMjE4LjcyNCBMMTg2Ljc0NCwyMzMuMjQ0IEw1NS42NDgsMTg3LjAyMiBDNTguMTUyLDE5Ni42MyA2My42OTYsMjA3LjQzIDY5LjY2MiwyMTMuMzM2IEwxMTIuNDQ2LDI1NS44NzYgTDIwNy41NzYsMjU2IEwyMTkuNTI4LDIxOC42ODQgTDIxOS41MTYsMjE4LjcyNCBMMjE5LjUxNiwyMTguNzI0IFoiLz4mI3hhOwkJPHBhdGggZmlsbD0iIzAwODFDNiIgZD0iTTMuMDM0LDEzMC4xMTYgQy0xLjIwMiwxMzQuNjM4IDAuOTAyLDE0My45NjYgNy43MjIsMTUwLjgzOCBMMzcuMTQsMTgwLjUgTDU1LjY0LDE4Ny4wMTQgQzU0LjgyNiwxODMuOTM4IDU0LjMzOCwxODAuOTcgNTQuMjU2LDE3OC4zNCBMNTQuMDU4LDE3Mi43NSBMNTMuOTg4LDUzLjE1IEwzLjAzNCwxMzAuMTE2IFoiLz4mI3hhOwkJPHBhdGggZmlsbD0iIzAwNzlCMyIgZD0iTTE4Ny44Miw1NC42ODYgQzE4NC43NDQsNTMuOSAxODEuNzk0LDUzLjQxNCAxNzkuMTIsNTMuMzMgTDE3My4yMTIsNTMuMTI2IEw1My45ODgsNTMuMTQyIEwyMTkuNTQ0LDIxOC42ODQgTDIxOS41NTgsMjE4LjY4NCBMMjM0LjA5OCwxODUuODggTDE4Ny44Miw1NC42ODYiLz4mI3hhOwkJPHBhdGggZmlsbD0iIzAwQTRFNCIgZD0iTTE4Ny42Nyw1NC42NTQgQzE4Ny43MzQsNTQuNjY4IDE4Ny43ODQsNTQuNjg2IDE4Ny44MjYsNTQuNjkyIEwxODcuODIsNTQuNjg2IEMxODcuNzg0LDU0LjY2OCAxODcuNzM0LDU0LjY2OCAxODcuNjcsNTQuNjU0IEwxODcuNjcsNTQuNjU0IFogTTIxNC4xMTgsNjguNzMyIEMyMDguMTEsNjIuNjc0IDE5Ny40NTIsNTcuMTY4IDE4Ny44MjYsNTQuNjkyIEwyMzQuMDk4LDE4NS44OCBMMjE5LjU1OCwyMTguNjg0IEwyMTkuNTQ0LDIxOC42ODQgTDI1NS4wNzYsMjA3LjMzNiBMMjU1LjE1MiwxMDkuOTIgTDIxNC4xMTgsNjguNzMyIEwyMTQuMTE4LDY4LjczMiBaIi8+JiN4YTsJCTxwYXRoIGZpbGw9IiMwMEQyQjgiIGQ9Ik0xODEuMzM4LDM2LjI5OCBMMTUxLjY4NCw2Ljg2MiBDMTQ0LjgyNiwwLjA2OCAxMzUuNDk0LC0yLjA0NiAxMzAuOTg0LDIuMTc4IEw1My45ODgsNTMuMTQyIEwxNzMuMjEyLDUzLjEyNiBMMTc5LjEyLDUzLjMzIEMxODEuNzk0LDUzLjQxNCAxODQuNzQ0LDUzLjkgMTg3LjgyLDU0LjY4NiBMMTgxLjMzOCwzNi4yOTggTDE4MS4zMzgsMzYuMjk4IFoiLz4mI3hhOwk8L2c+JiN4YTs8L3N2Zz4=;" parent="1" vertex="1">
          <mxGeometry x="190" y="153.13" width="59.52" height="60" as="geometry" />
        </mxCell>
        <mxCell id="SAYPR_8h2VooXGS9I6N6-4" value="" style="shape=image;verticalLabelPosition=bottom;labelBackgroundColor=default;verticalAlign=top;aspect=fixed;imageAspect=0;image=data:image/svg+xml,PHN2ZyB4bWxuczp4bGluaz0iaHR0cDovL3d3dy53My5vcmcvMTk5OS94bGluayIgeG1sbnM9Imh0dHA6Ly93d3cudzMub3JnLzIwMDAvc3ZnIiBwcmVzZXJ2ZUFzcGVjdFJhdGlvPSJ4TWlkWU1pZCIgdmVyc2lvbj0iMS4xIiB2aWV3Qm94PSIwLjQwNzc2NTQ0ODA5MzQxNDMgMC4xOTkyMjE3ODk4MzY4ODM1NCAyNTQuODg5OTk5Mzg5NjQ4NDQgMzQ3LjIxNzgzNDQ3MjY1NjI1IiBoZWlnaHQ9IjM0Ny4yMTc4MzQ0NzI2NTYyNSIgd2lkdGg9IjI1NC44ODk5OTkzODk2NDg0NCI+JiN4YTsJPGc+JiN4YTsJCTxwYXRoIGZpbGw9IiNGNkQyQTIiIGQ9Ik0zLjY4NTYwMzExLDE4OC4xNjQ5ODEgQzQuMTgzNjU3NTksMTk4LjQyNDkwMyAxNC40NDM1Nzk4LDE5My42NDM1OCAxOS4wMjU2ODA5LDE5MC40NTYwMzEgQzIzLjQwODU2MDMsMTg3LjM2ODA5MyAyNC43MDM1MDE5LDE4OS45NTc5NzcgMjUuMTAxOTQ1NSwxODMuOTgxMzIzIEMyNS40MDA3NzgyLDE3OS45OTY4ODcgMjUuNzk5MjIxOCwxNzYuMTEyMDYyIDI1LjYsMTcyLjEyNzYyNiBDMTguOTI2MDcsMTcxLjUyOTk2MSAxMS43NTQwODU2LDE3My4xMjM3MzUgNi4yNzU0ODYzOCwxNzcuMTA4MTcxIEMzLjM4Njc3MDQzLDE3OS4xMDAzODkgLTEuNzkyOTk2MTEsMTg1LjY3NDcwOCAzLjY4NTYwMzExLDE4OC4xNjQ5ODEiLz4mI3hhOwkJPHBhdGggZmlsbD0iI0Y2RDJBMiIgZD0iTTIwOC4xODY3NywzMTQuMjcyMzc0IEMyMTYuMDU2MDMxLDMxOS4xNTMzMDcgMjMwLjQ5OTYxMSwzMzMuODk1NzIgMjE4LjY0NTkxNCwzNDEuMDY3NzA0IEMyMDcuMjkwMjcyLDM1MS40MjcyMzcgMjAwLjkxNTE3NSwzMjkuNjEyNDUxIDE5MC45NTQwODYsMzI2LjYyNDEyNSBDMTk1LjIzNzM1NCwzMjAuNzQ3MDgyIDIwMC42MTYzNDIsMzE1LjM2ODA5MyAyMDguMTg2NzcsMzE0LjI3MjM3NCBMMjA4LjE4Njc3LDMxNC4yNzIzNzQgTDIwOC4xODY3NywzMTQuMjcyMzc0IFoiLz4mI3hhOwkJPHBhdGggZmlsbD0iI0Y2RDJBMiIgZD0iTTY3LjMzNjk2NSwzMzAuOTA3MzkzIEM1OC4wNzMxNTE4LDMzMi4zMDE5NDYgNTIuODkzMzg1MiwzNDAuNjY5MjYxIDQ1LjEyMzczNTQsMzQ0Ljk1MjUyOSBDMzcuODUyMTQwMSwzNDkuMjM1Nzk4IDM1LjA2MzAzNSwzNDMuNTU3OTc3IDM0LjQ2NTM2OTYsMzQyLjM2MjY0NiBDMzMuMzY5NjQ5OCwzNDEuODY0NTkxIDMzLjQ2OTI2MDcsMzQyLjg2MDcgMzEuNjc2MjY0NiwzNDEuMDY3NzA0IEMyNC45MDI3MjM3LDMzMC40MDkzMzkgMzguNjQ5MDI3MiwzMjIuNjM5Njg5IDQ1LjgyMTAxMTcsMzE3LjM2MDMxMSBDNTUuNzgyMTAxMiwzMTUuMzY4MDkzIDYyLjA1NzU4NzUsMzI0LjAzNDI0MSA2Ny4zMzY5NjUsMzMwLjkwNzM5MyBMNjcuMzM2OTY1LDMzMC45MDczOTMgTDY3LjMzNjk2NSwzMzAuOTA3MzkzIFoiLz4mI3hhOwkJPHBhdGggZmlsbD0iI0Y2RDJBMiIgZD0iTTI1MS45MTU5NTMsMTg2Ljg3MDAzOSBDMjUxLjQxNzg5OSwxOTcuMTI5OTYxIDI0MS4xNTc5NzcsMTkyLjM0ODYzOCAyMzYuNTc1ODc1LDE4OS4xNjEwODkgQzIzMi4xOTI5OTYsMTg2LjA3MzE1MiAyMzAuODk4MDU0LDE4OC42NjMwMzUgMjMwLjQ5OTYxMSwxODIuNjg2MzgxIEMyMzAuMjAwNzc4LDE3OC43MDE5NDYgMjI5LjgwMjMzNSwxNzQuODE3MTIxIDIzMC4wMDE1NTYsMTcwLjgzMjY4NSBDMjM2LjY3NTQ4NiwxNzAuMjM1MDE5IDI0My44NDc0NzEsMTcxLjgyODc5NCAyNDkuMzI2MDcsMTc1LjgxMzIzIEMyNTIuMTE1MTc1LDE3Ny44MDU0NDcgMjU3LjM5NDU1MywxODQuMzc5NzY3IDI1MS45MTU5NTMsMTg2Ljg3MDAzOSIvPiYjeGE7CQk8cGF0aCBmaWxsPSIjNjlEN0UyIiBkPSJNMjI0LjcyMjE3OSw2MS43NTg3NTQ5IEMyNjAuMjgzMjY4LDQ5LjIwNzc4MjEgMjMyLjQ5MTgyOSwwLjQ5ODA1NDQ3NSAyMDEuNTEyODQsMjIuMDE0MDA3OCBDMTgxLjE5MjIxOCw0LjU4MjEwMTE3IDE1My4yMDE1NTYsMS4zOTQ1NTI1MyAxMjMuODE2MzQyLDEuMzk0NTUyNTMgQzk1LjAyODc5MzgsMy42ODU2MDMxMSA2Ny42MzU3OTc3LDguOTY0OTgwNTQgNDguNTEwNTA1OCwyNS42OTk2MTA5IEMxNy42MzExMjg0LDUuNzc3NDMxOTEgLTEwLjg1NzU4NzUsNTMuNTkwNjYxNSAyNS40MDA3NzgyLDY1LjY0MzU3OTggQzE1LjI0MDQ2NjksMTA1LjA4OTQ5NCAyNi43OTUzMzA3LDE0NS4zMzIyOTYgMjUuMjAxNTU2NCwxODUuNDc1NDg2IEMyMy43MDczOTMsMjIxLjUzNDYzIDE0LjI0NDM1OCwyNjkuODQ1OTE0IDM0LjI2NjE0NzksMzAyLjIxOTQ1NSBDNTEuMjk5NjEwOSwzMjkuOTExMjg0IDg3Ljk1NjQyMDIsMzM5Ljc3Mjc2MyAxMTguMTM4NTIxLDM0MC44Njg0ODIgQzE1Ni42ODc5MzgsMzQyLjI2MzAzNSAyMDMuNDA1NDQ3LDMzMi44IDIyMi4xMzIyOTYsMjk1LjQ0NTkxNCBDMjQwLjA2MjI1NywyNTkuODg0ODI1IDIzNS4wODE3MTIsMjE1LjU1Nzk3NyAyMzIuNzkwNjYxLDE3Ny4yMDc3ODIgQzIzMC40OTk2MTEsMTM4LjQ1OTE0NCAyMzQuNzgyODc5LDk5LjExMjg0MDUgMjI0LjcyMjE3OSw2MS43NTg3NTQ5IEwyMjQuNzIyMTc5LDYxLjc1ODc1NDkgWiIvPiYjeGE7CQk8cGF0aCBmaWxsPSIjMDAwMDAwIiBkPSJNMjU0LjYwNTQ0NywxODAuNzkzNzc0IEMyNTMuNjA5MzM5LDE3OC43MDE5NDYgMjUxLjcxNjczMiwxNzYuMzExMjg0IDI0OS45MjM3MzUsMTc1LjAxNjM0MiBDMjQ1LjM0MTYzNCwxNzEuNzI5MTgzIDIzOS40NjQ1OTEsMTY5LjkzNjE4NyAyMzMuMzg4MzI3LDE2OS43MzY5NjUgQzIzMy4xODkxMDUsMTYzLjU2MTA4OSAyMzIuOTg5ODgzLDE1Ni43ODc1NDkgMjMyLjk4OTg4MywxNDguMjIxMDEyIEwyMzIuOTg5ODgzLDE0MC40NTEzNjIgQzIzMi44OTAyNzIsMTE1Ljk0NzA4MiAyMzIuNTkxNDQsMTA1LjE4OTEwNSAyMzEuMTk2ODg3LDkxLjc0MTYzNDIgQzIzMC4xMDExNjcsODEuMTgyODc5NCAyMjguNDA3NzgyLDcxLjQyMTAxMTcgMjI2LjAxNzEyMSw2Mi4yNTY4MDkzIEMyMzQuMDg1NjAzLDU5LjE2ODg3MTYgMjM5LjM2NDk4MSw1NC4wODg3MTYgMjQxLjQ1NjgwOSw0Ny41MTQzOTY5IEMyNDMuNDQ5MDI3LDQxLjQzODEzMjMgMjQyLjQ1MjkxOCwzNC41NjQ5ODA1IDIzOS4wNjYxNDgsMjguNDg4NzE2IEMyMzUuNTc5NzY3LDIyLjUxMjA2MjMgMjMwLjAwMTU1NiwxOC4wMjk1NzIgMjIzLjUyNjg0OCwxNi4yMzY1NzU5IEMyMTYuNTU0MDg2LDE0LjM0Mzk2ODkgMjA4Ljk4MzY1OCwxNS43Mzg1MjE0IDIwMS43MTIwNjIsMjAuNjE5NDU1MyBDMTk1LjIzNzM1NCwxNS4xNDA4NTYgMTg3Ljc2NjUzNywxMC45NTcxOTg0IDE3OS4zOTkyMjIsNy43Njk2NDk4MSBDMTY0LjU1NzE5OCwyLjI5MTA1MDU4IDE0Ny4zMjQ1MTQsMC4xOTkyMjE3OSAxMjMuOTE1OTUzLDAuMTk5MjIxNzkgTDEyMy45MTU5NTMsMS4xOTUzMzA3NCBMMTIzLjgxNjM0MiwwLjE5OTIyMTc5IEM5OC44MTQwMDc4LDIuMTkxNDM5NjkgODAuMjg2MzgxMyw2LjA3NjI2NDU5IDY0Ljk0NjMwMzUsMTMuNTQ3MDgxNyBDNTguNzcwNDI4LDE2LjUzNTQwODYgNTMuMjkxODI4OCwyMC4xMjE0MDA4IDQ4LjUxMDUwNTgsMjQuMzA1MDU4NCBDNDEuMTM5Mjk5NiwxOS43MjI5NTcyIDMzLjQ2OTI2MDcsMTguNjI3MjM3NCAyNi4zOTY4ODcyLDIwLjgxODY3NyBDMTkuODIyNTY4MSwyMi44MTA4OTQ5IDE0LjE0NDc0NzEsMjcuNDkyNjA3IDEwLjc1Nzk3NjcsMzMuNTY4ODcxNiBDNy4zNzEyMDYyMywzOS42NDUxMzYyIDYuNTc0MzE5MDcsNDYuNjE3ODk4OCA4Ljg2NTM2OTY1LDUyLjU5NDU1MjUgQzExLjE1NjQyMDIsNTguNTcxMjA2MiAxNi40MzU3OTc3LDYzLjI1MjkxODMgMjQuMzA1MDU4NCw2Ni4xNDE2MzQyIEMyMS44MTQ3ODYsNzYuMjAyMzM0NiAyMC41MTk4NDQ0LDg2Ljg2MDcwMDQgMjAuMzIwNjIyNiw5OC42MTQ3ODYgQzIwLjEyMTQwMDgsMTEwLjA3MDAzOSAyMC42MTk0NTUzLDExOS4yMzQyNDEgMjIuNDEyNDUxNCwxMzkuOTUzMzA3IEMyMy43MDczOTMsMTU1LjM5Mjk5NiAyNC4yMDU0NDc1LDE2Mi40NjUzNyAyNC40MDQ2NjkzLDE3MS4wMzE5MDcgQzE3LjYzMTEyODQsMTcwLjczMzA3NCAxMC44NTc1ODc1LDE3Mi41MjYwNyA1Ljc3NzQzMTkxLDE3Ni4yMTE2NzMgQzMuOTg0NDM1OCwxNzcuNTA2NjE1IDEuOTkyMjE3OSwxNzkuNzk3NjY1IDEuMDk1NzE5ODQsMTgxLjk4OTEwNSBDLTAuMTk5MjIxNzksMTg0Ljc3ODIxIDAuMjk4ODMyNjg1LDE4Ny4yNjg0ODIgMi44ODg3MTU5NSwxODguNzYyNjQ2IEMzLjI4NzE1OTUzLDE5My41NDM5NjkgNS45NzY2NTM3LDE5NS43MzU0MDkgMTAuMDYwNzAwNCwxOTUuMzM2OTY1IEMxMy4wNDkwMjcyLDE5NS4wMzgxMzIgMTYuNjM1MDE5NSwxOTMuNDQ0MzU4IDE5LjcyMjk1NzIsMTkxLjI1MjkxOCBDMjAuNDIwMjMzNSwxOTAuNzU0ODY0IDIxLjExNzUwOTcsMTkwLjM1NjQyIDIxLjgxNDc4NiwxOTAuMDU3NTg4IEMyMi4xMTM2MTg3LDE4OS45NTc5NzcgMjIuMzEyODQwNSwxODkuODU4MzY2IDIyLjYxMTY3MzIsMTg5Ljc1ODc1NSBDMjIuNjExNjczMiwxODkuNzU4NzU1IDIzLjIwOTMzODUsMTg5LjU1OTUzMyAyMy40MDg1NjAzLDE4OS40NTk5MjIgQzIzLjcwNzM5MywxODkuMzYwMzExIDI0LjAwNjIyNTcsMTg5LjI2MDcgMjQuMjA1NDQ3NSwxODkuMDYxNDc5IEMyNC4wMDYyMjU3LDE5My43NDMxOTEgMjMuNjA3NzgyMSwxOTguNjI0MTI1IDIyLjcxMTI4NCwyMDkuNzgwNTQ1IEMyMS43MTUxNzUxLDIyMi4zMzE1MTggMjEuMjE3MTIwNiwyMjkuMjA0NjY5IDIxLjAxNzg5ODgsMjM2Ljg3NDcwOCBDMjAuMTIxNDAwOCwyNjUuMzYzNDI0IDIzLjUwODE3MTIsMjg2LjA4MjQ5IDMzLjY2ODQ4MjUsMzAyLjUxODI4OCBDMzYuODU2MDMxMSwzMDcuNjk4MDU0IDQwLjc0MDg1NiwzMTIuMjgwMTU2IDQ1LjMyMjk1NzIsMzE2LjQ2MzgxMyBDNDQuNDI2NDU5MSwzMTcuMDYxNDc5IDQwLjY0MTI0NTEsMzE5Ljg1MDU4NCAzOS40NDU5MTQ0LDMyMC43NDcwODIgQzM1LjI2MjI1NjgsMzIzLjkzNDYzIDMyLjM3MzU0MDksMzI2LjYyNDEyNSAzMC42ODAxNTU2LDMyOS42MTI0NTEgQzI4LjQ4ODcxNiwzMzMuNDk3Mjc2IDI4LjQ4ODcxNiwzMzcuMzgyMTAxIDMwLjk3ODk4ODMsMzQxLjQ2NjE0OCBMMzEuMDc4NTk5MiwzNDEuNTY1NzU5IEwzMS4xNzgyMTAxLDM0MS42NjUzNyBDMzIuMjczOTMsMzQyLjc2MTA4OSAzMi44NzE1OTUzLDM0My4wNTk5MjIgMzMuNjY4NDgyNSwzNDMuMDU5OTIyIEwzMy43NjgwOTM0LDM0My4wNTk5MjIgTDMzLjk2NzMxNTIsMzQzLjA1OTkyMiBMMzMuOTY3MzE1MiwzNDMuMDU5OTIyIEMzNC4wNjY5MjYxLDM0My4yNTkxNDQgMzQuMTY2NTM3LDM0My4zNTg3NTUgMzQuMjY2MTQ3OSwzNDMuNTU3OTc3IEMzNC41NjQ5ODA1LDM0NC4wNTYwMzEgMzQuODYzODEzMiwzNDQuNDU0NDc1IDM1LjE2MjY0NTksMzQ0Ljg1MjkxOCBDMzcuNjUyOTE4MywzNDcuNzQxNjM0IDQxLjEzOTI5OTYsMzQ4LjQzODkxMSA0NS44MjEwMTE3LDM0NS42NDk4MDUgQzQ4LjMxMTI4NCwzNDQuMzU0ODY0IDUwLjEwNDI4MDIsMzQyLjg2MDcgNTMuODg5NDk0MiwzMzkuNjczMTUyIEM1My45ODkxMDUxLDMzOS41NzM1NDEgNTMuOTg5MTA1MSwzMzkuNTczNTQxIDU0LjA4ODcxNiwzMzkuNDczOTMgQzYwLjE2NDk4MDUsMzM0LjI5NDE2MyA2My4xNTMzMDc0LDMzMi40MDE1NTYgNjcuNjM1Nzk3NywzMzEuNzA0MjggTDY5LjIyOTU3MiwzMzEuNDA1NDQ3IEM2OS44MjcyMzc0LDMzMS43MDQyOCA3MC40MjQ5MDI3LDMzMS45MDM1MDIgNzEuMTIyMTc5LDMzMi4yMDIzMzUgQzg1LjI2NjkyNjEsMzM3Ljg4MDE1NiAxMDEuNzAyNzI0LDM0MC45NjgwOTMgMTE4LjMzNzc0MywzNDEuNTY1NzU5IEMxMzkuODUzNjk2LDM0Mi4zNjI2NDYgMTYwLjU3Mjc2MywzMzkuNjczMTUyIDE3OC4xMDQyOCwzMzMuMjk4MDU0IEMxODIuNzg1OTkyLDMzMS42MDQ2NjkgMTg3LjE2ODg3MiwzMjkuNjEyNDUxIDE5MS4zNTI1MjksMzI3LjQyMTAxMiBDMTkzLjk0MjQxMiwzMjguNDE3MTIxIDE5Ni4xMzM4NTIsMzMwLjUwODk0OSAyMDAuMzE3NTEsMzM1LjM4OTg4MyBDMjAwLjUxNjczMiwzMzUuNTg5MTA1IDIwMC41MTY3MzIsMzM1LjU4OTEwNSAyMDAuNjE2MzQyLDMzNS43ODgzMjcgQzIwMC44MTU1NjQsMzM1Ljk4NzU0OSAyMDAuODE1NTY0LDMzNi4wODcxNiAyMDAuOTE1MTc1LDMzNi4xODY3NyBDMjAxLjExNDM5NywzMzYuNDg1NjAzIDIwMS40MTMyMywzMzYuNjg0ODI1IDIwMS42MTI0NTEsMzM2Ljk4MzY1OCBDMjA0Ljg5OTYxMSwzNDAuODY4NDgyIDIwNy4wOTEwNTEsMzQyLjc2MTA4OSAyMDkuNTgxMzIzLDM0My44NTY4MDkgQzIxMi44Njg0ODIsMzQ1LjI1MTM2MiAyMTYuMDU2MDMxLDM0NC41NTQwODYgMjE5LjM0MzE5MSwzNDEuNTY1NzU5IEMyMjUuMTIwNjIzLDMzNy45Nzk3NjcgMjI1LjUxOTA2NiwzMzIuNDAxNTU2IDIyMS43MzM4NTIsMzI2LjAyNjQ1OSBDMjE5LjA0NDM1OCwzMjEuNTQzOTY5IDIxNC4zNjI2NDYsMzE2Ljg2MjI1NyAyMDkuOTc5NzY3LDMxMy44NzM5MyBDMjE1LjE1OTUzMywzMDguNzkzNzc0IDIxOS42NDIwMjMsMzAyLjcxNzUxIDIyMy4xMjg0MDUsMjk1Ljg0NDM1OCBDMjMyLjY5MTA1MSwyNzYuNzE5MDY2IDIzNi4zNzY2NTQsMjU0LjQwNjIyNiAyMzYuMTc3NDMyLDIyNS43MTgyODggQzIzNi4wNzc4MjEsMjE1LjU1Nzk3NyAyMzUuNjc5Mzc3LDIwNi42OTI2MDcgMjM0LjU4MzY1OCwxODkuNzU4NzU1IEwyMzQuNTgzNjU4LDE4OS4yNjA3IEMyMzUuMDgxNzEyLDE4OS40NTk5MjIgMjM1LjU3OTc2NywxODkuNzU4NzU1IDIzNi4wNzc4MjEsMTkwLjE1NzE5OCBDMjM5LjE2NTc1OSwxOTIuMjQ5MDI3IDI0Mi43NTE3NTEsMTkzLjk0MjQxMiAyNDUuNzQwMDc4LDE5NC4yNDEyNDUgQzI0OS44MjQxMjUsMTk0LjYzOTY4OSAyNTIuNTEzNjE5LDE5Mi40NDgyNDkgMjUyLjkxMjA2MiwxODcuNjY2OTI2IEwyNTIuOTEyMDYyLDE4Ny42NjY5MjYgQzI1NS40MDIzMzUsMTg2LjA3MzE1MiAyNTUuOTAwMzg5LDE4My41ODI4NzkgMjU0LjYwNTQ0NywxODAuNzkzNzc0IEwyNTQuNjA1NDQ3LDE4MC43OTM3NzQgWiBNMjIyLjkyOTE4MywxOC4zMjg0MDQ3IEMyMjguOTA1ODM3LDE5LjkyMjE3OSAyMzQuMDg1NjAzLDI0LjEwNTgzNjYgMjM3LjI3MzE1MiwyOS42ODQwNDY3IEMyNDAuNDYwNywzNS4yNjIyNTY4IDI0MS4zNTcxOTgsNDEuNTM3NzQzMiAyMzkuNTY0MjAyLDQ3LjExNTk1MzMgQzIzNy42NzE1OTUsNTIuOTkyOTk2MSAyMzIuODkwMjcyLDU3LjY3NDcwODIgMjI1LjQxOTQ1NSw2MC40NjM4MTMyIEMyMjMuOTI1MjkyLDU1LjA4NDgyNDkgMjIyLjEzMjI5Niw0OS44MDU0NDc1IDIyMC4xNDAwNzgsNDQuNzI1MjkxOCBDMjIzLjAyODc5NCw0Mi4yMzUwMTk1IDIyNC40MjMzNDYsMzkuMTQ3MDgxNyAyMjIuMTMyMjk2LDM0Ljc2NDIwMjMgQzIxOS44NDEyNDUsMzAuMzgxMzIzIDIxNS44NTY4MDksMjkuODgzMjY4NSAyMTEuNzcyNzYzLDMxLjE3ODIxMDEgQzIwOS4xODI4NzksMjcuNzkxNDM5NyAyMDYuMjk0MTYzLDI0LjgwMzExMjggMjAzLjMwNTgzNywyMi4wMTQwMDc4IEMyMDkuODgwMTU2LDE3LjgzMDM1MDIgMjE2LjY1MzY5NiwxNi42MzUwMTk1IDIyMi45MjkxODMsMTguMzI4NDA0NyBMMjIyLjkyOTE4MywxOC4zMjg0MDQ3IFogTTEwLjU1ODc1NDksNTEuOTk2ODg3MiBDOC40NjY5MjYwNyw0Ni42MTc4OTg4IDkuMTY0MjAyMzMsNDAuMjQyODAxNiAxMi4zNTE3NTEsMzQuNjY0NTkxNCBDMTUuNTM5Mjk5NiwyOS4wODYzODEzIDIwLjcxOTA2NjEsMjQuNzAzNTAxOSAyNi44OTQ5NDE2LDIyLjkxMDUwNTggQzMzLjI3MDAzODksMjEuMDE3ODk4OCA0MC4xNDMxOTA3LDIxLjkxNDM5NjkgNDYuOTE2NzMxNSwyNS44OTg4MzI3IEM0My4wMzE5MDY2LDI5LjM4NTIxNCAzOS41NDU1MjUzLDMzLjM2OTY0OTggMzYuNTU3MTk4NCwzNy43NTI1MjkyIEMzMS4zNzc0MzE5LDM1LjA2MzAzNSAyNi4wOTgwNTQ1LDM0LjU2NDk4MDUgMjMuMTA5NzI3Niw0MC4wNDM1Nzk4IEMyMC4wMjE3ODk5LDQ1LjkyMDYyMjYgMjMuNjA3NzgyMSw0OS42MDYyMjU3IDI4LjY4NzkzNzcsNTIuMzk1MzMwNyBDMjcuOTkwNjYxNSw1NC4wODg3MTYgMjcuMjkzMzg1Miw1NS44ODE3MTIxIDI2LjY5NTcxOTgsNTcuNjc0NzA4MiBDMjUuOTk4NDQzNiw1OS44NjYxNDc5IDI1LjMwMTE2NzMsNjIuMTU3MTk4NCAyNC43MDM1MDE5LDY0LjQ0ODI0OSBDMTcuNDMxOTA2Niw2MS42NTkxNDQgMTIuNjUwNTgzNyw1Ny4zNzU4NzU1IDEwLjU1ODc1NDksNTEuOTk2ODg3MiBMMTAuNTU4NzU0OSw1MS45OTY4ODcyIFogTTIyLjYxMTY3MzIsMTg3Ljc2NjUzNyBDMjIuNTEyMDYyMywxODcuNzY2NTM3IDIxLjkxNDM5NjksMTg3Ljk2NTc1OSAyMS45MTQzOTY5LDE4OC4wNjUzNyBDMjEuNjE1NTY0MiwxODguMTY0OTgxIDIxLjMxNjczMTUsMTg4LjI2NDU5MSAyMS4wMTc4OTg4LDE4OC40NjM4MTMgQzIwLjIyMTAxMTcsMTg4Ljc2MjY0NiAxOS40MjQxMjQ1LDE4OS4yNjA3IDE4LjYyNzIzNzQsMTg5Ljg1ODM2NiBDMTUuODM4MTMyMywxOTEuODUwNTg0IDEyLjQ1MTM2MTksMTkzLjM0NDc0NyA5Ljg2MTQ3ODYsMTkzLjU0Mzk2OSBDNi44NzMxNTE3NSwxOTMuODQyODAyIDUuMTc5NzY2NTQsMTkyLjU0Nzg2IDQuODgwOTMzODUsMTg4Ljk2MTg2OCBDNi45NzI3NjI2NSwxODguMjY0NTkxIDcuODY5MjYwNywxODcuNzY2NTM3IDguNjY2MTQ3ODYsMTg2LjU3MTIwNiBMNy4wNzIzNzM1NCwxODUuMzc1ODc1IEM2LjQ3NDcwODE3LDE4Ni4xNzI3NjMgNS44NzcwNDI4LDE4Ni40NzE1OTUgNC4wODQwNDY2OSwxODcuMDY5MjYxIEw0LjA4NDA0NjY5LDE4Ny4wNjkyNjEgQzMuOTg0NDM1OCwxODcuMDY5MjYxIDMuOTg0NDM1OCwxODcuMDY5MjYxIDMuODg0ODI0OSwxODcuMTY4ODcyIEMyLjI5MTA1MDU4LDE4Ni4yNzIzNzQgMS45OTIyMTc5LDE4NC44Nzc4MjEgMi44ODg3MTU5NSwxODIuODg1NjAzIEMzLjY4NTYwMzExLDE4MS4wOTI2MDcgNS40Nzg1OTkyMiwxNzkuMDAwNzc4IDYuOTcyNzYyNjUsMTc3LjkwNTA1OCBDMTEuNzU0MDg1NiwxNzQuNDE4Njc3IDE4LjEyOTE4MjksMTcyLjcyNTI5MiAyNC41MDQyODAyLDE3My4xMjM3MzUgQzI0LjUwNDI4MDIsMTc1LjYxNDAwOCAyNC42MDM4OTExLDE3OC4xMDQyOCAyNC41MDQyODAyLDE4MC40OTQ5NDIgQzI0LjUwNDI4MDIsMTgwLjc5Mzc3NCAyNC41MDQyODAyLDE4MC45OTI5OTYgMjQuNDA0NjY5MywxODEuMjkxODI5IEMyNC4zMDUwNTg0LDE4Mi42ODYzODEgMjQuMzA1MDU4NCwxODMuMjg0MDQ3IDI0LjIwNTQ0NzUsMTgzLjk4MTMyMyBMMjQuMjA1NDQ3NSwxODMuOTgxMzIzIEMyMy45MDY2MTQ4LDE4Ni44NzAwMzkgMjMuNzA3MzkzLDE4Ny4yNjg0ODIgMjIuNjExNjczMiwxODcuNzY2NTM3IEwyMi42MTE2NzMyLDE4Ny43NjY1MzcgWiBNNTIuNjk0MTYzNCwzMzguMDc5Mzc3IEM1Mi41OTQ1NTI1LDMzOC4xNzg5ODggNTIuNTk0NTUyNSwzMzguMTc4OTg4IDUyLjQ5NDk0MTYsMzM4LjI3ODU5OSBDNDguODA5MzM4NSwzNDEuNDY2MTQ4IDQ3LjAxNjM0MjQsMzQyLjc2MTA4OSA0NC43MjUyOTE4LDM0NC4wNTYwMzEgQzQwLjk0MDA3NzgsMzQ2LjM0NzA4MiAzOC4zNTAxOTQ2LDM0NS44NDkwMjcgMzYuNTU3MTk4NCwzNDMuNjU3NTg4IEMzNi4yNTgzNjU4LDM0My4zNTg3NTUgMzYuMDU5MTQ0LDM0Mi45NjAzMTEgMzUuODU5OTIyMiwzNDIuNjYxNDc5IEMzNS43NjAzMTEzLDM0Mi41NjE4NjggMzUuNjYwNzAwNCwzNDIuMzYyNjQ2IDM1LjU2MTA4OTUsMzQyLjI2MzAzNSBDMzUuNTYxMDg5NSwzNDIuMjYzMDM1IDM1LjU2MTA4OTUsMzQyLjI2MzAzNSAzNS41NjEwODk1LDM0Mi4xNjM0MjQgQzM1Ljc2MDMxMTMsMzQwLjM3MDQyOCAzNi40NTc1ODc1LDMzOS4wNzU0ODYgMzguMjUwNTgzNywzMzYuMjg2MzgxIEMzOC4zNTAxOTQ2LDMzNi4xODY3NyAzOC4zNTAxOTQ2LDMzNi4xODY3NyAzOC4zNTAxOTQ2LDMzNi4wODcxNiBDMzkuNDQ1OTE0NCwzMzQuNDkzMzg1IDM5Ljk0Mzk2ODksMzMzLjU5Njg4NyA0MC40NDIwMjMzLDMzMi41MDExNjcgTDM4LjY0OTAyNzIsMzMxLjcwNDI4IEMzOC4yNTA1ODM3LDMzMi42MDA3NzggMzcuNzUyNTI5MiwzMzMuMzk3NjY1IDM2Ljc1NjQyMDIsMzM0Ljk5MTQ0IEMzNi42NTY4MDkzLDMzNS4wOTEwNTEgMzYuNjU2ODA5MywzMzUuMDkxMDUxIDM2LjY1NjgwOTMsMzM1LjE5MDY2MSBDMzQuODYzODEzMiwzMzcuNzgwNTQ1IDM0LjA2NjkyNjEsMzM5LjM3NDMxOSAzMy42Njg0ODI1LDM0MS4xNjczMTUgTDMzLjU2ODg3MTYsMzQxLjE2NzMxNSBDMzMuNTY4ODcxNiwzNDEuMTY3MzE1IDMzLjU2ODg3MTYsMzQxLjE2NzMxNSAzMy40NjkyNjA3LDM0MS4xNjczMTUgTDMzLjI3MDAzODksMzQxLjE2NzMxNSBDMzMuMDcwODE3MSwzNDEuMDY3NzA0IDMyLjc3MTk4NDQsMzQwLjg2ODQ4MiAzMi4zNzM1NDA5LDM0MC40NzAwMzkgQzI4LjQ4ODcxNiwzMzQuMjk0MTYzIDMxLjU3NjY1MzcsMzI5LjAxNDc4NiA0MC4zNDI0MTI1LDMyMi40NDA0NjcgQzQxLjQzODEzMjMsMzIxLjY0MzU4IDQ1LjEyMzczNTQsMzE5LjA1MzY5NiA0Ni4xMTk4NDQ0LDMxOC4yNTY4MDkgQzQ2LjMxOTA2NjEsMzE4LjI1NjgwOSA0Ni41MTgyODc5LDMxOC4xNTcxOTggNDYuNzE3NTA5NywzMTguMDU3NTg4IEM1Mi4wOTY0OTgxLDMyMi42Mzk2ODkgNTguMzcxOTg0NCwzMjYuNjI0MTI1IDY1LjM0NDc0NzEsMzI5LjkxMTI4NCBMNjUuMzQ0NzQ3MSwzMjkuOTExMjg0IEM2NS4zNDQ3NDcxLDMzMC4wMTA4OTUgNjUuNDQ0MzU4LDMzMC4xMTA1MDYgNjUuNTQzOTY4OSwzMzAuMjEwMTE3IEM2MS40NTk5MjIyLDMzMS4yMDYyMjYgNTguMjcyMzczNSwzMzMuMjk4MDU0IDUyLjY5NDE2MzQsMzM4LjA3OTM3NyBMNTIuNjk0MTYzNCwzMzguMDc5Mzc3IFogTTIxOS45NDA4NTYsMzI3LjIyMTc5IEMyMjMuMDI4Nzk0LDMzMi40MDE1NTYgMjIyLjkyOTE4MywzMzYuNTg1MjE0IDIxOS4wNDQzNTgsMzM5LjQ3MzkzIEMyMTguNzQ1NTI1LDMzOC44NzYyNjUgMjE4LjU0NjMwNCwzMzguMTc4OTg4IDIxOC4xNDc4NiwzMzcuMTgyODc5IEMyMTguMTQ3ODYsMzM3LjA4MzI2OCAyMTguMTQ3ODYsMzM3LjA4MzI2OCAyMTguMDQ4MjQ5LDMzNi45ODM2NTggQzIxNi42NTM2OTYsMzMzLjE5ODQ0NCAyMTUuNzU3MTk4LDMzMS42MDQ2NjkgMjE0LjA2MzgxMywzMjkuODExNjczIEwyMTIuNjY5MjYxLDMzMS4yMDYyMjYgQzIxNC4xNjM0MjQsMzMyLjYwMDc3OCAyMTQuODYwNywzMzQuMDk0OTQyIDIxNi4yNTUyNTMsMzM3LjU4MTMyMyBDMjE2LjI1NTI1MywzMzcuNjgwOTM0IDIxNi4yNTUyNTMsMzM3LjY4MDkzNCAyMTYuMzU0ODY0LDMzNy43ODA1NDUgQzIxNi44NTI5MTgsMzM5LjA3NTQ4NiAyMTcuMTUxNzUxLDMzOS44NzIzNzQgMjE3LjQ1MDU4NCwzNDAuNTY5NjUgQzIxNC44NjA3LDM0Mi43NjEwODkgMjEyLjU2OTY1LDM0My4xNTk1MzMgMjEwLjE3ODk4OCwzNDIuMDYzODEzIEMyMDguMDg3MTYsMzQxLjE2NzMxNSAyMDYuMDk0OTQyLDMzOS4yNzQ3MDggMjAyLjkwNzM5MywzMzUuNjg4NzE2IEMyMDIuNzA4MTcxLDMzNS40ODk0OTQgMjAyLjUwODk0OSwzMzUuMTkwNjYxIDIwMi4zMDk3MjgsMzM0Ljg5MTgyOSBDMjAyLjIxMDExNywzMzQuNzkyMjE4IDIwMi4xMTA1MDYsMzM0LjY5MjYwNyAyMDIuMDEwODk1LDMzNC40OTMzODUgQzIwMS44MTE2NzMsMzM0LjI5NDE2MyAyMDEuODExNjczLDMzNC4yOTQxNjMgMjAxLjcxMjA2MiwzMzQuMDk0OTQyIEMxOTguMDI2NDU5LDMyOS44MTE2NzMgMTk1LjgzNTAxOSwzMjcuNTIwNjIzIDE5My40NDQzNTgsMzI2LjIyNTY4MSBDMTk5LjAyMjU2OCwzMjMuMDM4MTMyIDIwNC4wMDMxMTMsMzE5LjQ1MjE0IDIwOC40ODU2MDMsMzE1LjI2ODQ4MiBDMjEyLjY2OTI2MSwzMTguMzU2NDIgMjE3LjM1MDk3MywzMjIuOTM4NTIxIDIxOS45NDA4NTYsMzI3LjIyMTc5IEwyMTkuOTQwODU2LDMyNy4yMjE3OSBaIE0yMjEuMzM1NDA5LDI5NC45NDc4NiBDMjEyLjc2ODg3MiwzMTIuMTgwNTQ1IDE5Ny42MjgwMTYsMzI0LjMzMzA3NCAxNzcuMzA3MzkzLDMzMS43MDQyOCBDMTU5Ljk3NTA5NywzMzcuOTc5NzY3IDEzOS40NTUyNTMsMzQwLjU2OTY1IDExOC4yMzgxMzIsMzM5Ljc3Mjc2MyBDODEuNjgwOTMzOSwzMzguNDc3ODIxIDUwLjAwNDY2OTMsMzI1LjcyNzYyNiAzNS4xNjI2NDU5LDMwMS42MjE3OSBDMjUuMjAxNTU2NCwyODUuNTg0NDM2IDIxLjkxNDM5NjksMjY1LjE2NDIwMiAyMi44MTA4OTQ5LDIzNy4wNzM5MyBDMjMuMTA5NzI3NiwyMjkuNDAzODkxIDIzLjUwODE3MTIsMjIyLjUzMDczOSAyNC41MDQyODAyLDIwOS45Nzk3NjcgQzI1LjYsMTk1LjgzNTAxOSAyNS44OTg4MzI3LDE5MS43NTA5NzMgMjYuMTk3NjY1NCwxODUuMzc1ODc1IEMyNi4zOTY4ODcyLDE4MC43OTM3NzQgMjYuMzk2ODg3MiwxNzYuMTEyMDYyIDI2LjI5NzI3NjMsMTcxLjEzMTUxOCBDMjYuMDk4MDU0NSwxNjIuMzY1NzU5IDI1LjYsMTU1LjM5Mjk5NiAyNC4zMDUwNTg0LDEzOS43NTQwODYgQzIyLjUxMjA2MjMsMTE5LjAzNTAxOSAyMi4wMTQwMDc4LDEwOS45NzA0MjggMjIuMjEzMjI5Niw5OC42MTQ3ODYgQzIyLjUxMjA2MjMsODMuNjczMTUxOCAyNC41MDQyODAyLDcwLjUyNDUxMzYgMjguNjg3OTM3Nyw1OC4wNzMxNTE4IEMzNS40NjE0Nzg2LDM3Ljg1MjE0MDEgNDcuOTEyODQwNSwyNC4yMDU0NDc1IDY1Ljg0MjgwMTYsMTUuMzQwMDc3OCBDODAuODg0MDQ2Nyw3Ljk2ODg3MTYgOTkuMTEyODQwNSw0LjE4MzY1NzU5IDEyMy45MTU5NTMsMi4xOTE0Mzk2OSBDMTQ3LjEyNTI5MiwyLjE5MTQzOTY5IDE2NC4wNTkxNDQsNC4yODMyNjg0OCAxNzguNzAxOTQ2LDkuNjYyMjU2ODEgQzE5Ni4yMzM0NjMsMTYuMTM2OTY1IDIwOS4yODI0OSwyNy40OTI2MDcgMjE4LjI0NzQ3MSw0NC45MjQ1MTM2IEMyMjQuMDI0OTAzLDU5LjA2OTI2MDcgMjI3LjQxMTY3Myw3NC4zMDk3Mjc2IDIyOS4yMDQ2NjksOTEuODQxMjQ1MSBDMjMwLjU5OTIyMiwxMDUuMTg5MTA1IDIzMC44OTgwNTQsMTE1Ljk0NzA4MiAyMzAuOTk3NjY1LDE0MC4zNTE3NTEgTDIzMC45OTc2NjUsMTQ4LjEyMTQwMSBDMjMxLjA5NzI3NiwxNjAuMTc0MzE5IDIzMS4yOTY0OTgsMTY4LjY0MTI0NSAyMzEuNzk0NTUzLDE3Ny4xMDgxNzEgQzIzMS45OTM3NzQsMTgwLjM5NTMzMSAyMzIuMDkzMzg1LDE4MS43ODk4ODMgMjMyLjU5MTQ0LDE4OS42NTkxNDQgQzIzMy42ODcxNiwyMDYuNTkyOTk2IDIzNC4wODU2MDMsMjE1LjM1ODc1NSAyMzQuMTg1MjE0LDIyNS41MTkwNjYgQzIzNC4zODQ0MzYsMjU0LjEwNzM5MyAyMzAuNzk4NDQ0LDI3Ni4xMjE0MDEgMjIxLjMzNTQwOSwyOTQuOTQ3ODYgTDIyMS4zMzU0MDksMjk0Ljk0Nzg2IFogTTI1MS44MTYzNDIsMTg1Ljg3MzkzIEwyNTEuODE2MzQyLDE4NS44NzM5MyBDMjUxLjcxNjczMiwxODUuODczOTMgMjUxLjYxNzEyMSwxODUuNzc0MzE5IDI1MS41MTc1MSwxODUuNzc0MzE5IEMyNDkuNzI0NTE0LDE4NS4xNzY2NTQgMjQ5LjEyNjg0OCwxODQuNzc4MjEgMjQ4LjUyOTE4MywxODQuMDgwOTM0IEwyNDYuOTM1NDA5LDE4NS4yNzYyNjUgQzI0Ny44MzE5MDcsMTg2LjQ3MTU5NSAyNDguNzI4NDA1LDE4Ni45Njk2NSAyNTAuNzIwNjIzLDE4Ny42NjY5MjYgQzI1MC4zMjIxNzksMTkxLjI1MjkxOCAyNDguNjI4Nzk0LDE5Mi41NDc4NiAyNDUuNzQwMDc4LDE5Mi4yNDkwMjcgQzI0My4xNTAxOTUsMTkyLjA0OTgwNSAyMzkuNzYzNDI0LDE5MC40NTYwMzEgMjM2Ljk3NDMxOSwxODguNTYzNDI0IEMyMzYuMTc3NDMyLDE4Ny45NjU3NTkgMjM1LjM4MDU0NSwxODcuNTY3MzE1IDIzNC41ODM2NTgsMTg3LjE2ODg3MiBDMjM0LjQ4NDA0NywxODcuMTY4ODcyIDIzNC4zODQ0MzYsMTg3LjA2OTI2MSAyMzQuMjg0ODI1LDE4Ny4wNjkyNjEgQzIzMy44ODYzODEsMTgxLjU5MDY2MSAyMzMuODg2MzgxLDE4MC4xOTYxMDkgMjMzLjY4NzE2LDE3Ny4zMDczOTMgQzIzMy41ODc1NDksMTc1LjUxNDM5NyAyMzMuNDg3OTM4LDE3My43MjE0MDEgMjMzLjM4ODMyNywxNzEuOTI4NDA1IEMyMzguOTY2NTM3LDE3Mi4wMjgwMTYgMjQ0LjQ0NTEzNiwxNzMuNzIxNDAxIDI0OC42Mjg3OTQsMTc2LjgwOTMzOSBDMjUwLjEyMjk1NywxNzcuOTA1MDU4IDI1MS45MTU5NTMsMTc5Ljk5Njg4NyAyNTIuNzEyODQsMTgxLjc4OTg4MyBDMjUzLjcwODk0OSwxODMuNDgzMjY4IDI1My41MDk3MjgsMTg0Ljk3NzQzMiAyNTEuODE2MzQyLDE4NS44NzM5MyBMMjUxLjgxNjM0MiwxODUuODczOTMgWiIvPiYjeGE7CQk8ZyB0cmFuc2Zvcm09InRyYW5zbGF0ZSgxMDguOTM0OTA1LCA5Ni45NTEwMTUpIj4mI3hhOwkJCTxwYXRoIGZpbGw9IiNGRkZGRkYiIGQ9Ik0yOS45ODI4Nzk0LDcuMTcxOTg0NDQgQzMwLjA4MjQ5MDMsMTIuMjUyMTQwMSAzMS4wNzg1OTkyLDE3LjgzMDM1MDIgMzAuMTgyMTAxMiwyMy4yMDkzMzg1IEMyOC43ODc1NDg2LDI1Ljc5OTIyMTggMjYuMTk3NjY1NCwyNi4wOTgwNTQ1IDIzLjkwNjYxNDgsMjcuMDk0MTYzNCBDMjAuNzE5MDY2MSwyNi41OTYxMDg5IDE4LjAyOTU3MiwyNC41MDQyODAyIDE2LjczNDYzMDQsMjEuNTE1OTUzMyBDMTUuOTM3NzQzMiwxNS40Mzk2ODg3IDE2LjkzMzg1MjEsOS42NjIyNTY4MSAxNy4yMzI2ODQ4LDMuNTg1OTkyMjIgQzE3LjIzMjY4NDgsMy4zODY3NzA0MyAyMS4wMTc4OTg4LDMuNjg1NjAzMTEgMjQuNDA0NjY5Myw0LjY4MTcxMjA2IEMyNy4yOTMzODUyLDUuNTc4MjEwMTIgMjkuOTgyODc5NCw3LjA3MjM3MzU0IDI5Ljk4Mjg3OTQsNy4xNzE5ODQ0NCBMMjkuOTgyODc5NCw3LjE3MTk4NDQ0IFoiLz4mI3hhOwkJCTxwYXRoIGZpbGw9IiNGRkZGRkYiIGQ9Ik0xLjc5Mjk5NjExLDcuNTcwNDI4MDIgQy0wLjk5NjEwODk0OSwxOC4xMjkxODI5IDUuNDc4NTk5MjIsMzUuMzYxODY3NyAxNi4xMzY5NjUsMjEuMjE3MTIwNiBDMTUuMzQwMDc3OCwxNS4yNDA0NjY5IDE2LjIzNjU3NTksOS40NjMwMzUwMiAxNi41MzU0MDg2LDMuNTg1OTkyMjIgQzE2LjYzNTAxOTUsMy4wODc5Mzc3NCAxLjg5MjYwNyw2Ljg3MzE1MTc1IDEuNzkyOTk2MTEsNy41NzA0MjgwMiBMMS43OTI5OTYxMSw3LjU3MDQyODAyIFoiLz4mI3hhOwkJCTxwYXRoIGZpbGw9IiMwMDAwMDAiIGQ9Ik0zMS4xNzgyMTAxLDExLjg1MzY5NjUgQzMwLjk3ODk4ODMsOC44NjUzNjk2NSAzMC44NzkzNzc0LDcuNjcwMDM4OTEgMzAuODc5Mzc3NCw2LjE3NTg3NTQ5IEwzMC44NzkzNzc0LDUuNDc4NTk5MjIgTDMwLjE4MjEwMTIsNS4yNzkzNzc0MyBMMTcuNjMxMTI4NCwxLjM5NDU1MjUzIEwxNy42MzExMjg0LDAuNjk3Mjc2MjY1IEwxNi4zMzYxODY4LDAuOTk2MTA4OTQ5IEwxNi4yMzY1NzU5LDAuOTk2MTA4OTQ5IEwxNi4yMzY1NzU5LDEuMDk1NzE5ODQgTDIuMDkxODI4NzksNC42ODE3MTIwNiBMMS41OTM3NzQzMiw0Ljc4MTMyMjk2IEwxLjM5NDU1MjUzLDUuMjc5Mzc3NDMgQy0wLjc5Njg4NzE2LDEwLjU1ODc1NDkgLTAuMjk4ODMyNjg1LDE4LjUyNzYyNjUgMi40OTAyNzIzNywyMy40MDg1NjAzIEM1LjY3NzgyMTAxLDI4Ljk4Njc3MDQgMTAuODU3NTg3NSwyOS4wODYzODEzIDE2LjEzNjk2NSwyMi43MTEyODQgQzE3LjYzMTEyODQsMjUuNiAyMC40MjAyMzM1LDI3LjU5MjIxNzkgMjMuNjA3NzgyMSwyOC4wOTAyNzI0IEwyMy45MDY2MTQ4LDI4LjA5MDI3MjQgTDI0LjIwNTQ0NzUsMjcuOTkwNjYxNSBDMjQuNjAzODkxMSwyNy43OTE0Mzk3IDI1LjAwMjMzNDYsMjcuNjkxODI4OCAyNS42OTk2MTA5LDI3LjM5Mjk5NjEgQzI1Ljc5OTIyMTgsMjcuMzkyOTk2MSAyNS43OTkyMjE4LDI3LjM5Mjk5NjEgMjUuODk4ODMyNywyNy4yOTMzODUyIEMyOC43ODc1NDg2LDI2LjI5NzI3NjMgMjkuOTgyODc5NCwyNS41MDAzODkxIDMwLjk3ODk4ODMsMjMuNjA3NzgyMSBMMzEuMDc4NTk5MiwyMy41MDgxNzEyIEwzMS4wNzg1OTkyLDIzLjMwODk0OTQgQzMxLjM3NzQzMTksMjEuNTE1OTUzMyAzMS40NzcwNDI4LDE5LjYyMzM0NjMgMzEuNDc3MDQyOCwxNy41MzE1MTc1IEMzMS40NzcwNDI4LDE2LjAzNzM1NDEgMzEuMzc3NDMxOSwxNC42NDI4MDE2IDMxLjE3ODIxMDEsMTEuODUzNjk2NSBMMzEuMTc4MjEwMSwxMS44NTM2OTY1IFogTTE1LjI0MDQ2NjksOC4xNjgwOTMzOSBDMTUuMTQwODU2LDkuOTYxMDg5NDkgMTUuMDQxMjQ1MSwxMC42NTgzNjU4IDE0Ljk0MTYzNDIsMTEuNjU0NDc0NyBDMTQuNzQyNDEyNSwxNS4zNDAwNzc4IDE0Ljc0MjQxMjUsMTguMTI5MTgyOSAxNS4wNDEyNDUxLDIwLjkxODI4NzkgQzEwLjM1OTUzMzEsMjYuODk0OTQxNiA2LjY3MzkyOTk2LDI2Ljg5NDk0MTYgNC4xODM2NTc1OSwyMi40MTI0NTE0IEMxLjc5Mjk5NjExLDE4LjIyODc5MzggMS4yOTQ5NDE2MywxMS4xNTY0MjAyIDMuMDg3OTM3NzQsNi40NzQ3MDgxNyBMMTUuNjM4OTEwNSwzLjI4NzE1OTUzIEMxNS41MzkyOTk2LDQuNTgyMTAxMTcgMTUuNDM5Njg4Nyw1Ljg3NzA0MjggMTUuMjQwNDY2OSw4LjE2ODA5MzM5IEwxNS4yNDA0NjY5LDguMTY4MDkzMzkgWiBNMjkuMTg1OTkyMiwyMi45MTA1MDU4IEMyOC40ODg3MTYsMjQuMTA1ODM2NiAyNy41OTIyMTc5LDI0LjcwMzUwMTkgMjUuMjAxNTU2NCwyNS41MDAzODkxIEMyNS4xMDE5NDU1LDI1LjUwMDM4OTEgMjUuMTAxOTQ1NSwyNS41MDAzODkxIDI1LjAwMjMzNDYsMjUuNiBDMjQuNDA0NjY5MywyNS43OTkyMjE4IDI0LjAwNjIyNTcsMjUuOTk4NDQzNiAyMy43MDczOTMsMjYuMDk4MDU0NSBDMjEuMDE3ODk4OCwyNS42IDE4LjcyNjg0ODIsMjMuODA3MDAzOSAxNy42MzExMjg0LDIxLjMxNjczMTUgQzE3LjMzMjI5NTcsMTguNjI3MjM3NCAxNy4zMzIyOTU3LDE1LjgzODEzMjMgMTcuNTMxNTE3NSwxMi4xNTI1MjkyIEMxNy42MzExMjg0LDExLjE1NjQyMDIgMTcuNjMxMTI4NCwxMC40NTkxNDQgMTcuODMwMzUwMiw4LjY2NjE0Nzg2IEMxOC4wMjk1NzIsNi4zNzUwOTcyOCAxOC4xMjkxODI5LDQuOTgwNTQ0NzUgMTguMTI5MTgyOSwzLjY4NTYwMzExIEwyOC45ODY3NzA0LDYuOTcyNzYyNjUgQzI4Ljk4Njc3MDQsOC4yNjc3MDQyOCAyOS4wODYzODEzLDkuNDYzMDM1MDIgMjkuMjg1NjAzMSwxMi4wNTI5MTgzIEMyOS40ODQ4MjQ5LDE0Ljc0MjQxMjUgMjkuNTg0NDM1OCwxNi4xMzY5NjUgMjkuNTg0NDM1OCwxNy43MzA3MzkzIEMyOS41ODQ0MzU4LDE5LjYyMzM0NjMgMjkuNDg0ODI0OSwyMS4zMTY3MzE1IDI5LjE4NTk5MjIsMjIuOTEwNTA1OCBMMjkuMTg1OTkyMiwyMi45MTA1MDU4IFoiLz4mI3hhOwkJPC9nPiYjeGE7CQk8ZyB0cmFuc2Zvcm09InRyYW5zbGF0ZSg0OC40NzU1MDgsIDIxLjk3NTU2NCkiPiYjeGE7CQkJPHBhdGggZmlsbD0iI0ZGRkZGRiIgZD0iTTIuMjkxMDUwNTgsMzguNzQ4NjM4MSBDMTEuNDU1MjUyOSw3NC40MDkzMzg1IDY4LjUzMjI5NTcsNjUuMjQ1MTM2MiA2Ni4zNDA4NTYsMjkuNDg0ODI0OSBDNjMuNzUwOTcyOCwtMTMuMzQ3ODU5OSAtNi40NzQ3MDgxNywtNS4wODAxNTU2NCAyLjI5MTA1MDU4LDM4Ljc0ODYzODEiLz4mI3hhOwkJCTxwYXRoIGZpbGw9IiMwMDAwMDAiIGQ9Ik02Ny4zMzY5NjUsMjkuMzg1MjE0IEM2Ni43MzkyOTk2LDE5LjAyNTY4MDkgNjIuMTU3MTk4NCwxMC45NTcxOTg0IDU0LjU4Njc3MDQsNS44NzcwNDI4IEM0Ny44MTMyMjk2LDEuMjk0OTQxNjMgMzguODQ4MjQ5LC0wLjQ5ODA1NDQ3NSAyOS45ODI4Nzk0LDAuNTk3NjY1MzcgQzIxLjExNzUwOTcsMS43OTI5OTYxMSAxMi45NDk0MTYzLDUuNzc3NDMxOTEgNy41NzA0MjgwMiwxMi4wNTI5MTgzIEMxLjU5Mzc3NDMyLDE5LjAyNTY4MDkgLTAuNjk3Mjc2MjY1LDI4LjE4OTg4MzMgMS4zOTQ1NTI1MywzOC43NDg2MzgxIEwyLjI5MTA1MDU4LDM4LjU0OTQxNjMgTDEuMzk0NTUyNTMsMzguNzQ4NjM4MSBDMTAuNzU3OTc2Nyw3NS40MDU0NDc1IDY5LjUyODQwNDcsNjYuNTQwMDc3OCA2Ny4zMzY5NjUsMjkuMzg1MjE0IEw2Ny4zMzY5NjUsMjkuMzg1MjE0IFogTTMuMTg3NTQ4NjQsMzguNTQ5NDE2MyBDMS4xOTUzMzA3NCwyOC40ODg3MTYgMy4zODY3NzA0MywxOS45MjIxNzkgOC45NjQ5ODA1NCwxMy40NDc0NzA4IEMxNC4wNDUxMzYyLDcuNTcwNDI4MDIgMjEuNzE1MTc1MSwzLjY4NTYwMzExIDMwLjE4MjEwMTIsMi41ODk4ODMyNyBDMzguNjQ5MDI3MiwxLjQ5NDE2MzQyIDQ3LjExNTk1MzMsMy4xODc1NDg2NCA1My40OTEwNTA2LDcuNTcwNDI4MDIgQzYwLjU2MzQyNDEsMTIuMzUxNzUxIDY0Ljg0NjY5MjYsMTkuODIyNTY4MSA2NS40NDQzNTgsMjkuNjg0MDQ2NyBDNjcuNTM2MTg2OCw2NC40NDgyNDkgMTIuMDUyOTE4Myw3Mi44MTU1NjQyIDMuMTg3NTQ4NjQsMzguNTQ5NDE2MyBMMy4xODc1NDg2NCwzOC41NDk0MTYzIFoiLz4mI3hhOwkJCTxlbGxpcHNlIHJ5PSIxMC40NTkxNDQiIHJ4PSI5LjY2MjI1NjgxIiBjeT0iMzIuODcxNTk1MyIgY3g9IjE4LjAyOTU3MiIgZmlsbD0iIzAwMDAwMCIvPiYjeGE7CQkJPGVsbGlwc2Ugcnk9IjIuNjg5NDk0MTYiIHJ4PSIyLjI5MTA1MDU4IiBjeT0iMzUuMjYyMjU2OCIgY3g9IjIyLjQxMjQ1MTQiIGZpbGw9IiNGRkZGRkYiLz4mI3hhOwkJPC9nPiYjeGE7CQk8ZyB0cmFuc2Zvcm09InRyYW5zbGF0ZSgxMjkuNjE3Nzg5LCAxOC4wOTc1MjMpIj4mI3hhOwkJCTxwYXRoIGZpbGw9IiNGRkZGRkYiIGQ9Ik0xLjE5NTMzMDc0LDM1Ljk1OTUzMzEgQzguMjY3NzA0MjgsNzYuODk5NjEwOSA3NS4yMDYyMjU3LDY2LjA0MjAyMzMgNjUuNTQzOTY4OSwyNC44MDMxMTI4IEM1Ni44Nzc4MjEsLTEyLjI1MjE0MDEgLTEuMTk1MzMwNzQsLTEuOTkyMjE3OSAxLjE5NTMzMDc0LDM1Ljk1OTUzMzEiLz4mI3hhOwkJCTxwYXRoIGZpbGw9IiMwMDAwMDAiIGQ9Ik02Ni40NDA0NjY5LDI0LjYwMzg5MTEgQzU3LjU3NTA5NzMsLTEzLjU0NzA4MTcgLTIuMTkxNDM5NjksLTMuMDg3OTM3NzQgMC4xOTkyMjE3OSwzNi4wNTkxNDQgTDAuMTk5MjIxNzksMzYuMTU4NzU0OSBDMy40ODYzODEzMiw1NS40ODMyNjg1IDIwLjcxOTA2NjEsNjUuMzQ0NzQ3MSAzOS43NDQ3NDcxLDYyLjE1NzE5ODQgQzQ4LjQxMDg5NDksNjAuNjYzMDM1IDU2LjE4MDU0NDcsNTYuNDc5Mzc3NCA2MS4yNjA3MDA0LDUwLjMwMzUwMTkgQzY2LjgzODkxMDUsNDMuNDMwMzUwMiA2OC44MzExMjg0LDM0LjU2NDk4MDUgNjYuNDQwNDY2OSwyNC42MDM4OTExIEw2Ni40NDA0NjY5LDI0LjYwMzg5MTEgWiBNNTkuNzY2NTM3LDQ5LjEwODE3MTIgQzU0Ljk4NTIxNCw1NC44ODU2MDMxIDQ3LjcxMzYxODcsNTguODcwMDM4OSAzOS40NDU5MTQ0LDYwLjI2NDU5MTQgQzIxLjQxNjM0MjQsNjMuMjUyOTE4MyA1LjI3OTM3NzQzLDUzLjk4OTEwNTEgMi4wOTE4Mjg3OSwzNS44NTk5MjIyIEMtMC4wOTk2MTA4OTQ5LC0wLjk5NjEwODk0OSA1Ni4yODAxNTU2LC0xMC44NTc1ODc1IDY0LjY0NzQ3MDgsMjUuMDAyMzM0NiBDNjYuODM4OTEwNSwzNC40NjUzNjk2IDY1LjA0NTkxNDQsNDIuNzMzMDczOSA1OS43NjY1MzcsNDkuMTA4MTcxMiBMNTkuNzY2NTM3LDQ5LjEwODE3MTIgWiIvPiYjeGE7CQkJPGVsbGlwc2Ugcnk9IjEwLjQ1OTE0NCIgcng9IjkuNDYzMDM1MDIiIGN5PSIzNC4xNjY1MzciIGN4PSIxNy42MzExMjg0IiBmaWxsPSIjMDAwMDAwIi8+JiN4YTsJCQk8ZWxsaXBzZSByeT0iMi42ODk0OTQxNiIgcng9IjIuMTkxNDM5NjkiIGN5PSIzNi41NTcxOTg0IiBjeD0iMjIuMDE0MDA3OCIgZmlsbD0iI0ZGRkZGRiIvPiYjeGE7CQk8L2c+JiN4YTsJCTxnIHRyYW5zZm9ybT0idHJhbnNsYXRlKDk5LjUzNjM3NSwgNzAuNDUxMDcyKSI+JiN4YTsJCQk8cGF0aCBmaWxsPSIjRjZEMkEyIiBkPSJNMTMuMjQ4MjQ5LDEyLjU1MDk3MjggQzUuMzc4OTg4MzMsMTMuMjQ4MjQ5IC0wLjk5NjEwODk0OSwyMi41MTIwNjIzIDMuMDg3OTM3NzQsMjkuODgzMjY4NSBDOC40NjY5MjYwNywzOS42NDUxMzYyIDIwLjUxOTg0NDQsMjguOTg2NzcwNCAyNy45OTA2NjE1LDI5Ljk4Mjg3OTQgQzM2LjY1NjgwOTMsMzAuMTgyMTAxMiA0My43MjkxODI5LDM5LjE0NzA4MTcgNTAuNjAyMzM0NiwzMS41NzY2NTM3IEM1OC4yNzIzNzM1LDIzLjIwOTMzODUgNDcuMzE1MTc1MSwxNS4wNDEyNDUxIDM4LjY0OTAyNzIsMTEuNDU1MjUyOSBMMTMuMjQ4MjQ5LDEyLjU1MDk3MjggTDEzLjI0ODI0OSwxMi41NTA5NzI4IFoiLz4mI3hhOwkJCTxwYXRoIGZpbGw9IiMyMzFGMjAiIGQ9Ik01MS41OTg0NDM2LDE5LjIyNDkwMjcgQzQ4LjkwODk0OTQsMTUuODM4MTMyMyA0NC4yMjcyMzc0LDEyLjc1MDE5NDYgMzkuMTQ3MDgxNywxMC42NTgzNjU4IEwzOC45NDc4NTk5LDEwLjU1ODc1NDkgTDM4Ljc0ODYzODEsMTAuNTU4NzU0OSBMMTMuMjQ4MjQ5LDExLjU1NDg2MzggQzQuMzgyODc5MzgsMTIuMzUxNzUxIC0xLjk5MjIxNzksMjIuNjExNjczMiAyLjI5MTA1MDU4LDMwLjM4MTMyMyBDMy45ODQ0MzU4LDMzLjM2OTY0OTggNi4yNzU0ODYzOCwzNC44NjM4MTMyIDkuMzYzNDI0MTIsMzUuMDYzMDM1IEMxMS42NTQ0NzQ3LDM1LjE2MjY0NTkgMTQuMDQ1MTM2MiwzNC42NjQ1OTE0IDE3LjczMDczOTMsMzMuMzY5NjQ5OCBDMTguMDI5NTcyLDMzLjI3MDAzODkgMTguNDI4MDE1NiwzMy4xNzA0MjggMTguOTI2MDcsMzIuOTcxMjA2MiBDMjMuOTA2NjE0OCwzMS4yNzc4MjEgMjUuODk4ODMyNywzMC43Nzk3NjY1IDI3Ljg5MTA1MDYsMzEuMDc4NTk5MiBMMjcuOTkwNjYxNSwzMS4wNzg1OTkyIEMzMC4zODEzMjMsMzEuMDc4NTk5MiAzMi4zNzM1NDA5LDMxLjc3NTg3NTUgMzYuMTU4NzU0OSwzMy4yNzAwMzg5IEM0MC4zNDI0MTI1LDM0Ljk2MzQyNDEgNDEuNjM3MzU0MSwzNS40NjE0Nzg2IDQzLjcyOTE4MjksMzUuNjYwNzAwNCBDNDYuNjE3ODk4OCwzNS44NTk5MjIyIDQ5LjEwODE3MTIsMzQuODYzODEzMiA1MS4zOTkyMjE4LDMyLjM3MzU0MDkgQzU1LjI4NDA0NjcsMjguMDkwMjcyNCA1NS4wODQ4MjQ5LDIzLjUwODE3MTIgNTEuNTk4NDQzNiwxOS4yMjQ5MDI3IEw1MS41OTg0NDM2LDE5LjIyNDkwMjcgWiBNNDkuOTA1MDU4NCwzMC45Nzg5ODgzIEM0OC4wMTI0NTE0LDMzLjA3MDgxNzEgNDYuMTE5ODQ0NCwzMy43NjgwOTM0IDQzLjgyODc5MzgsMzMuNjY4NDgyNSBDNDIuMDM1Nzk3NywzMy41Njg4NzE2IDQwLjg0MDQ2NjksMzMuMDcwODE3MSAzNi44NTYwMzExLDMxLjQ3NzA0MjggQzMyLjg3MTU5NTMsMjkuNzgzNjU3NiAzMC42ODAxNTU2LDI5LjE4NTk5MjIgMjguMDkwMjcyNCwyOS4wODYzODEzIEMyNS42LDI4Ljc4NzU0ODYgMjMuNTA4MTcxMiwyOS4yODU2MDMxIDE4LjIyODc5MzgsMzEuMDc4NTk5MiBDMTcuNzMwNzM5MywzMS4yNzc4MjEgMTcuMzMyMjk1NywzMS4zNzc0MzE5IDE3LjAzMzQ2MywzMS40NzcwNDI4IEM5Ljc2MTg2NzcsMzMuOTY3MzE1MiA2LjI3NTQ4NjM4LDMzLjc2ODA5MzQgMy44ODQ4MjQ5LDI5LjM4NTIxNCBDMC4yOTg4MzI2ODUsMjIuOTEwNTA1OCA1Ljc3NzQzMTkxLDE0LjE0NDc0NzEgMTMuMjQ4MjQ5LDEzLjQ0NzQ3MDggTDM4LjQ0OTgwNTQsMTIuNDUxMzYxOSBDNDMuMjMxMTI4NCwxNC40NDM1Nzk4IDQ3LjUxNDM5NjksMTcuMzMyMjk1NyA1MC4wMDQ2NjkzLDIwLjQyMDIzMzUgQzUyLjk5Mjk5NjEsMjQuMDA2MjI1NyA1My4wOTI2MDcsMjcuNTkyMjE3OSA0OS45MDUwNTg0LDMwLjk3ODk4ODMgTDQ5LjkwNTA1ODQsMzAuOTc4OTg4MyBaIi8+JiN4YTsJCQk8ZyBmaWxsPSIjMDAwMDAwIiB0cmFuc2Zvcm09InRyYW5zbGF0ZSgxMS45NTMzMDcsIDAuMDAwMDAwKSI+JiN4YTsJCQkJPHBhdGggZD0iTTI4LjY4NzkzNzcsOC4yNjc3MDQyOCBDMjUuNiwtMy4wODc5Mzc3NCAtMC4yOTg4MzI2ODUsLTEuMzk0NTUyNTMgMC4yOTg4MzI2ODUsMTIuMTUyNTI5MiBDMS41OTM3NzQzMiwyMi4yMTMyMjk2IDMxLjY3NjI2NDYsMTkuNTIzNzM1NCAyOC42ODc5Mzc3LDguMjY3NzA0MjggTDI4LjY4NzkzNzcsOC4yNjc3MDQyOCBaIi8+JiN4YTsJCQk8L2c+JiN4YTsJCTwvZz4mI3hhOwk8L2c+JiN4YTs8L3N2Zz4=;" parent="1" vertex="1">
          <mxGeometry x="264" y="153.13" width="44.09" height="60" as="geometry" />
        </mxCell>
        <mxCell id="SAYPR_8h2VooXGS9I6N6-5" value="" style="shape=image;verticalLabelPosition=bottom;labelBackgroundColor=default;verticalAlign=top;aspect=fixed;imageAspect=0;image=data:image/svg+xml,PHN2ZyB4bWxuczp4bGluaz0iaHR0cDovL3d3dy53My5vcmcvMTk5OS94bGluayIgeG1sbnM9Imh0dHA6Ly93d3cudzMub3JnLzIwMDAvc3ZnIiBwcmVzZXJ2ZUFzcGVjdFJhdGlvPSJ4TWlkWU1pZCIgdmVyc2lvbj0iMS4xIiB2aWV3Qm94PSIwLjUxNjg2NDc3NjYxMTMyODEgMC4zNzE0MzI3MjE2MTQ4Mzc2NSAyNTQuNzI1MzcyMzE0NDUzMTIgMzQ1LjM3OTY2OTE4OTQ1MzEiIGhlaWdodD0iMzQ1LjM3OTY2OTE4OTQ1MzEiIHdpZHRoPSIyNTQuNzI1MzcyMzE0NDUzMTIiPiYjeGE7CTxnPiYjeGE7CQk8cGF0aCBmaWxsPSIjNTM4MkExIiBkPSJNODIuNTUzOTQ5MSwyNjcuNDcyNTI0IEM4Mi41NTM5NDkxLDI2Ny40NzI1MjQgNjkuMzU1NTIsMjc1LjE0Nzg2OSA5MS45NDY4MjE4LDI3Ny43NDUxMDUgQzExOS4zMTU1NDksMjgwLjg2NzM3NSAxMzMuMzAzMzg5LDI4MC40MTk2MDcgMTYzLjQ2MzkxMywyNzQuNzExMjczIEMxNjMuNDYzOTEzLDI3NC43MTEyNzMgMTcxLjM5MzM5NiwyNzkuNjgzMjU4IDE4Mi40Njc0OTEsMjgzLjk4OTY0NCBDMTE0Ljg1NTU2NCwzMTIuOTY2OTgyIDI5LjQ0ODM3ODIsMjgyLjMxMTIxNSA4Mi41NTM5NDkxLDI2Ny40NzI1MjQiLz4mI3hhOwkJPHBhdGggZmlsbD0iIzUzODJBMSIgZD0iTTc0LjI5MjEzMDksMjI5LjY1ODk5NiBDNzQuMjkyMTMwOSwyMjkuNjU4OTk2IDU5LjQ4ODgxNDUsMjQwLjYxNjcyNyA4Mi4wOTY4NzI3LDI0Mi45NTUxNzEgQzExMS4zMzMwMDQsMjQ1Ljk3MTMxNiAxMzQuNDIxNDExLDI0Ni4yMTgwMDcgMTc0LjM3MzIzNiwyMzguNTI0OTc1IEMxNzQuMzczMjM2LDIzOC41MjQ5NzUgMTc5Ljg5OTExMywyNDQuMTI3MTg1IDE4OC41ODgyMTgsMjQ3LjE5MDgwNyBDMTA2Ljg0MTM2NywyNzEuMDk0NjkxIDE1Ljc5MDA4LDI0OS4wNzU4OTggNzQuMjkyMTMwOSwyMjkuNjU4OTk2Ii8+JiN4YTsJCTxwYXRoIGZpbGw9IiNFNzZGMDAiIGQ9Ik0xNDMuOTQxODE4LDE2NS41MTQ3MDUgQzE2MC42MDEzNjcsMTg0LjY5NTE1NiAxMzkuNTY0Njg0LDIwMS45NTUxNDIgMTM5LjU2NDY4NCwyMDEuOTU1MTQyIEMxMzkuNTY0Njg0LDIwMS45NTUxNDIgMTgxLjg2NjEyNCwxODAuMTE3ODc2IDE2Mi40Mzg5ODIsMTUyLjc3MjQyMiBDMTQ0LjI5NDYzMywxMjcuMjcxMDk4IDEzMC4zODAzMzUsMTE0LjYwMDQ5NSAyMDUuNzA2NzA1LDcwLjkxMzg2MTggQzIwNS43MDY3MDUsNzAuOTEzODYxOCA4Ny40NjkxNDkxLDEwMC40NDQxNiAxNDMuOTQxODE4LDE2NS41MTQ3MDUiLz4mI3hhOwkJPHBhdGggZmlsbD0iIzUzODJBMSIgZD0iTTIzMy4zNjQwMTUsMjk1LjQ0MTY4NyBDMjMzLjM2NDAxNSwyOTUuNDQxNjg3IDI0My4xMzExMTMsMzAzLjQ4OTM5NiAyMjIuNjA3MzYsMzA5LjcxNTMxNiBDMTgzLjU4MDg1OCwzMjEuNTM3ODYyIDYwLjE3NDg5NDUsMzI1LjEwNzg5OCAyNS44OTMyMzY0LDMxMC4xODYzNTYgQzEzLjU2OTg2MTgsMzA0LjgyNTI1MSAzNi42Nzk2OCwyOTcuMzg1NDI1IDQzLjk0OTE0OTEsMjk1LjgyNDI5MSBDNTEuNTMwNDcyNywyOTQuMTgwMzA1IDU1Ljg2MjkyMzYsMjk0LjQ4NjU3NSA1NS44NjI5MjM2LDI5NC40ODY1NzUgQzQyLjE1ODA4LDI4NC44MzIxMTYgLTMyLjcxOTU5MjcsMzEzLjQ0MzYwNyAxNy44Mjg3NzA5LDMyMS42Mzc0NjkgQzE1NS42ODE1MTMsMzQzLjk5MzI1MSAyNjkuMTIxMTY0LDMxMS41NzA2MTggMjMzLjM2NDAxNSwyOTUuNDQxNjg3Ii8+JiN4YTsJCTxwYXRoIGZpbGw9IiM1MzgyQTEiIGQ9Ik04OC45MDA4ODczLDE5MC40Nzk4MjUgQzg4LjkwMDg4NzMsMTkwLjQ3OTgyNSAyNi4xMjg3NTY0LDIwNS4zODkyNjUgNjYuNjcxNzA5MSwyMTAuODAzNDMzIEM4My43OTAxOTY0LDIxMy4wOTUzMzEgMTE3LjkxNTQ2MiwyMTIuNTc2ODE1IDE0OS43MDIyODQsMjA5LjkxMzQ4NCBDMTc1LjY4MDIzMywyMDcuNzIyMTI0IDIwMS43NjUyMzYsMjAzLjA2MjkyNCAyMDEuNzY1MjM2LDIwMy4wNjI5MjQgQzIwMS43NjUyMzYsMjAzLjA2MjkyNCAxOTIuNjA1MDkxLDIwNi45ODU3NzUgMTg1Ljk3Nzk0OSwyMTEuNTEwOTI0IEMxMjIuMjMzOTQ5LDIyOC4yNzU2NjUgLTAuOTA3NjM2MzY0LDIyMC40NzY1MDkgMzQuNTQzMjQzNiwyMDMuMzI4MjMzIEM2NC41MjQxMDE4LDE4OC44MzU4NCA4OC45MDA4ODczLDE5MC40Nzk4MjUgODguOTAwODg3MywxOTAuNDc5ODI1Ii8+JiN4YTsJCTxwYXRoIGZpbGw9IiM1MzgyQTEiIGQ9Ik0yMDEuNTA2NDQ0LDI1My40MjIzMTMgQzI2Ni4zMDUxNjQsMjE5Ljc1MDQgMjM2LjM0NDc4NSwxODcuMzkyIDIxNS40MzI4NDQsMTkxLjc1MTQ0NyBDMjEwLjMwNzI1OCwxOTIuODE4MjY5IDIwOC4wMjE4NzYsMTkzLjc0MjY2MiAyMDguMDIxODc2LDE5My43NDI2NjIgQzIwOC4wMjE4NzYsMTkzLjc0MjY2MiAyMDkuOTI0NjU1LDE5MC43NjE4OTEgMjEzLjU1ODkyNCwxODkuNDcxNjUxIEMyNTQuOTI5NDU1LDE3NC45MjcxMjcgMjg2Ljc0NjA2NSwyMzIuMzY4ODczIDIwMC4yMDQxMDIsMjU1LjExOTM2IEMyMDAuMjA0MTAyLDI1NS4xMjAyOTEgMjAxLjIwNjY5MSwyNTQuMjIzODI1IDIwMS41MDY0NDQsMjUzLjQyMjMxMyIvPiYjeGE7CQk8cGF0aCBmaWxsPSIjRTc2RjAwIiBkPSJNMTYyLjQzODk4MiwwLjM3MTQzMjcyNyBDMTYyLjQzODk4MiwwLjM3MTQzMjcyNyAxOTguMzI1NTI3LDM2LjI3MDA4IDEyOC40MDIxNTMsOTEuNDcyMDU4MiBDNzIuMzMwNzA1NSwxMzUuNzUzNTQyIDExNS42MTYxMTYsMTYxLjAwMTY1OCAxMjguMzc4ODgsMTg5Ljg0ODY2OSBDOTUuNjQ5MDQ3MywxNjAuMzE4MzcxIDcxLjYyOTczMDksMTM0LjMyMjczNSA4Ny43NDM3NjczLDExMC4xMjg0MDcgQzExMS4zOTUzNzUsNzQuNjEzMjk0NSAxNzYuOTE4MzQyLDU3LjM5NDI2OTEgMTYyLjQzODk4MiwwLjM3MTQzMjcyNyIvPiYjeGE7CQk8cGF0aCBmaWxsPSIjNTM4MkExIiBkPSJNOTUuMjY4MzA1NSwzNDQuNjY1MzY3IEMxNTcuNDY2OTk2LDM0OC42NDY4NjUgMjUyLjk4MDEzMSwzNDIuNDU2MzIgMjU1LjI0MjI0LDMxMy4wMjU2MjkgQzI1NS4yNDIyNCwzMTMuMDI1NjI5IDI1MC44OTM5NjQsMzI0LjE4MjU3NSAyMDMuODM4MzcxLDMzMy4wNDI5NjcgQzE1MC43NTA0ODcsMzQzLjAzMzQ4NCA4NS4yNzQwNjU1LDM0MS44NjcwNTUgNDYuNDM5MzMwOSwzMzUuNDY0MjYyIEM0Ni40NDAyNjE4LDMzNS40NjMzMzEgNTQuMzg5Mjk0NSwzNDIuMDQzOTI3IDk1LjI2ODMwNTUsMzQ0LjY2NTM2NyIvPiYjeGE7CTwvZz4mI3hhOzwvc3ZnPg==;" parent="1" vertex="1">
          <mxGeometry x="330" y="153.13" width="44.34" height="60" as="geometry" />
        </mxCell>
        <mxCell id="SAYPR_8h2VooXGS9I6N6-6" value="" style="shape=image;verticalLabelPosition=bottom;labelBackgroundColor=default;verticalAlign=top;aspect=fixed;imageAspect=0;image=data:image/svg+xml,PHN2ZyB4bWxuczp4bGluaz0iaHR0cDovL3d3dy53My5vcmcvMTk5OS94bGluayIgeG1sbnM9Imh0dHA6Ly93d3cudzMub3JnLzIwMDAvc3ZnIiBwcmVzZXJ2ZUFzcGVjdFJhdGlvPSJ4TWlkWU1pZCIgdmVyc2lvbj0iMS4xIiB2aWV3Qm94PSIwIDAgMjU2IDI1NiIgaGVpZ2h0PSIyNTYiIHdpZHRoPSIyNTYiPiYjeGE7ICAgIDxkZWZzPiYjeGE7ICAgICAgICA8bGluZWFyR3JhZGllbnQgaWQ9ImxpbmVhckdyYWRpZW50LTEiIHkyPSI1Mi4zODEzOTUzJSIgeDI9IjczLjg0NDY2NjclIiB5MT0iMTQ2LjU1OTEzNiUiIHgxPSIyNi41OTklIj4mI3hhOyAgICAgICAgICAgIDxzdG9wIG9mZnNldD0iOS42NzclIiBzdG9wLWNvbG9yPSIjMDA5NUQ1Ii8+JiN4YTsgICAgICAgICAgICA8c3RvcCBvZmZzZXQ9IjMwLjA3JSIgc3RvcC1jb2xvcj0iIzIzOEFEOSIvPiYjeGE7ICAgICAgICAgICAgPHN0b3Agb2Zmc2V0PSI2Mi4xMSUiIHN0b3AtY29sb3I9IiM1NTdCREUiLz4mI3hhOyAgICAgICAgICAgIDxzdG9wIG9mZnNldD0iODYuNDMlIiBzdG9wLWNvbG9yPSIjNzQ3MkUyIi8+JiN4YTsgICAgICAgICAgICA8c3RvcCBvZmZzZXQ9IjEwMCUiIHN0b3AtY29sb3I9IiM4MDZFRTMiLz4mI3hhOyAgICAgICAgPC9saW5lYXJHcmFkaWVudD4mI3hhOyAgICAgICAgPGxpbmVhckdyYWRpZW50IGlkPSJsaW5lYXJHcmFkaWVudC0yIiB5Mj0iLTEzLjU1Mzg0NjIlIiB4Mj0iNjguNjgyMzkyJSIgeTE9IjM3LjEwNDkyMzElIiB4MT0iMTMuOTg0MDUzMiUiPiYjeGE7ICAgICAgICAgICAgPHN0b3Agb2Zmc2V0PSIxMS44MyUiIHN0b3AtY29sb3I9IiMwMDk1RDUiLz4mI3hhOyAgICAgICAgICAgIDxzdG9wIG9mZnNldD0iNDEuNzglIiBzdG9wLWNvbG9yPSIjM0M4M0RDIi8+JiN4YTsgICAgICAgICAgICA8c3RvcCBvZmZzZXQ9IjY5LjYyJSIgc3RvcC1jb2xvcj0iIzZENzRFMSIvPiYjeGE7ICAgICAgICAgICAgPHN0b3Agb2Zmc2V0PSI4My4zMyUiIHN0b3AtY29sb3I9IiM4MDZFRTMiLz4mI3hhOyAgICAgICAgPC9saW5lYXJHcmFkaWVudD4mI3hhOyAgICAgICAgPGxpbmVhckdyYWRpZW50IGlkPSJsaW5lYXJHcmFkaWVudC0zIiB5Mj0iLTEuMTE1NjY2NjclIiB4Mj0iNzYuMjE5MTY2NyUiIHkxPSI5MS45Mzk2NjY3JSIgeDE9Ii0xNi44MzYxNjY3JSI+JiN4YTsgICAgICAgICAgICA8c3RvcCBvZmZzZXQ9IjEwLjc1JSIgc3RvcC1jb2xvcj0iI0M3NTdCQyIvPiYjeGE7ICAgICAgICAgICAgPHN0b3Agb2Zmc2V0PSIyMS4zOCUiIHN0b3AtY29sb3I9IiNEMDYwOUEiLz4mI3hhOyAgICAgICAgICAgIDxzdG9wIG9mZnNldD0iNDIuNTQlIiBzdG9wLWNvbG9yPSIjRTE3MjVDIi8+JiN4YTsgICAgICAgICAgICA8c3RvcCBvZmZzZXQ9IjYwLjQ4JSIgc3RvcC1jb2xvcj0iI0VFN0UyRiIvPiYjeGE7ICAgICAgICAgICAgPHN0b3Agb2Zmc2V0PSI3NC4zJSIgc3RvcC1jb2xvcj0iI0Y1ODYxMyIvPiYjeGE7ICAgICAgICAgICAgPHN0b3Agb2Zmc2V0PSI4Mi4zMiUiIHN0b3AtY29sb3I9IiNGODg5MDkiLz4mI3hhOyAgICAgICAgPC9saW5lYXJHcmFkaWVudD4mI3hhOyAgICA8L2RlZnM+JiN4YTsgICAgPGc+JiN4YTsJCQkJPHBvbHlnb24gcG9pbnRzPSIwIDI1NiAxMjguNDI2NjY3IDEyNy41NzMzMzMgMjU2IDI1NiIgZmlsbD0idXJsKCNsaW5lYXJHcmFkaWVudC0xKSIvPiYjeGE7CQkJCTxwb2x5Z29uIHBvaW50cz0iMCAwIDEyOC40MjY2NjcgMCAwIDEzOC42NjY2NjciIGZpbGw9InVybCgjbGluZWFyR3JhZGllbnQtMikiLz4mI3hhOwkJCQk8cG9seWdvbiBwb2ludHM9IjEyOC40MjY2NjcgMCAwIDEzNS4yNTMzMzMgMCAyNTYgMTI4LjQyNjY2NyAxMjcuNTczMzMzIDI1NiAwIiBmaWxsPSJ1cmwoI2xpbmVhckdyYWRpZW50LTMpIi8+JiN4YTsgICAgPC9nPiYjeGE7PC9zdmc+;" parent="1" vertex="1">
          <mxGeometry x="388" y="153.13" width="60" height="60" as="geometry" />
        </mxCell>
        <mxCell id="SAYPR_8h2VooXGS9I6N6-7" value="" style="shape=image;verticalLabelPosition=bottom;labelBackgroundColor=default;verticalAlign=top;aspect=fixed;imageAspect=0;image=data:image/svg+xml,PHN2ZyB4bWxuczp4bGluaz0iaHR0cDovL3d3dy53My5vcmcvMTk5OS94bGluayIgeG1sbnM9Imh0dHA6Ly93d3cudzMub3JnLzIwMDAvc3ZnIiBwcmVzZXJ2ZUFzcGVjdFJhdGlvPSJ4TWlkWU1pZCIgdmVyc2lvbj0iMS4xIiB2aWV3Qm94PSI1LjY4NDM0MTg4NjA4MDgwMmUtMTQgMCAyNTYgMjg4LjQ2Mzc3NTYzNDc2NTYiIGhlaWdodD0iMjg4LjQ2Mzc3NTYzNDc2NTYiIHdpZHRoPSIyNTYiPiYjeGE7ICAgIDxnPiYjeGE7ICAgICAgICA8cGF0aCBmaWxsPSIjNTM5RTQzIiBkPSJNMTI3Ljk5OTk5OSwyODguNDYzNzcxIEMxMjQuMDI0ODQ0LDI4OC40NjM3NzEgMTIwLjMxNDY5OSwyODcuNDAzNzI4IDExNi44Njk1NjQsMjg1LjU0ODY1NiBMODEuNjIzMTg4NCwyNjQuNjEyODM4IEM3Ni4zMjI5OCwyNjEuNjk3NzI0IDc4Ljk3MzA4NTQsMjYwLjYzNzY4MiA4MC41NjMxNDU4LDI2MC4xMDc2NjEgQzg3LjcxODQyNTksMjU3LjcyMjU3IDg5LjA0MzQ3NzUsMjU3LjE5MjU0NyA5Ni40NjM3Njg4LDI1Mi45NTIzODEgQzk3LjI1ODc5NzksMjUyLjQyMjM2MSA5OC4zMTg4NDA1LDI1Mi42ODczNzIgOTkuMTEzODcxOCwyNTMuMjE3MzkyIEwxMjYuMTQ0OTI3LDI2OS4zODMwMjQgQzEyNy4yMDQ5NywyNjkuOTEzMDQ1IDEyOC41MzAwMjEsMjY5LjkxMzA0NSAxMjkuMzI1MDUzLDI2OS4zODMwMjQgTDIzNS4wNjQxODIsMjA4LjE2NTYzNCBDMjM2LjEyNDIyNSwyMDcuNjM1NjExIDIzNi42NTQyNDUsMjA2LjU3NTU3MSAyMzYuNjU0MjQ1LDIwNS4yNTA1MTkgTDIzNi42NTQyNDUsODMuMDgwNzQ2NyBDMjM2LjY1NDI0NSw4MS43NTU2OTI5IDIzNi4xMjQyMjUsODAuNjk1NjUyNiAyMzUuMDY0MTgyLDgwLjE2NTYzMjQgTDEyOS4zMjUwNTMsMTkuMjEzMjUwNiBDMTI4LjI2NTAxLDE4LjY4MzIzMDUgMTI2LjkzOTk1OSwxOC42ODMyMzA1IDEyNi4xNDQ5MjcsMTkuMjEzMjUwNiBMMjAuNDA1Nzk1NCw4MC4xNjU2MzI0IEMxOS4zNDU3NTUxLDgwLjY5NTY1MjYgMTguODE1NzM0OSw4Mi4wMjA3MDQxIDE4LjgxNTczNDksODMuMDgwNzQ2NyBMMTguODE1NzM0OSwyMDUuMjUwNTE5IEMxOC44MTU3MzQ5LDIwNi4zMTA1NiAxOS4zNDU3NTUxLDIwNy42MzU2MTEgMjAuNDA1Nzk1NCwyMDguMTY1NjM0IEw0OS4yOTE5MjQ3LDIyNC44NjEyODYgQzY0LjkyNzUzNjQsMjMyLjgxMTU5NSA3NC43MzI5MTk2LDIyMy41MzYyMzQgNzQuNzMyOTE5NiwyMTQuMjYwODcxIEw3NC43MzI5MTk2LDkzLjY4MTE1OSBDNzQuNzMyOTE5Niw5Mi4wOTEwOTg1IDc2LjA1Nzk3MTEsOTAuNTAxMDM1OCA3Ny45MTMwNDI4LDkwLjUwMTAzNTggTDkxLjQyODU3MTYsOTAuNTAxMDM1OCBDOTMuMDE4NjM0Myw5MC41MDEwMzU4IDk0LjYwODY5NDgsOTEuODI2MDg3MyA5NC42MDg2OTQ4LDkzLjY4MTE1OSBMOTQuNjA4Njk0OCwyMTQuMjYwODcxIEM5NC42MDg2OTQ4LDIzNS4xOTY2ODkgODMuMjEzMjUxMiwyNDcuMzg3MTY0IDYzLjMzNzQ3MzcsMjQ3LjM4NzE2NCBDNTcuMjQyMjM2MiwyNDcuMzg3MTY0IDUyLjQ3MjA1MDIsMjQ3LjM4NzE2NCAzOC45NTY1MjE0LDI0MC43NjE5MDYgTDExLjEzMDQzNDcsMjI0Ljg2MTI4NiBDNC4yNDAxNjU4MSwyMjAuODg2MTI5IDUuNjg0MzQxODllLTE0LDIxMy40NjU4NCA1LjY4NDM0MTg5ZS0xNCwyMDUuNTE1NTI4IEw1LjY4NDM0MTg5ZS0xNCw4My4zNDU3NTU3IEM1LjY4NDM0MTg5ZS0xNCw3NS4zOTU0NDY1IDQuMjQwMTY1ODEsNjcuOTc1MTU1MiAxMS4xMzA0MzQ3LDY0LjAwMDAwMDYgTDExNi44Njk1NjQsMi43ODI2MDc1MiBDMTIzLjQ5NDgyNCwtMC45Mjc1MzU4NDEgMTMyLjUwNTE3NiwtMC45Mjc1MzU4NDEgMTM5LjEzMDQzNiwyLjc4MjYwNzUyIEwyNDQuODY5NTY1LDY0LjAwMDAwMDYgQzI1MS43NTk4MzQsNjcuOTc1MTU1MiAyNTYsNzUuMzk1NDQ2NSAyNTYsODMuMzQ1NzU1NyBMMjU2LDIwNS41MTU1MjggQzI1NiwyMTMuNDY1ODQgMjUxLjc1OTgzNCwyMjAuODg2MTI5IDI0NC44Njk1NjUsMjI0Ljg2MTI4NiBMMTM5LjEzMDQzNiwyODYuMDc4Njc2IEMxMzUuNjg1Mjk5LDI4Ny42Njg3MzkgMTMxLjcxMDE0NSwyODguNDYzNzcxIDEyNy45OTk5OTksMjg4LjQ2Mzc3MSBMMTI3Ljk5OTk5OSwyODguNDYzNzcxIFogTTE2MC41OTYyNzQsMjA0LjQ1NTQ4OCBDMTE0LjIxOTQ2MSwyMDQuNDU1NDg4IDEwNC42NzkwODksMTgzLjI1NDY1OSAxMDQuNjc5MDg5LDE2NS4yMzM5NTUgQzEwNC42NzkwODksMTYzLjY0Mzg5MyAxMDYuMDA0MTQxLDE2Mi4wNTM4MzIgMTA3Ljg1OTIxMiwxNjIuMDUzODMyIEwxMjEuNjM5NzUyLDE2Mi4wNTM4MzIgQzEyMy4yMjk4MTMsMTYyLjA1MzgzMiAxMjQuNTU0ODY0LDE2My4xMTM4NzIgMTI0LjU1NDg2NCwxNjQuNzAzOTM1IEMxMjYuNjc0OTQ3LDE3OC43NDk0ODQgMTMyLjc3MDE4NywxODUuNjM5NzUzIDE2MC44NjEyODMsMTg1LjYzOTc1MyBDMTgzLjEyMjE1NCwxODUuNjM5NzUzIDE5Mi42NjI1MjYsMTgwLjYwNDU1NiAxOTIuNjYyNTI2LDE2OC42NzkwOSBDMTkyLjY2MjUyNiwxNjEuNzg4ODIxIDE5MC4wMTI0MjMsMTU2Ljc1MzYyNCAxNTUuMjk2MDY1LDE1My4zMDg0ODkgQzEyNi40MDk5MzgsMTUwLjM5MzM3NSAxMDguMzg5MjM1LDE0NC4wMzMxMjYgMTA4LjM4OTIzNSwxMjAuOTc3MjI2IEMxMDguMzg5MjM1LDk5LjUxMTM4NzUgMTI2LjQwOTkzOCw4Ni43OTA4OTAxIDE1Ni42MjExMTksODYuNzkwODkwMSBDMTkwLjU0MjQ0Myw4Ni43OTA4OTAxIDIwNy4yMzgwOTUsOTguNDUxMzQ3MiAyMDkuMzU4MTc4LDEyMy44OTIzNCBDMjA5LjM1ODE3OCwxMjQuNjg3MzcxIDIwOS4wOTMxNjcsMTI1LjQ4MjQwMyAyMDguNTYzMTQ3LDEyNi4yNzc0MzQgQzIwOC4wMzMxMjcsMTI2LjgwNzQ1NCAyMDcuMjM4MDk1LDEyNy4zMzc0NzQgMjA2LjQ0MzA2NCwxMjcuMzM3NDc0IEwxOTIuNjYyNTI2LDEyNy4zMzc0NzQgQzE5MS4zMzc0NzUsMTI3LjMzNzQ3NCAxOTAuMDEyNDIzLDEyNi4yNzc0MzQgMTg5Ljc0NzQxMiwxMjQuOTUyMzgyIEMxODYuNTY3Mjg5LDExMC4zNzY4MTMgMTc4LjM1MTk2NiwxMDUuNjA2NjI1IDE1Ni42MjExMTksMTA1LjYwNjYyNSBDMTMyLjI0MDE2NSwxMDUuNjA2NjI1IDEyOS4zMjUwNTMsMTE0LjA4Njk1NyAxMjkuMzI1MDUzLDEyMC40NDcyMDUgQzEyOS4zMjUwNTMsMTI4LjEzMjUwNiAxMzIuNzcwMTg3LDEzMC41MTc2IDE2NS42MzE0NzEsMTM0Ljc1Nzc2NiBDMTk4LjIyNzc0NCwxMzguOTk3OTMxIDIxMy41OTgzNDQsMTQ1LjA5MzE2OSAyMTMuNTk4MzQ0LDE2Ny44ODQwNTggQzIxMy4zMzMzMzMsMTkxLjIwNDk3IDE5NC4yNTI1ODksMjA0LjQ1NTQ4OCAxNjAuNTk2Mjc0LDIwNC40NTU0ODggTDE2MC41OTYyNzQsMjA0LjQ1NTQ4OCBaIi8+JiN4YTsgICAgPC9nPiYjeGE7PC9zdmc+;" parent="1" vertex="1">
          <mxGeometry x="458" y="153.13" width="53.32" height="60" as="geometry" />
        </mxCell>
        <mxCell id="SAYPR_8h2VooXGS9I6N6-8" value="" style="shape=image;verticalLabelPosition=bottom;labelBackgroundColor=default;verticalAlign=top;aspect=fixed;imageAspect=0;image=data:image/svg+xml,PHN2ZyB4bWxuczp4bGluaz0iaHR0cDovL3d3dy53My5vcmcvMTk5OS94bGluayIgeG1sbnM9Imh0dHA6Ly93d3cudzMub3JnLzIwMDAvc3ZnIiBwcmVzZXJ2ZUFzcGVjdFJhdGlvPSJ4TWlkWU1pZCIgdmVyc2lvbj0iMS4xIiB2aWV3Qm94PSIwLjE0NDU1MTA4MzQ0NTU0OSAwLjA3MjI3NTU0OTE3MzM1NTEgMjU1LjM4Mzg2NTM1NjQ0NTMgMjU0LjA1Mzk4NTU5NTcwMzEyIiBoZWlnaHQ9IjI1NC4wNTM5ODU1OTU3MDMxMiIgd2lkdGg9IjI1NS4zODM4NjUzNTY0NDUzIj4mI3hhOyAgICA8ZGVmcz4mI3hhOyAgICAgICAgPGxpbmVhckdyYWRpZW50IGlkPSJsaW5lYXJHcmFkaWVudC0xIiB5Mj0iNzguMjAwODUzOCUiIHgyPSI3OS42Mzg4MzI1JSIgeTE9IjEyLjAzOTM5MjglIiB4MT0iMTIuOTU5MzU5NCUiPiYjeGE7ICAgICAgICAgICAgPHN0b3Agb2Zmc2V0PSIwJSIgc3RvcC1jb2xvcj0iIzM4N0VCOCIvPiYjeGE7ICAgICAgICAgICAgPHN0b3Agb2Zmc2V0PSIxMDAlIiBzdG9wLWNvbG9yPSIjMzY2OTk0Ii8+JiN4YTsgICAgICAgIDwvbGluZWFyR3JhZGllbnQ+JiN4YTsgICAgICAgIDxsaW5lYXJHcmFkaWVudCBpZD0ibGluZWFyR3JhZGllbnQtMiIgeTI9Ijg4LjQyOTAzNzIlIiB4Mj0iOTAuNzQxNTMyOCUiIHkxPSIyMC41NzkxODEzJSIgeDE9IjE5LjEyNzUyNSUiPiYjeGE7ICAgICAgICAgICAgPHN0b3Agb2Zmc2V0PSIwJSIgc3RvcC1jb2xvcj0iI0ZGRTA1MiIvPiYjeGE7ICAgICAgICAgICAgPHN0b3Agb2Zmc2V0PSIxMDAlIiBzdG9wLWNvbG9yPSIjRkZDMzMxIi8+JiN4YTsgICAgICAgIDwvbGluZWFyR3JhZGllbnQ+JiN4YTsgICAgPC9kZWZzPiYjeGE7ICAgIDxnPiYjeGE7ICAgICAgICA8cGF0aCBmaWxsPSJ1cmwoI2xpbmVhckdyYWRpZW50LTEpIiBkPSJNMTI2LjkxNTg2NiwwLjA3MjI3NTU0OTEgQzYyLjA4MzU4MzEsMC4wNzIyODAxNzMzIDY2LjEzMjEyODgsMjguMTg3NDY0OCA2Ni4xMzIxMjg4LDI4LjE4NzQ2NDggTDY2LjIwNDQwNDMsNTcuMzE0NTExNSBMMTI4LjA3MjI3Niw1Ny4zMTQ1MTE1IEwxMjguMDcyMjc2LDY2LjA1OTg1MzIgTDQxLjYzMDcxNzEsNjYuMDU5ODUzMiBDNDEuNjMwNzE3MSw2Ni4wNTk4NTMyIDAuMTQ0NTUxMDk4LDYxLjM1NDk0MzggMC4xNDQ1NTEwOTgsMTI2Ljc3MTMxNSBDMC4xNDQ1NDY0NzQsMTkyLjE4NzY3MyAzNi4zNTQ2MDE5LDE4OS44Njc4NzEgMzYuMzU0NjAxOSwxODkuODY3ODcxIEw1Ny45NjQ5OTE1LDE4OS44Njc4NzEgTDU3Ljk2NDk5MTUsMTU5LjUxMjE0IEM1Ny45NjQ5OTE1LDE1OS41MTIxNCA1Ni44MDAxMzYzLDEyMy4zMDIwODkgOTMuNTk2ODM3OSwxMjMuMzAyMDg5IEwxNTQuOTU4NzgsMTIzLjMwMjA4OSBDMTU0Ljk1ODc4LDEyMy4zMDIwODkgMTg5LjQzNDIxOCwxMjMuODU5Mzg2IDE4OS40MzQyMTgsODkuOTgzMDYwNCBMMTg5LjQzNDIxOCwzMy45Njk1MDg4IEMxODkuNDM0MjE4LDMzLjk2OTUwNDEgMTk0LjY2ODU0MSwwLjA3MjI3NTU0OTEgMTI2LjkxNTg2NiwwLjA3MjI3NTU0OTEgTDEyNi45MTU4NjYsMC4wNzIyNzU1NDkxIEwxMjYuOTE1ODY2LDAuMDcyMjc1NTQ5MSBaIE05Mi44MDE4MDY5LDE5LjY1ODk0OTcgQzk4Ljk1NzIwNjgsMTkuNjU4OTQ1MiAxMDMuOTMyMjQyLDI0LjYzMzk4NDYgMTAzLjkzMjI0MiwzMC43ODkzODQ1IEMxMDMuOTMyMjQ2LDM2Ljk0NDc4NDQgOTguOTU3MjA2OCw0MS45MTk4MTkzIDkyLjgwMTgwNjksNDEuOTE5ODE5MyBDODYuNjQ2NDA3LDQxLjkxOTgyMzkgODEuNjcxMzcyMSwzNi45NDQ3ODQ0IDgxLjY3MTM3MjEsMzAuNzg5Mzg0NSBDODEuNjcxMzY3NCwyNC42MzM5ODQ2IDg2LjY0NjQwNywxOS42NTg5NDk3IDkyLjgwMTgwNjksMTkuNjU4OTQ5NyBMOTIuODAxODA2OSwxOS42NTg5NDk3IEw5Mi44MDE4MDY5LDE5LjY1ODk0OTcgWiIvPiYjeGE7ICAgICAgICA8cGF0aCBmaWxsPSJ1cmwoI2xpbmVhckdyYWRpZW50LTIpIiBkPSJNMTI4Ljc1NzEwMSwyNTQuMTI2MjcxIEMxOTMuNTg5NDAzLDI1NC4xMjYyNzEgMTg5LjU0MDgzOSwyMjYuMDExMDgxIDE4OS41NDA4MzksMjI2LjAxMTA4MSBMMTg5LjQ2ODU2NCwxOTYuODg0MDM1IEwxMjcuNjAwNjkyLDE5Ni44ODQwMzUgTDEyNy42MDA2OTIsMTg4LjEzODY5MyBMMjE0LjA0MjI1MSwxODguMTM4NjkzIEMyMTQuMDQyMjUxLDE4OC4xMzg2OTMgMjU1LjUyODQxNywxOTIuODQzNTg5IDI1NS41Mjg0MTcsMTI3LjQyNzIwOCBDMjU1LjUyODQ0LDYyLjAxMDg1NjYgMjE5LjMxODM2Niw2NC4zMzA2NTg5IDIxOS4zMTgzNjYsNjQuMzMwNjU4OSBMMTk3LjcwNzk3Niw2NC4zMzA2NTg5IEwxOTcuNzA3OTc2LDk0LjY4NjM4MzIgQzE5Ny43MDc5NzYsOTQuNjg2MzgzMiAxOTguODcyODUsMTMwLjg5NjQzNCAxNjIuMDc2MTMsMTMwLjg5NjQzNCBMMTAwLjcxNDE4MiwxMzAuODk2NDM0IEMxMDAuNzE0MTgyLDEzMC44OTY0MzQgNjYuMjM4NzQ1LDEzMC4zMzkxMzggNjYuMjM4NzQ1LDE2NC4yMTU0ODYgTDY2LjIzODc0NSwyMjAuMjI5MDM4IEM2Ni4yMzg3NDUsMjIwLjIyOTAzOCA2MS4wMDQ0MjI1LDI1NC4xMjYyNzEgMTI4Ljc1NzEwMSwyNTQuMTI2MjcxIEwxMjguNzU3MTAxLDI1NC4xMjYyNzEgTDEyOC43NTcxMDEsMjU0LjEyNjI3MSBaIE0xNjIuODcxMTYsMjM0LjUzOTU5NyBDMTU2LjcxNTc1OSwyMzQuNTM5NTk3IDE1MS43NDA3MjYsMjI5LjU2NDU2NCAxNTEuNzQwNzI2LDIyMy40MDkxNjIgQzE1MS43NDA3MjYsMjE3LjI1Mzc1OSAxNTYuNzE1NzU5LDIxMi4yNzg3MjcgMTYyLjg3MTE2LDIxMi4yNzg3MjcgQzE2OS4wMjY1NjMsMjEyLjI3ODcyNyAxNzQuMDAxNTk1LDIxNy4yNTM3NTkgMTc0LjAwMTU5NSwyMjMuNDA5MTYyIEMxNzQuMDAxNjE4LDIyOS41NjQ1NjQgMTY5LjAyNjU2MywyMzQuNTM5NTk3IDE2Mi44NzExNiwyMzQuNTM5NTk3IEwxNjIuODcxMTYsMjM0LjUzOTU5NyBMMTYyLjg3MTE2LDIzNC41Mzk1OTcgWiIvPiYjeGE7ICAgIDwvZz4mI3hhOzwvc3ZnPg==;" parent="1" vertex="1">
          <mxGeometry x="521" y="153.13" width="60.24" height="60" as="geometry" />
        </mxCell>
        <mxCell id="SAYPR_8h2VooXGS9I6N6-9" value="" style="shape=image;verticalLabelPosition=bottom;labelBackgroundColor=default;verticalAlign=top;aspect=fixed;imageAspect=0;image=data:image/svg+xml,PHN2ZyB4bWxuczp4bGluaz0iaHR0cDovL3d3dy53My5vcmcvMTk5OS94bGluayIgeG1sbnM9Imh0dHA6Ly93d3cudzMub3JnLzIwMDAvc3ZnIiBwcmVzZXJ2ZUFzcGVjdFJhdGlvPSJ4TWlkWU1pZCIgdmVyc2lvbj0iMS4xIiB2aWV3Qm94PSItMS40MjEwODU0NzE1MjAyMDA0ZS0xNCAwIDI1NiAyNTYuMDA0ODgyODEyNSIgaGVpZ2h0PSIyNTYuMDA0ODgyODEyNSIgd2lkdGg9IjI1NiI+JiN4YTsgICAgPGc+JiN4YTsgICAgICAgIDxwYXRoIGZpbGw9IiMwMDAwMDAiIGQ9Ik0yNTQuMjUxMTY2LDEyNC44NjE4ODIgTDI0My41MDM3ODQsMTE4LjIwODk3MyBDMjQzLjQxMzI4NCwxMTcuMTYyMTE5IDI0My4zMTA1NTYsMTE2LjExNzcxIDI0My4xOTgwNDMsMTE1LjA3ODE5MyBMMjUyLjQzMzg0NSwxMDYuNDYzNjU1IEMyNTMuMzczMDgsMTA1LjU4ODAxNSAyNTMuNzkzNzc4LDEwNC4yOTE2NzYgMjUzLjUzOTQwMiwxMDMuMDM2OTE4IEMyNTMuMjkyMzY0LDEwMS43NzcyNjggMjUyLjQwOTM4NiwxMDAuNzQwMTk3IDI1MS4yMDg0MzgsMTAwLjI5MjU5MyBMMjM5LjQwMTk3Miw5NS44Nzc3MDM5IEMyMzkuMTA2MDE1LDk0Ljg1NTMwODQgMjM4Ljc5NTM4Myw5My44NDAyNTA3IDIzOC40Nzc0MTMsOTIuODMwMDg0OCBMMjQ1Ljg0MjA4NSw4Mi42MDEyMzgyIEMyNDYuNTkyOTgzLDgxLjU2MTcyMTMgMjQ2Ljc0NzA3Niw4MC4yMDkxMjYzIDI0Ni4yNTc4OTIsNzkuMDIyODU0MSBDMjQ1Ljc2ODcwNyw3Ny44NDE0NzM3IDI0NC42OTk4MzksNzYuOTk1MTg0NiAyNDMuNDM1Mjk4LDc2Ljc4NzI4MTIgTDIzMC45ODU1NTQsNzQuNzYyMDU3NiBDMjMwLjUwMTI2MSw3My44MTc5MzE3IDIyOS45OTc0MDEsNzIuODg4NDgxMiAyMjkuNDg4NjQ5LDcxLjk2NjM2ODYgTDIzNC43MjA0NzcsNjAuNDgyNzYzOSBDMjM1LjI1NjEzNCw1OS4zMTM2MTMxIDIzNS4xNDYwNjcsNTcuOTUzNjgwMyAyMzQuNDMxODU4LDU2Ljg5MjE1MDEgQzIzMy43MjAwOTUsNTUuODI1NzI4IDIzMi41MTQyNTUsNTUuMjAyMDE3OSAyMzEuMjI3Nyw1NS4yNTA5MzYzIEwyMTguNTkyMDY2LDU1LjY5MTIwMjMgQzIxNy45MzkwMDUsNTQuODc0MjY0MyAyMTcuMjczNzE0LDU0LjA2NDY2NDEgMjE2LjU5NjE5NCw1My4yNjk3Mzk0IEwyMTkuNDk5NTAzLDQwLjk2MTg1ODkgQzIxOS43OTMwMTQsMzkuNzExOTkyNyAyMTkuNDIzNjgsMzguNDAzNDI0MyAyMTguNTEzNzk3LDM3LjQ5NTk4NzIgQzIxNy42MTEyNTEsMzYuNTkwOTk1OSAyMTYuMzAwMjM3LDM2LjIxNjc2OTkgMjE1LjA1MDM3MSwzNi41MTAyODA1IEwyMDIuNzQ0OTM2LDM5LjQxMTE0NDIgQzIwMS45NDc1NjYsMzguNzM2MDY5NyAyMDEuMTM3OTY1LDM4LjA2ODMzMyAyMDAuMzE4NTgxLDM3LjQxNTI3MTcgTDIwMC43NjEyOTMsMjQuNzc5NjM3NyBDMjAwLjgxMDIxMiwyMy41MDA0MjA0IDIwMC4xODY1MDIsMjIuMjg0Nzk3MSAxOTkuMTIwMDc5LDIxLjU3NTQ3OTYgQzE5OC4wNTEyMTEsMjAuODYxMjcwNCAxOTYuNjk4NjE3LDIwLjc1MzY0OTggMTk1LjUzMTkxMiwyMS4yODQ0MTQ5IEwxODQuMDUwNzUzLDI2LjUxODY4ODQgQzE4My4xMjM3NDgsMjYuMDA5OTM2NiAxODIuMTk0Mjk4LDI1LjUwNjA3NjYgMTgxLjI1NTA2NCwyNS4wMTkzMzgxIEwxNzkuMjI0OTQ4LDEyLjU2NzE0ODIgQzE3OS4wMTk0OTEsMTEuMzA1MDUyNCAxNzguMTczMjAyLDEwLjIzMzczODQgMTc2Ljk4OTM3Niw5Ljc0NDU1NCBDMTc1LjgwNzk5NSw5LjI1MjkyMzY0IDE3NC40NTI5NTQsOS40MTE5MDg1OCAxNzMuNDEzNDM3LDEwLjE2MDM2MDggTDE2My4xNzcyNTMsMTcuNTI1MDMyNSBDMTYyLjE2OTUzMywxNy4yMDQ2MTY3IDE2MS4xNTY5MjEsMTYuODk2NDMwNSAxNjAuMTM0NTI2LDE2LjYwMjkxOTggTDE1NS43MTk2MzYsNC43OTQwMDc0OSBDMTU1LjI3MjAzMiwzLjU5MDYxMzc3IDE1NC4yMzQ5NjEsMi43MDc2MzU4NiAxNTIuOTc1MzExLDIuNDU4MTUxOCBDMTUxLjcxODEwNywyLjIxMTExMzY2IDE1MC40MjQyMTUsMi42MjkzNjYzNSAxNDkuNTUxMDIsMy41NjM3MDg2MyBMMTQwLjkzNjQ4MiwxMi44MDY4NDg2IEMxMzkuODk2OTY2LDEyLjY5MTg5MDIgMTM4Ljg1MDExMSwxMi41ODY3MTU2IDEzNy44MDU3MDIsMTIuNTAxMTA4MyBMMTMxLjE1Mjc5NCwxLjc1MTI4MDI5IEMxMzAuNDgwMTY1LDAuNjYyODQ0OTEzIDEyOS4yODkwMDEsMCAxMjguMDA3MzM4LDAgQzEyNi43MjU2NzUsMCAxMjUuNTM0NTEsMC42NjI4NDQ5MTMgMTI0Ljg2NDMyOCwxLjc1MTI4MDI5IEwxMTguMjExNDE5LDEyLjUwMTEwODMgQzExNy4xNjQ1NjUsMTIuNTg2NzE1NiAxMTYuMTE3NzEsMTIuNjkxODkwMiAxMTUuMDc4MTkzLDEyLjgwNjg0ODYgTDEwNi40NjEyMDksMy41NjM3MDg2MyBDMTA1LjU4ODAxNSwyLjYyOTM2NjM1IDEwNC4yOTE2NzYsMi4yMTExMTM2NiAxMDMuMDM2OTE4LDIuNDU4MTUxOCBDMTAxLjc3NzI2OCwyLjcxMDA4MTc5IDEwMC43NDAxOTcsMy41OTA2MTM3NyAxMDAuMjkyNTkzLDQuNzk0MDA3NDkgTDk1Ljg3NzcwMzksMTYuNjAyOTE5OCBDOTQuODU1MzA4NCwxNi44OTY0MzA1IDkzLjg0MjY5NjYsMTcuMjA3MDYyNiA5Mi44MzI1MzA4LDE3LjUyNTAzMjUgTDgyLjU5ODc5MjMsMTAuMTYwMzYwOCBDODEuNTU5Mjc1NCw5LjQwOTQ2MjY2IDgwLjIwNDIzNDUsOS4yNTA0Nzc3MiA3OS4wMjA0MDgyLDkuNzQ0NTU0IEM3Ny44MzkwMjc3LDEwLjIzMzczODQgNzYuOTkwMjkyNywxMS4zMDUwNTI0IDc2Ljc4NDgzNTMsMTIuNTY3MTQ4MiBMNzQuNzU0NzE5OSwyNS4wMTkzMzgxIEM3My44MTU0ODU3LDI1LjUwNjA3NjYgNzIuODg2MDM1MywyNi4wMDc0OTA2IDcxLjk1OTAzMDgsMjYuNTE4Njg4NCBMNjAuNDc3ODcyLDIxLjI4NDQxNDkgQzU5LjMxMTE2NzIsMjAuNzUxMjAzOSA1Ny45NTEyMzQ0LDIwLjg2MTI3MDQgNTYuODg5NzA0MiwyMS41NzU0Nzk2IEM1NS44MjMyODIxLDIyLjI4NDc5NzEgNTUuMTk5NTcyLDIzLjUwMDQyMDQgNTUuMjQ4NDkwNCwyNC43Nzk2Mzc3IEw1NS42ODg3NTY0LDM3LjQxNTI3MTcgQzU0Ljg3MTgxODQsMzguMDY4MzMzIDU0LjA2MjIxODEsMzguNzM2MDY5NyA1My4yNjI0MDE2LDM5LjQxMTE0NDIgTDQwLjk1Njk2NzEsMzYuNTEwMjgwNSBDMzkuNzA3MTAwOCwzNi4yMTkyMTU4IDM4LjM5NjA4NjUsMzYuNTkwOTk1OSAzNy40OTEwOTUzLDM3LjQ5NTk4NzIgQzM2LjU4MTIxMjMsMzguNDAzNDI0MyAzNi4yMTE4NzgsMzkuNzExOTkyNyAzNi41MDUzODg3LDQwLjk2MTg1ODkgTDM5LjQwMzgwNjUsNTMuMjY5NzM5NCBDMzguNzMxMTc3OSw1NC4wNjcxMSAzOC4wNjU4ODcsNTQuODc0MjY0MyAzNy40MTI4MjU4LDU1LjY5MTIwMjMgTDI0Ljc3NzE5MTgsNTUuMjUwOTM2MyBDMjMuNTAyODY2Myw1NS4yMTQyNDc1IDIyLjI4NDc5NzEsNTUuODI1NzI4IDIxLjU3MzAzMzcsNTYuODkyMTUwMSBDMjAuODU4ODI0NCw1Ny45NTM2ODAzIDIwLjc1MTIwMzksNTkuMzEzNjEzMSAyMS4yODE5NjksNjAuNDgyNzYzOSBMMjYuNTE2MjQyNSw3MS45NjYzNjg2IEMyNi4wMDc0OTA2LDcyLjg4ODQ4MTIgMjUuNTAzNjMwNyw3My44MTc5MzE3IDI1LjAxNjg5MjIsNzQuNzYyMDU3NiBMMTIuNTY3MTQ4Miw3Ni43ODcyODEyIEMxMS4zMDI2MDY0LDc2Ljk5MjczODcgMTAuMjM2MTg0NCw3Ny44MzkwMjc3IDkuNzQ0NTU0LDc5LjAyMjg1NDEgQzkuMjU1MzY5NTYsODAuMjA5MTI2MyA5LjQxNDM1NDUxLDgxLjU2MTcyMTMgMTAuMTYwMzYwOCw4Mi42MDEyMzgyIEwxNy41MjUwMzI1LDkyLjgzMDA4NDggQzE3LjIwNDYxNjcsOTMuODQwMjUwNyAxNi44OTM5ODQ2LDk0Ljg1NTMwODQgMTYuNjAwNDczOSw5NS44Nzc3MDM5IEw0Ljc5MTU2MTU3LDEwMC4yOTI1OTMgQzMuNTkzMDU5NywxMDAuNzQwMTk3IDIuNzEwMDgxNzksMTAxLjc3NzI2OCAyLjQ2MDU5NzcyLDEwMy4wMzY5MTggQzIuMjExMTEzNjYsMTA0LjI5NDEyMiAyLjYyOTM2NjM1LDEwNS41ODgwMTUgMy41NjYxNTQ1NSwxMDYuNDYzNjU1IEwxMi44MDQ0MDI3LDExNS4wNzgxOTMgQzEyLjY4OTQ0NDMsMTE2LjExNzcxIDEyLjU4NjcxNTYsMTE3LjE2NDU2NSAxMi40OTg2NjI0LDExOC4yMDg5NzMgTDEuNzUxMjgwMjksMTI0Ljg2MTg4MiBDMC42NjI4NDQ5MTMsMTI1LjUzNDUxIC0xLjQyMTA4NTQ3ZS0xNCwxMjYuNzIzMjI5IC0xLjQyMTA4NTQ3ZS0xNCwxMjguMDA3MzM4IEMtMS40MjEwODU0N2UtMTQsMTI5LjI5MTQ0NyAwLjY2Mjg0NDkxMywxMzAuNDgwMTY1IDEuNzUxMjgwMjksMTMxLjE1MDM0OCBMMTIuNDk4NjYyNCwxMzcuODAzMjU2IEMxMi41ODY3MTU2LDEzOC44NTAxMTEgMTIuNjg5NDQ0MywxMzkuODk0NTIgMTIuODA0NDAyNywxNDAuOTM0MDM3IEwzLjU2NjE1NDU1LDE0OS41NTEwMiBDMi42MjkzNjYzNSwxNTAuNDI0MjE1IDIuMjExMTEzNjYsMTUxLjcyMDU1MyAyLjQ2MDU5NzcyLDE1Mi45NzUzMTEgQzIuNzEwMDgxNzksMTU0LjIzNDk2MSAzLjU5MzA1OTcsMTU1LjI2OTU4NiA0Ljc5MTU2MTU3LDE1NS43MTk2MzYgTDE2LjYwMDQ3MzksMTYwLjEzNDUyNiBDMTYuODkzOTg0NiwxNjEuMTU2OTIxIDE3LjIwNDYxNjcsMTYyLjE3MTk3OSAxNy41MjUwMzI1LDE2My4xODIxNDUgTDEwLjE2MDM2MDgsMTczLjQxMzQzNyBDOS40MTE5MDg1OCwxNzQuNDU1NCA5LjI1MjkyMzY0LDE3NS44MDc5OTUgOS43NDQ1NTQsMTc2Ljk4OTM3NiBDMTAuMjM2MTg0NCwxNzguMTc1NjQ4IDExLjMwNTA1MjQsMTc5LjAyMTkzNyAxMi41Njk1OTQxLDE3OS4yMjQ5NDggTDI1LjAxNjg5MjIsMTgxLjI1MDE3MiBDMjUuNTAzNjMwNywxODIuMTk0Mjk4IDI2LjAwMjU5ODgsMTgzLjEyMzc0OCAyNi41MTYyNDI1LDE4NC4wNTA3NTMgTDIxLjI4MTk2OSwxOTUuNTI5NDY2IEMyMC43NDg3NTc5LDE5Ni42OTYxNzEgMjAuODU4ODI0NCwxOTguMDUzNjU3IDIxLjU3MzAzMzcsMTk5LjEyMDA3OSBDMjIuMjg3MjQzLDIwMC4xODg5NDcgMjMuNTAyODY2MywyMDAuODEyNjU4IDI0Ljc3NzE5MTgsMjAwLjc2MTI5MyBMMzcuNDA3OTM0LDIwMC4zMTg1ODEgQzM4LjA2NTg4NywyMDEuMTQwNDExIDM4LjcyODczMTksMjAxLjk0NTEyIDM5LjQwMzgwNjUsMjAyLjc0NDkzNiBMMzYuNTA1Mzg4NywyMTUuMDU1MjYzIEMzNi4yMTE4NzgsMjE2LjMwMjY4MyAzNi41ODEyMTIzLDIxNy42MDYzNTkgMzcuNDkxMDk1MywyMTguNTEzNzk3IEMzOC4zOTM2NDA2LDIxOS40MjYxMjYgMzkuNzA3MTAwOCwyMTkuNzkwNTY4IDQwLjk1Njk2NzEsMjE5LjQ5NzA1NyBMNTMuMjYyNDAxNiwyMTYuNTk4NjM5IEM1NC4wNjIyMTgxLDIxNy4yNzg2MDYgNTQuODcxODE4NCwyMTcuOTM5MDA1IDU1LjY4ODc1NjQsMjE4LjU4OTYyIEw1NS4yNDg0OTA0LDIzMS4yMjc3IEM1NS4xOTk1NzIsMjMyLjUwNjkxNyA1NS44MjMyODIxLDIzMy43MjAwOTUgNTYuODg5NzA0MiwyMzQuNDM0MzA0IEM1Ny45NTEyMzQ0LDIzNS4xNDYwNjcgNTkuMzExMTY3MiwyMzUuMjUzNjg4IDYwLjQ3Nzg3MiwyMzQuNzIwNDc3IEw3MS45NTkwMzA4LDIyOS40ODg2NDkgQzcyLjg4MzU4OTQsMjMwLjAwMjI5MyA3My44MTMwMzk4LDIzMC41MDEyNjEgNzQuNzU0NzE5OSwyMzAuOTg4IEw3Ni43ODQ4MzUzLDI0My40MzI4NTIgQzc2Ljk5MDI5MjcsMjQ0LjY5OTgzOSA3Ny44MzY1ODE4LDI0NS43NzExNTMgNzkuMDIwNDA4MiwyNDYuMjU3ODkyIEM4MC4yMDE3ODg2LDI0Ni43NDk1MjIgODEuNTU5Mjc1NCwyNDYuNTkwNTM3IDgyLjU5ODc5MjMsMjQ1Ljg0NDUzMSBMOTIuODI3NjM4OSwyMzguNDc0OTY4IEM5My44Mzc4MDQ4LDIzOC43OTUzODMgOTQuODUyODYyNSwyMzkuMTA4NDYxIDk1Ljg3NTI1OCwyMzkuNDAxOTcyIEwxMDAuMjkwMTQ4LDI1MS4yMDU5OTMgQzEwMC43Mzc3NTEsMjUyLjQwNDQ5NCAxMDEuNzc0ODIyLDI1My4yOTIzNjQgMTAzLjAzNDQ3MiwyNTMuNTM2OTU2IEMxMDQuMjkxNjc2LDI1My43OTEzMzIgMTA1LjU4NTU2OSwyNTMuMzcwNjM0IDEwNi40NTg3NjMsMjUyLjQzMTQgTDExNS4wNzU3NDcsMjQzLjE5MzE1MSBDMTE2LjExNTI2NCwyNDMuMzEzMDAyIDExNy4xNjIxMTksMjQzLjQxMzI4NCAxMTguMjA4OTczLDI0My41MDYyMjkgTDEyNC44NjE4ODIsMjU0LjI1MzYxMiBDMTI1LjUzMjA2NSwyNTUuMzM3MTU1IDEyNi43MjMyMjksMjU2LjAwNDg5MiAxMjguMDA0ODkyLDI1Ni4wMDQ4OTIgQzEyOS4yODY1NTUsMjU2LjAwNDg5MiAxMzAuNDc3NzE5LDI1NS4zMzk2MDEgMTMxLjE1MDM0OCwyNTQuMjUzNjEyIEwxMzcuODAzMjU2LDI0My41MDYyMjkgQzEzOC44NTAxMTEsMjQzLjQxMzI4NCAxMzkuODk0NTIsMjQzLjMxMzAwMiAxNDAuOTM0MDM3LDI0My4xOTMxNTEgTDE0OS41NDg1NzQsMjUyLjQzMTQgQzE1MC40MjE3NjksMjUzLjM3MDYzNCAxNTEuNzE4MTA3LDI1My43OTEzMzIgMTUyLjk3Mjg2NiwyNTMuNTM2OTU2IEMxNTQuMjMyNTE1LDI1My4yODk5MTggMTU1LjI2OTU4NiwyNTIuNDA0NDk0IDE1NS43MTcxOSwyNTEuMjA1OTkzIEwxNjAuMTMyMDgsMjM5LjQwMTk3MiBDMTYxLjE1NDQ3NSwyMzkuMTA4NDYxIDE2Mi4xNjk1MzMsMjM4Ljc5NTM4MyAxNjMuMTc5Njk5LDIzOC40NzQ5NjggTDE3My40MTA5OTEsMjQ1Ljg0NDUzMSBDMTc0LjQ1MDUwOCwyNDYuNTkwNTM3IDE3NS44MDU1NDksMjQ2Ljc0OTUyMiAxNzYuOTg2OTMsMjQ2LjI1Nzg5MiBDMTc4LjE3MDc1NiwyNDUuNzcxMTUzIDE3OS4wMTcwNDUsMjQ0LjY5NzM5NCAxNzkuMjIyNTAyLDI0My40MzI4NTIgTDE4MS4yNTI2MTgsMjMwLjk4OCBDMTgyLjE5MTg1MiwyMzAuNTAxMjYxIDE4My4xMjEzMDIsMjI5Ljk5NDk1NSAxODQuMDQ4MzA3LDIyOS40ODg2NDkgTDE5NS41Mjk0NjYsMjM0LjcyMDQ3NyBDMTk2LjY5NjE3MSwyMzUuMjUzNjg4IDE5OC4wNTM2NTcsMjM1LjE0NjA2NyAxOTkuMTE3NjM0LDIzNC40MzQzMDQgQzIwMC4xODQwNTYsMjMzLjcyMDA5NSAyMDAuODA1MzIsMjMyLjUwOTM2MyAyMDAuNzU4ODQ3LDIzMS4yMjc3IEwyMDAuMzE4NTgxLDIxOC41ODk2MiBDMjAxLjEzNTUxOSwyMTcuOTM2NTU5IDIwMS45NDUxMiwyMTcuMjc4NjA2IDIwMi43NDI0OSwyMTYuNTk4NjM5IEwyMTUuMDQ3OTI1LDIxOS40OTcwNTcgQzIxNi4yOTc3OTEsMjE5Ljc5MDU2OCAyMTcuNjA4ODA1LDIxOS40MjYxMjYgMjE4LjUxMTM1MSwyMTguNTEzNzk3IEMyMTkuNDIxMjM0LDIxNy42MDYzNTkgMjE5Ljc5MDU2OCwyMTYuMzAyNjgzIDIxOS40OTcwNTcsMjE1LjA1NTI2MyBMMjE2LjU5ODYzOSwyMDIuNzQ0OTM2IEMyMTcuMjczNzE0LDIwMS45NDUxMiAyMTcuOTM5MDA1LDIwMS4xNDA0MTEgMjE4LjU4OTYyLDIwMC4zMTg1ODEgTDIzMS4yMjUyNTQsMjAwLjc2MTI5MyBDMjMyLjQ5OTU4LDIwMC44MTI2NTggMjMzLjcxNzY0OSwyMDAuMTg4OTQ3IDIzNC40Mjk0MTIsMTk5LjEyMDA3OSBDMjM1LjE0MzYyMSwxOTguMDUzNjU3IDIzNS4yNTM2ODgsMTk2LjY5NjE3MSAyMzQuNzE4MDMxLDE5NS41Mjk0NjYgTDIyOS40ODYyMDMsMTg0LjA1MDc1MyBDMjI5Ljk5NzQwMSwxODMuMTIzNzQ4IDIzMC40OTg4MTUsMTgyLjE5NDI5OCAyMzAuOTgzMTA4LDE4MS4yNTAxNzIgTDI0My40MzI4NTIsMTc5LjIyNDk0OCBDMjQ0LjY5OTgzOSwxNzkuMDIxOTM3IDI0NS43NjYyNjIsMTc4LjE3NTY0OCAyNDYuMjU1NDQ2LDE3Ni45ODkzNzYgQzI0Ni43NDQ2MywxNzUuODA3OTk1IDI0Ni41OTA1MzcsMTc0LjQ1NTQgMjQ1LjgzOTYzOSwxNzMuNDEzNDM3IEwyMzguNDc0OTY4LDE2My4xODIxNDUgQzIzOC43OTI5MzcsMTYyLjE3MTk3OSAyMzkuMTAzNTcsMTYxLjE1NjkyMSAyMzkuMzk5NTI2LDE2MC4xMzQ1MjYgTDI1MS4yMDU5OTMsMTU1LjcxOTYzNiBDMjUyLjQwNjk0LDE1NS4yNjk1ODYgMjUzLjI5MjM2NCwxNTQuMjM0OTYxIDI1My41MzY5NTYsMTUyLjk3NTMxMSBDMjUzLjc5MTMzMiwxNTEuNzE4MTA3IDI1My4zNzA2MzQsMTUwLjQyNDIxNSAyNTIuNDMxNCwxNDkuNTUxMDIgTDI0My4xOTU1OTcsMTQwLjkzNDAzNyBDMjQzLjMwODExLDEzOS44OTQ1MiAyNDMuNDEwODM4LDEzOC44NDc2NjUgMjQzLjUwMTMzOCwxMzcuODAzMjU2IEwyNTQuMjQ4NzIsMTMxLjE1MDM0OCBDMjU1LjMzNzE1NSwxMzAuNDgwMTY1IDI1NiwxMjkuMjg5MDAxIDI1NiwxMjguMDA3MzM4IEMyNTYsMTI2LjcyNTY3NSAyNTUuMzM5NjAxLDEyNS41MzQ1MSAyNTQuMjUxMTY2LDEyNC44NjE4ODIgTDI1NC4yNTExNjYsMTI0Ljg2MTg4MiBaIE0xODIuMzE5MDQsMjE0LjAxODE5MiBDMTc4LjIxNDc4MywyMTMuMTMyNzY4IDE3NS42MDQ5ODQsMjA5LjA4NzIxMiAxNzYuNDg1NTE2LDIwNC45NzA3MjUgQzE3Ny4zNjM2MDIsMjAwLjg1OTEzIDE4MS40MDY3MTEsMTk4LjI0MTk5MyAxODUuNTA4NTIzLDE5OS4xMjc0MTcgQzE4OS42MTI3OCwyMDAuMDA1NTAzIDE5Mi4yMjc0NzEsMjA0LjA1ODM5NiAxOTEuMzQ2OTM5LDIwOC4xNjc1NDYgQzE5MC40NjY0MDcsMjEyLjI3NjY5NSAxODYuNDIwODUxLDIxNC44OTYyNzggMTgyLjMxOTA0LDIxNC4wMTgxOTIgTDE4Mi4zMTkwNCwyMTQuMDE4MTkyIFogTTE3OC42NjcyNzgsMTg5LjMxOTI2OSBDMTc0LjkyMjU3MSwxODguNTE3MDA3IDE3MS4yMzkwMTIsMTkwLjg5OTMzNSAxNzAuNDM2NzUsMTk0LjY1MTM4IEwxNjYuNjIxMTExLDIxMi40NTc2OTMgQzE1NC44NDY0NDIsMjE3LjgwMjAzMyAxNDEuNzcwNTQyLDIyMC43NzEzODMgMTI4LDIyMC43NzEzODMgQzExMy45MTM5MzQsMjIwLjc3MTM4MyAxMDAuNTU0MzA3LDIxNy42NTUyNzggODguNTY5Mjg4NCwyMTIuMDgzNDY3IEw4NC43NTYwOTU3LDE5NC4yNzcxNTQgQzgzLjk1MzgzMzIsMTkwLjUzMDAwMSA4MC4yNzAyNzQ0LDE4OC4xNDI3ODEgNzYuNTI4MDEzNSwxODguOTQ3NDg5IEw2MC44MDgwNzE1LDE5Mi4zMjI4NjIgQzU3Ljg5MDA4NjQsMTg5LjMxOTI2OSA1NS4xNzUxMTI3LDE4Ni4xMjAwMDMgNTIuNjgwMjcyMSwxODIuNzQyMTg1IEwxMjkuMTY5MTUxLDE4Mi43NDIxODUgQzEzMC4wMzUwMDcsMTgyLjc0MjE4NSAxMzAuNjEyMjQ1LDE4Mi41ODU2NDUgMTMwLjYxMjI0NSwxODEuNzk4MDU5IEwxMzAuNjEyMjQ1LDE1NC43NDEyNjcgQzEzMC42MTIyNDUsMTUzLjk1MzY4IDEzMC4wMzUwMDcsMTUzLjc5NzE0MSAxMjkuMTY5MTUxLDE1My43OTcxNDEgTDEwNi43OTg3NDYsMTUzLjc5NzE0MSBMMTA2Ljc5ODc0NiwxMzYuNjQ2MzM1IEwxMzAuOTkzODA5LDEzNi42NDYzMzUgQzEzMy4yMDI0NzYsMTM2LjY0NjMzNSAxNDIuODAyNzIxLDEzNy4yNzczODMgMTQ1Ljg3MjM1MywxNDkuNTQ4NTc0IEMxNDYuODMzNjAxLDE1My4zMjI2MzIgMTQ4Ljk0NDQzMiwxNjUuNTk4NzE2IDE1MC4zODc1MjYsMTY5LjUyOTMxMyBDMTUxLjgyNTcyOCwxNzMuOTM2ODY1IDE1Ny42ODEyNjYsMTgyLjc0MjE4NSAxNjMuOTIwODEzLDE4Mi43NDIxODUgTDIwMi4wMzU2MTksMTgyLjc0MjE4NSBDMjAyLjQ2ODU0NywxODIuNzQyMTg1IDIwMi45MzA4MjYsMTgyLjY5MzI2NiAyMDMuNDE3NTY1LDE4Mi42MDUyMTMgQzIwMC43NzM1MjMsMTg2LjE5ODI3MyAxOTcuODcyNjU5LDE4OS41OTgxMDQgMTk0Ljc0OTIxNywxOTIuNzc1MzU3IEwxNzguNjY3Mjc4LDE4OS4zMTkyNjkgTDE3OC42NjcyNzgsMTg5LjMxOTI2OSBaIE03Mi44NzYyNTE2LDIxMy42NDY0MTEgQzY4Ljc3MTk5NDIsMjE0LjUzMTgzNSA2NC43MzEzMzA3LDIxMS45MTQ2OTggNjMuODQ4MzUyOCwyMDcuODAzMTAzIEM2Mi45NzAyNjY4LDIwMy42ODQxNyA2NS41ODAwNjU3LDE5OS42NDEwNjEgNjkuNjg0MzIzMiwxOTguNzU1NjM3IEM3My43ODg1ODA2LDE5Ny44Nzc1NTEgNzcuODMxNjksMjAwLjQ5NDY4OCA3OC43MTIyMjIsMjA0LjYwNjI4MyBDNzkuNTkwMzA4LDIwOC43MTU0MzIgNzYuOTc4MDYzMSwyMTIuNzY1ODc5IDcyLjg3NjI1MTYsMjEzLjY0NjQxMSBMNzIuODc2MjUxNiwyMTMuNjQ2NDExIFogTTQzLjg2MDI3NjcsOTUuOTg1MzI0NSBDNDUuNTYyNjM4NSw5OS44Mjc4NjgyIDQzLjgzMDkyNTYsMTA0LjMzMDgxMSAzOS45OTMyNzM3LDEwNi4wMzA3MjcgQzM2LjE1NTYyMTgsMTA3LjczNTUzNSAzMS42NjQ5MDg3LDEwNi4wMDEzNzYgMjkuOTYyNTQ2OCwxMDIuMTU2Mzg2IEMyOC4yNjAxODUsOTguMzExMzk2NSAyOS45OTE4OTc5LDkzLjgxNTc5MTUgMzMuODI5NTQ5OCw5Mi4xMTA5ODM3IEMzNy42Njk2NDc2LDkwLjQwODYyMTkgNDIuMTU3OTE0OSw5Mi4xNDAzMzQ4IDQzLjg2MDI3NjcsOTUuOTg1MzI0NSBMNDMuODYwMjc2Nyw5NS45ODUzMjQ1IFogTTM0Ljk0MjQ0NDQsMTE3LjEyNTQzIEw1MS4zMTc4OTM0LDEwOS44NDg4MTEgQzU0LjgxNTU2MjIsMTA4LjI5NTY1MSA1Ni4zOTU2Mjc5LDEwNC4xOTYyODUgNTQuODQyNDY3MywxMDAuNjkxMjc5IEw1MS40Njk1NDA2LDkzLjA2NDg5MzQgTDY0LjczMzc3NjcsOTMuMDY0ODkzNCBMNjQuNzMzNzc2NywxNTIuODUzMDE1IEwzNy45NzI5NDIsMTUyLjg1MzAxNSBDMzUuNjUxNzYxOCwxNDQuNjkzNDE5IDM0LjQwNjc4NzQsMTM2LjA4MTMyNyAzNC40MDY3ODc0LDEyNy4xODA2MTYgQzM0LjQwNjc4NzQsMTIzLjc4MzIzIDM0LjU5MDIzMTYsMTIwLjQyNDk3OSAzNC45NDI0NDQ0LDExNy4xMjU0MyBMMzQuOTQyNDQ0NCwxMTcuMTI1NDMgWiBNMTA2LjgwMzYzOCwxMTEuMzE4ODExIEwxMDYuODAzNjM4LDkzLjY5NTk0MTMgTDEzOC4zOTAyNzcsOTMuNjk1OTQxMyBDMTQwLjAyMTcwOCw5My42OTU5NDEzIDE0OS45MTA1NzEsOTUuNTgxNzQ3MyAxNDkuOTEwNTcxLDEwMi45NzU3NyBDMTQ5LjkxMDU3MSwxMDkuMTE1MDM1IDE0Mi4zMjU3NjYsMTExLjMxNjM2NSAxMzYuMDg4NjY1LDExMS4zMTYzNjUgTDEwNi44MDM2MzgsMTExLjMxNjM2NSBMMTA2LjgwMzYzOCwxMTEuMzE4ODExIFogTTIyMS41OTU2NTgsMTI3LjE4MDYxNiBDMjIxLjU5NTY1OCwxMjkuNTE4OTE4IDIyMS41MTAwNTEsMTMxLjgzMjc2IDIyMS4zMzg4MzcsMTM0LjEyOTQ4MSBMMjExLjczNjE0NiwxMzQuMTI5NDgxIEMyMTAuNzc0ODk5LDEzNC4xMjk0ODEgMjEwLjM4ODQ0MywxMzQuNzYwNTI5IDIxMC4zODg0NDMsMTM1LjcwMjIwOSBMMjEwLjM4ODQ0MywxNDAuMTEyMjA3IEMyMTAuMzg4NDQzLDE1MC40OTI3IDIwNC41MzUzNTEsMTUyLjc1MDI4NyAxOTkuNDA2MjUyLDE1My4zMjUwNzggQzE5NC41MjE3NDYsMTUzLjg3NTQxMSAxODkuMTA2NDc0LDE1MS4yODAyODcgMTg4LjQzODczNywxNDguMjkxMzcgQzE4NS41NTc0NDEsMTMyLjA4NDY5IDE4MC43NTYwOTYsMTI4LjYyMzcxIDE3My4xNzM3MzcsMTIyLjY0MzQzIEMxODIuNTgzMiwxMTYuNjY4MDQyIDE5Mi4zNzQyMjYsMTA3Ljg1MjkzOSAxOTIuMzc0MjI2LDk2LjA1MzgxMDMgQzE5Mi4zNzQyMjYsODMuMzEzMDAxNiAxODMuNjM5ODM4LDc1LjI4NzkzMDkgMTc3LjY4NjQ2Myw3MS4zNTI0NDIxIEMxNjkuMzMzNjM5LDY1Ljg0NjY3MTMgMTYwLjA4NTYwNyw2NC43NDM1NjAzIDE1Ny41OTA3NjcsNjQuNzQzNTYwMyBMNTguMjc4OTg4LDY0Ljc0MzU2MDMgQzcxLjc0NjIzNTYsNDkuNzEzMzY4NSA4OS45OTc3MDY5LDM5LjA2NjI2OTIgMTEwLjY0MTI5LDM1LjE5MTkyODUgTDEyMi4zNDc0NzQsNDcuNDcyOTAzOCBDMTI0Ljk5Mzk2Miw1MC4yNDQxMzM2IDEyOS4zNzcwNTQsNTAuMzQ2ODYyMyAxMzIuMTQ1ODM4LDQ3LjY5NzkyODYgTDE0NS4yNDM3NTEsMzUuMTY5OTE1MiBDMTcyLjY4OTQ0NCw0MC4yNzk0NDY2IDE5NS45MjU3MDUsNTcuMzY0MjEzMSAyMDkuMzE3MTI5LDgwLjgwMzQ4NTQgTDIwMC4zNTAzNzgsMTAxLjA1NTcyMSBDMTk4LjgwMjExLDEwNC41NjA3MjggMjAwLjM4MjE3NSwxMDguNjYwMDkzIDIwMy44NzczOTgsMTEwLjIxMzI1NCBMMjIxLjE0MDcxNywxMTcuODgxMjIgQzIyMS40MzkxMTksMTIwLjk0NTk2IDIyMS41OTU2NTgsMTI0LjA0MjQ5OCAyMjEuNTk1NjU4LDEyNy4xODA2MTYgTDIyMS41OTU2NTgsMTI3LjE4MDYxNiBaIE0xMjIuMzUyMzY2LDI0Ljc0NTM5NDggQzEyNS4zODUzMDksMjEuODM5NjM5MiAxMzAuMTk2NDM4LDIxLjk1NDU5NzYgMTMzLjA5OTc0OCwyNC45OTI0MzI5IEMxMzUuOTk4MTY2LDI4LjAzNzYwNjEgMTM1Ljg4ODA5OSwzMi44NTM2MjY4IDEzMi44NDc4MTgsMzUuNzU2OTM2NSBDMTI5LjgxNDg3NCwzOC42NjI2OTIgMTI1LjAwMzc0NSwzOC41NTAxNzk2IDEyMi4xMDA0MzYsMzUuNTA3NDUyNCBDMTE5LjIwNDQ2NCwzMi40NjcxNzExIDExOS4zMTQ1MywyNy42NTExNTAzIDEyMi4zNTIzNjYsMjQuNzQ1Mzk0OCBMMTIyLjM1MjM2NiwyNC43NDUzOTQ4IFogTTIxMS4zMzUwMTUsOTYuMzU0NjU4NyBDMjEzLjAzNDkzMSw5Mi41MTIxMTUgMjE3LjUyNTY0NCw5MC43Nzc5NTYxIDIyMS4zNjMyOTYsOTIuNDgyNzYzOSBDMjI1LjIwMDk0OCw5NC4xODUxMjU3IDIyNi45MzI2NjEsOTguNjg1NjIyNiAyMjUuMjMwMjk5LDEwMi41MjgxNjYgQzIyMy41MzAzODMsMTA2LjM3MzE1NiAyMTkuMDM5NjcsMTA4LjEwNzMxNSAyMTUuMTk5NTcyLDEwNi40MDI1MDcgQzIxMS4zNjY4MTIsMTA0LjcwMDE0NSAyMDkuNjM1MDk5LDEwMC4yMDIwOTQgMjExLjMzNTAxNSw5Ni4zNTQ2NTg3IEwyMTEuMzM1MDE1LDk2LjM1NDY1ODcgWiIvPiYjeGE7ICAgIDwvZz4mI3hhOzwvc3ZnPg==;" parent="1" vertex="1">
          <mxGeometry x="587" y="153.13" width="60" height="60" as="geometry" />
        </mxCell>
        <mxCell id="SAYPR_8h2VooXGS9I6N6-10" value="" style="shape=image;verticalLabelPosition=bottom;labelBackgroundColor=default;verticalAlign=top;aspect=fixed;imageAspect=0;image=data:image/svg+xml,PHN2ZyB4bWxuczp4bGluaz0iaHR0cDovL3d3dy53My5vcmcvMTk5OS94bGluayIgeG1sbnM9Imh0dHA6Ly93d3cudzMub3JnLzIwMDAvc3ZnIiBwcmVzZXJ2ZUFzcGVjdFJhdGlvPSJ4TWlkWU1pZCIgdmVyc2lvbj0iMS4xIiB2aWV3Qm94PSIwIDAgMjU2LjEwMDAzNjYyMTA5Mzc1IDI1NiIgaGVpZ2h0PSIyNTYiIHdpZHRoPSIyNTYuMTAwMDM2NjIxMDkzNzUiPiYjeGE7ICAgIDxsaW5lYXJHcmFkaWVudCBncmFkaWVudFRyYW5zZm9ybT0ibWF0cml4KC0xIDAgMCAtMSAtMTY5My4yMTA3IDEyNDYuNTA0NCkiIHkyPSI5ODEuMzM3OSIgeDI9Ii0xNzk3LjEzMzkiIHkxPSIxMjU1LjYzOTIiIHgxPSItMTg0NS41MDA3IiBncmFkaWVudFVuaXRzPSJ1c2VyU3BhY2VPblVzZSIgaWQ9IlNWR0lEXzFfIj4mI3hhOyAgICAgICAgPHN0b3Agc3R5bGU9InN0b3AtY29sb3I6I0ZBQUU0MiIgb2Zmc2V0PSIwIi8+JiN4YTsgICAgICAgIDxzdG9wIHN0eWxlPSJzdG9wLWNvbG9yOiNFRjNFMzEiIG9mZnNldD0iMSIvPiYjeGE7ICAgIDwvbGluZWFyR3JhZGllbnQ+JiN4YTsgICAgPHBhdGggZD0iTTU2LjksMGMxLjUsMCwxMzkuMywwLDE0MS44LDBjNi45LDAsMTMuNiwxLjEsMjAuMSwzLjRjOS40LDMuNCwxNy45LDkuNCwyNC4zLDE3LjJjNi41LDcuOCwxMC44LDE3LjQsMTIuMywyNy40YzAuNiwzLjcsMC43LDcuNCwwLjcsMTEuMWMwLDMuNCwwLDEyMy4yLDAsMTI4LjZjMCwzLjIsMCw2LjUsMCw5LjdjMCw0LjQtMC4yLDguOS0xLjEsMTMuMmMtMiw5LjktNi43LDE5LjItMTMuNSwyNi43Yy02LjcsNy41LTE1LjUsMTMuMS0yNSwxNi4xYy01LjgsMS44LTExLjgsMi42LTE3LjksMi42Yy0yLjcsMC0xNDIuMSwwLTE0NC4yLTAuMWMtMTAuMi0wLjUtMjAuMy0zLjgtMjguOC05LjVjLTguMy01LjYtMTUuMS0xMy40LTE5LjUtMjIuNGMtMy44LTcuNy01LjctMTYuMy01LjctMjQuOWMwLTIsMC0xNDAuMiwwLTE0Mi4yQzAuMiw0OC40LDIsNDAsNS43LDMyLjRjNC4zLTksMTEtMTYuOSwxOS4zLTIyLjVjOC41LTUuOCwxOC41LTkuMiwyOC43LTkuN0M1NC43LDAsNTUuOCwwLDU2LjksMHoiIGZpbGw9InVybCgjU1ZHSURfMV8pIi8+JiN4YTsgICAgPGxpbmVhckdyYWRpZW50IHkyPSIyMDQuODkyNyIgeDI9Ijk1LjIxMyIgeTE9IjQuMTM2MyIgeDE9IjEzMC42MTE3IiBncmFkaWVudFVuaXRzPSJ1c2VyU3BhY2VPblVzZSIgaWQ9IlNWR0lEXzJfIj4mI3hhOyAgICAgICAgPHN0b3Agc3R5bGU9InN0b3AtY29sb3I6I0UzOUYzQSIgb2Zmc2V0PSIwIi8+JiN4YTsgICAgICAgIDxzdG9wIHN0eWxlPSJzdG9wLWNvbG9yOiNEMzM5MjkiIG9mZnNldD0iMSIvPiYjeGE7ICAgIDwvbGluZWFyR3JhZGllbnQ+JiN4YTsgICAgPHBhdGggZD0iTTIxNiwyMDkuNGMtMC45LTEuNC0xLjktMi44LTMtNC4xYy0yLjUtMy01LjQtNS42LTguNi03LjhjLTQtMi43LTguNy00LjQtMTMuNS00LjZjLTMuNC0wLjItNi44LDAuNC0xMCwxLjZjLTMuMiwxLjEtNi4zLDIuNy05LjMsNC4zYy0zLjUsMS44LTcsMy42LTEwLjcsNS4xYy00LjQsMS44LTksMy4yLTEzLjcsNC4yYy01LjksMS4xLTExLjksMS41LTE3LjgsMS40Yy0xMC43LTAuMi0yMS40LTEuOC0zMS42LTQuOGMtOS0yLjctMTcuNi02LjQtMjUuNy0xMS4xYy03LjEtNC4xLTEzLjctOC44LTE5LjktMTQuMWMtNS4xLTQuNC05LjgtOS4xLTE0LjItMTQuMWMtMy0zLjUtNS45LTcuMi04LjYtMTFjLTEuMS0xLjUtMi4xLTMuMS0zLTQuN2MwLDAsMCwwLDAsMGMwLDAsMCwwLDAsMEwwLDEyMS4yVjU2LjdDMCwyNS40LDI1LjMsMCw1Ni42LDBoNTAuNWwzNy40LDM4YzAsMCwwLDAsMCwwYzg0LjQsNTcuNCw1Ny4xLDEyMC43LDU3LjEsMTIwLjdTMjI1LjYsMTg1LjcsMjE2LDIwOS40eiIgZmlsbD0idXJsKCNTVkdJRF8yXykiLz4mI3hhOyAgICA8cGF0aCBkPSJNMTQ0LjcsMzhjODQuNCw1Ny40LDU3LjEsMTIwLjcsNTcuMSwxMjAuN3MyNCwyNy4xLDE0LjMsNTAuOGMwLDAtOS45LTE2LjYtMjYuNS0xNi42Yy0xNiwwLTI1LjQsMTYuNi01Ny42LDE2LjZjLTcxLjcsMC0xMDUuNi01OS45LTEwNS42LTU5LjlDOTEsMTkyLjEsMTM1LjEsMTYyLDEzNS4xLDE2MmMtMjkuMS0xNi45LTkxLTk3LjctOTEtOTcuN2M1My45LDQ1LjksNzcuMiw1OCw3Ny4yLDU4Yy0xMy45LTExLjUtNTIuOS02Ny43LTUyLjktNjcuN2MzMS4yLDMxLjYsOTMuMiw3NS43LDkzLjIsNzUuN0MxNzkuMiw4MS41LDE0NC43LDM4LDE0NC43LDM4eiIgZmlsbD0iI0ZGRkZGRiIvPiYjeGE7PC9zdmc+;" parent="1" vertex="1">
          <mxGeometry x="654" y="153.13" width="60" height="60" as="geometry" />
        </mxCell>
        <mxCell id="SAYPR_8h2VooXGS9I6N6-11" value="" style="shape=image;verticalLabelPosition=bottom;labelBackgroundColor=default;verticalAlign=top;aspect=fixed;imageAspect=0;image=data:image/svg+xml,PHN2ZyB4bWxuczp4bGluaz0iaHR0cDovL3d3dy53My5vcmcvMTk5OS94bGluayIgeG1sbnM9Imh0dHA6Ly93d3cudzMub3JnLzIwMDAvc3ZnIiBwcmVzZXJ2ZUFzcGVjdFJhdGlvPSJ4TWlkWU1pZCIgdmVyc2lvbj0iMS4xIiB2aWV3Qm94PSIwIDAgMjU2IDI1NiIgaGVpZ2h0PSIyNTYiIHdpZHRoPSIyNTYiPiYjeGE7CTxnPiYjeGE7CQk8cG9seWdvbiBwb2ludHM9IjAgMTI4IDAgMCAxMjggMCAyNTYgMCAyNTYgMTI4IDI1NiAyNTYgMTI4IDI1NiAwIDI1NiIgdHJhbnNmb3JtPSJ0cmFuc2xhdGUoMTI4LjAwMDAwMCwgMTI4LjAwMDAwMCkgc2NhbGUoMSwgLTEpIHRyYW5zbGF0ZSgtMTI4LjAwMDAwMCwgLTEyOC4wMDAwMDApIiBmaWxsPSIjMDA3QUNDIi8+JiN4YTsJCTxwYXRoIHRyYW5zZm9ybT0idHJhbnNsYXRlKDEwMS42MzQ2NDAsIDE3Ni4xNDI5OTMpIHJvdGF0ZSgtMTgwLjAwMDAwMCkgdHJhbnNsYXRlKC0xMDEuNjM0NjQwLCAtMTc2LjE0Mjk5MykiIGZpbGw9IiNGRkZGRkYiIGQ9Ik0xNDYuNjU4MTMyLDIyMy40MzY4NjMgTDE0Ni43Mzk0MDEsMjEyLjk1MzA1NCBMMTMwLjA3OTA4NCwyMTIuOTUzMDU0IEwxMTMuNDE4NzY3LDIxMi45NTMwNTQgTDExMy40MTg3NjcsMTY1LjYxMzM3MSBMMTEzLjQxODc2NywxMTguMjczNjg5IEwxMDEuNjM0NjQsMTE4LjI3MzY4OSBMODkuODUwNTEyNiwxMTguMjczNjg5IEw4OS44NTA1MTI2LDE2NS42MTMzNzEgTDg5Ljg1MDUxMjYsMjEyLjk1MzA1NCBMNzMuMTkwMTk1MSwyMTIuOTUzMDU0IEw1Ni41Mjk4Nzc2LDIxMi45NTMwNTQgTDU2LjUyOTg3NzYsMjIzLjIzMzY4OSBDNTYuNTI5ODc3NiwyMjguOTIyNTc3IDU2LjY1MTc4MjQsMjMzLjY3Njg2MyA1Ni44MTQzMjIxLDIzMy43OTg3NjggQzU2LjkzNjIyNjksMjMzLjk2MTMwOCA3Ny4yMTMwNTIyLDIzNC4wNDI1NzcgMTAxLjc5NzE3OSwyMzQuMDAxOTQzIEwxNDYuNTM2MjI3LDIzMy44ODAwMzggTDE0Ni42NTgxMzIsMjIzLjQzNjg2MyBaIi8+JiN4YTsJCTxwYXRoIHRyYW5zZm9ybT0idHJhbnNsYXRlKDE5NC41Nzg1MDcsIDE3Ni4xOTAyNDApIHNjYWxlKDEsIC0xKSB0cmFuc2xhdGUoLTE5NC41Nzg1MDcsIC0xNzYuMTkwMjQwKSIgZmlsbD0iI0ZGRkZGRiIgZD0iTTIwNi41NjY2MzEsMjM0LjI3MjE0NSBDMjEzLjA2ODIxOSwyMzIuNjQ2NzQ4IDIxOC4wMjU2NzksMjI5Ljc2MTY2OCAyMjIuNTc2NzksMjI1LjA0ODAxOCBDMjI0LjkzMzYxNiwyMjIuNTI4NjUzIDIyOC40MjgyMTksMjE3LjkzNjkwNyAyMjguNzEyNjYzLDIxNi44Mzk3NjQgQzIyOC43OTM5MzMsMjE2LjUxNDY4NCAyMTcuNjU5OTY1LDIwOS4wMzc4NTkgMjEwLjkxNDU2OCwyMDQuODUyNDYyIEMyMTAuNjcwNzU4LDIwNC42ODk5MjIgMjA5LjY5NTUyLDIwNS43NDY0MyAyMDguNTk4Mzc3LDIwNy4zNzE4MjcgQzIwNS4zMDY5NDksMjEyLjE2Njc0OCAyMDEuODUyOTgxLDIxNC4yMzkxMjkgMTk2LjU3MDQ0MSwyMTQuNjA0ODQzIEMxODguODA5MTcxLDIxNS4xMzMwOTcgMTgzLjgxMTA3NiwyMTEuMDY5NjA1IDE4My44NTE3MTEsMjA0LjI4MzU3MyBDMTgzLjg1MTcxMSwyMDIuMjkyNDYyIDE4NC4xMzYxNTUsMjAxLjExNDA0OSAxODQuOTQ4ODU0LDE5OS40ODg2NTMgQzE4Ni42NTU1MiwxOTUuOTUzNDE0IDE4OS44MjUwNDQsMTkzLjg0MDM5OSAxOTkuNzgwNiwxODkuNTMzMDk3IEMyMTguMTA2OTQ5LDE4MS42NDk5MjIgMjI1Ljk0OTQ4OSwxNzYuNDQ4NjUzIDIzMC44MjU2NzksMTY5LjA1MzA5NyBDMjM2LjI3MDc1OCwxNjAuODA0MjA4IDIzNy40ODk4MDYsMTQ3LjYzODQ5NCAyMzMuNzkyMDI4LDEzNy44NDU0NzggQzIyOS43Mjg1MzYsMTI3LjE5OTEyOSAyMTkuNjUxMDc2LDExOS45NjYxMTMgMjA1LjQ2OTQ4OSwxMTcuNTY4NjUzIEMyMDEuMDgwOTE3LDExNi43OTY1ODkgMTkwLjY3ODM3NywxMTYuOTE4NDk0IDE4NS45NjQ3MjcsMTE3Ljc3MTgyNyBDMTc1LjY4NDA5MiwxMTkuNjAwMzk5IDE2NS45MzE3MTEsMTI0LjY3OTc2NCAxNTkuOTE3NzQzLDEzMS4zNDM4OTEgQzE1Ny41NjA5MTcsMTMzLjk0NDUyNiAxNTIuOTY5MTcxLDE0MC43MzA1NTcgMTUzLjI1MzYxNiwxNDEuMjE4MTc2IEMxNTMuMzc1NTIsMTQxLjM4MDcxNiAxNTQuNDMyMDI4LDE0Mi4wMzA4NzUgMTU1LjYxMDQ0MSwxNDIuNzIxNjY4IEMxNTYuNzQ4MjE5LDE0My4zNzE4MjcgMTYxLjA1NTUyLDE0NS44NTA1NTcgMTY1LjExOTAxMiwxNDguMjA3MzgzIEwxNzIuNDczOTMzLDE1Mi40NzQwNDkgTDE3NC4wMTgwNiwxNTAuMTk4NDk0IEMxNzYuMTcxNzExLDE0Ni45MDcwNjUgMTgwLjg4NTM2MiwxNDIuMzk2NTg5IDE4My43Mjk4MDYsMTQwLjg5MzA5NyBDMTkxLjg5NzQyNSwxMzYuNTg1Nzk1IDIwMy4xMTI2NjMsMTM3LjE5NTMxOSAyMDguNjM5MDEyLDE0Mi4xNTI3OCBDMjEwLjk5NTgzOCwxNDQuMzA2NDMgMjExLjk3MTA3NiwxNDYuNTQxMzUxIDIxMS45NzEwNzYsMTQ5LjgzMjc4IEMyMTEuOTcxMDc2LDE1Mi43OTkxMjkgMjExLjYwNTM2MiwxNTQuMDk5NDQ2IDIxMC4wNjEyMzUsMTU2LjMzNDM2NyBDMjA4LjA3MDEyMywxNTkuMTc4ODExIDIwNC4wMDY2MzEsMTYxLjU3NjI3MiAxOTIuNDY2MzE0LDE2Ni41NzQzNjcgQzE3OS4yNTk5NjUsMTcyLjI2MzI1NiAxNzMuNTcxMDc2LDE3NS43OTg0OTQgMTY4LjM2OTgwNiwxODEuNDA2MTEzIEMxNjUuMzYyODIyLDE4NC42NTY5MDcgMTYyLjUxODM3NywxODkuODU4MTc2IDE2MS4zMzk5NjUsMTk0LjIwNjExMyBDMTYwLjM2NDcyNywxOTcuODIyNjIxIDE2MC4xMjA5MTcsMjA2Ljg4NDIwOCAxNjAuODkyOTgxLDIxMC41NDEzNTEgQzE2My42MTU1MiwyMjMuMzAwNzE2IDE3My4yNDU5OTYsMjMyLjE5OTc2NCAxODcuMTQzMTM5LDIzNC44NDEwMzQgQzE5MS42NTM2MTYsMjM1LjY5NDM2NyAyMDIuMTM3NDI1LDIzNS4zNjkyODcgMjA2LjU2NjYzMSwyMzQuMjcyMTQ1IFoiLz4mI3hhOwk8L2c+JiN4YTs8L3N2Zz4=;" parent="1" vertex="1">
          <mxGeometry x="720" y="153.13" width="60" height="60" as="geometry" />
        </mxCell>
        <mxCell id="e4Tr5Wjy2GleVXx7RCsq-3" value="" style="shape=image;verticalLabelPosition=bottom;labelBackgroundColor=default;verticalAlign=top;aspect=fixed;imageAspect=0;image=data:image/svg+xml,PHN2ZyB4bWxuczp4bGluaz0iaHR0cDovL3d3dy53My5vcmcvMTk5OS94bGluayIgeG1sbnM9Imh0dHA6Ly93d3cudzMub3JnLzIwMDAvc3ZnIiBwcmVzZXJ2ZUFzcGVjdFJhdGlvPSJ4TWlkWU1pZCIgdmVyc2lvbj0iMS4xIiB2aWV3Qm94PSIxMC4wNDM3MTA3MDg2MTgxNjQgMC44MzE3NTgzMjAzMzE1NzM1IDIzNS4wODE3MTA4MTU0Mjk3IDI4MC4wMjQxMzk0MDQyOTY5IiBoZWlnaHQ9IjI4MC4wMjQxMzk0MDQyOTY5IiB3aWR0aD0iMjM1LjA4MTcxMDgxNTQyOTciPiYjeGE7ICAgIDxkZWZzPiYjeGE7ICAgICAgICA8ZmlsdGVyIGlkPSJmaWx0ZXItMSIgZmlsdGVyVW5pdHM9Im9iamVjdEJvdW5kaW5nQm94IiBoZWlnaHQ9IjIwMCUiIHdpZHRoPSIyMDAlIiB5PSItNTAlIiB4PSItNTAlIj4mI3hhOyAgICAgICAgICAgIDxmZU9mZnNldCByZXN1bHQ9InNoYWRvd09mZnNldE91dGVyMSIgaW49IlNvdXJjZUFscGhhIiBkeT0iMCIgZHg9IjAiLz4mI3hhOyAgICAgICAgICAgIDxmZUdhdXNzaWFuQmx1ciByZXN1bHQ9InNoYWRvd0JsdXJPdXRlcjEiIGluPSJzaGFkb3dPZmZzZXRPdXRlcjEiIHN0ZERldmlhdGlvbj0iNi41Ii8+JiN4YTsgICAgICAgIDwvZmlsdGVyPiYjeGE7ICAgICAgICA8bGluZWFyR3JhZGllbnQgaWQ9ImxpbmVhckdyYWRpZW50LTIiIHkyPSI0MS4zNjM3MjM3JSIgeDI9IjUxLjA0NzM4MDQlIiB5MT0iMTE1LjI3NjE3NCUiIHgxPSI0OC41NDc3NDEyJSI+JiN4YTsgICAgICAgICAgICA8c3RvcCBvZmZzZXQ9IjAlIiBzdG9wLWNvbG9yPSIjRkZFRUQ3Ii8+JiN4YTsgICAgICAgICAgICA8c3RvcCBvZmZzZXQ9IjEwMCUiIHN0b3AtY29sb3I9IiNCREJGQzIiLz4mI3hhOyAgICAgICAgPC9saW5lYXJHcmFkaWVudD4mI3hhOyAgICAgICAgPGxpbmVhckdyYWRpZW50IGlkPSJsaW5lYXJHcmFkaWVudC0zIiB5Mj0iOTAuNTQyMjM0OSUiIHgyPSI0Ni4xNzUzOTU3JSIgeTE9IjIuNDA0MTA1NDUlIiB4MT0iNTQuNDA2NTQ2MyUiPiYjeGE7ICAgICAgICAgICAgPHN0b3Agb2Zmc2V0PSIwJSIgc3RvcC1vcGFjaXR5PSIwLjgiIHN0b3AtY29sb3I9IiNGRkZGRkYiLz4mI3hhOyAgICAgICAgICAgIDxzdG9wIG9mZnNldD0iMTAwJSIgc3RvcC1vcGFjaXR5PSIwIiBzdG9wLWNvbG9yPSIjRkZGRkZGIi8+JiN4YTsgICAgICAgIDwvbGluZWFyR3JhZGllbnQ+JiN4YTsgICAgICAgIDxsaW5lYXJHcmFkaWVudCBpZD0ibGluZWFyR3JhZGllbnQtNCIgeTI9IjkuNzQ3ODIxMzYlIiB4Mj0iNDcuOTQ2OTM5NiUiIHkxPSI4OC4yNDc3NDg0JSIgeDE9IjUxLjg1OTY1MyUiPiYjeGE7ICAgICAgICAgICAgPHN0b3Agb2Zmc2V0PSIwJSIgc3RvcC1jb2xvcj0iI0ZGRUVENyIvPiYjeGE7ICAgICAgICAgICAgPHN0b3Agb2Zmc2V0PSIxMDAlIiBzdG9wLWNvbG9yPSIjQkRCRkMyIi8+JiN4YTsgICAgICAgIDwvbGluZWFyR3JhZGllbnQ+JiN4YTsgICAgICAgIDxsaW5lYXJHcmFkaWVudCBpZD0ibGluZWFyR3JhZGllbnQtNSIgeTI9IjEzLjgxMDkyNzIlIiB4Mj0iNDkuOTIzNjg0MyUiIHkxPSI4NS40OTAwMTczJSIgeDE9IjQ5LjkyNTEwOTclIj4mI3hhOyAgICAgICAgICAgIDxzdG9wIG9mZnNldD0iMCUiIHN0b3AtY29sb3I9IiNGRkVFRDciLz4mI3hhOyAgICAgICAgICAgIDxzdG9wIG9mZnNldD0iMTAwJSIgc3RvcC1jb2xvcj0iI0JEQkZDMiIvPiYjeGE7ICAgICAgICA8L2xpbmVhckdyYWRpZW50PiYjeGE7ICAgICAgICA8bGluZWFyR3JhZGllbnQgaWQ9ImxpbmVhckdyYWRpZW50LTYiIHkyPSI5My44OTQ5NTcxJSIgeDI9IjQ1Ljk1NTUzNTQlIiB5MT0iMy4xMDE3NzU4NSUiIHgxPSI1My45MDE0MDcxJSI+JiN4YTsgICAgICAgICAgICA8c3RvcCBvZmZzZXQ9IjAlIiBzdG9wLW9wYWNpdHk9IjAuNjUiIHN0b3AtY29sb3I9IiNGRkZGRkYiLz4mI3hhOyAgICAgICAgICAgIDxzdG9wIG9mZnNldD0iMTAwJSIgc3RvcC1vcGFjaXR5PSIwIiBzdG9wLWNvbG9yPSIjRkZGRkZGIi8+JiN4YTsgICAgICAgIDwvbGluZWFyR3JhZGllbnQ+JiN4YTsgICAgICAgIDxsaW5lYXJHcmFkaWVudCBpZD0ibGluZWFyR3JhZGllbnQtNyIgeTI9IjkzLjUyMzUxNjIlIiB4Mj0iNTQuODExMzU5JSIgeTE9IjUuNDc0NTkwNTIlIiB4MT0iNDUuNTkyODc2MSUiPiYjeGE7ICAgICAgICAgICAgPHN0b3Agb2Zmc2V0PSIwJSIgc3RvcC1vcGFjaXR5PSIwLjY1IiBzdG9wLWNvbG9yPSIjRkZGRkZGIi8+JiN4YTsgICAgICAgICAgICA8c3RvcCBvZmZzZXQ9IjEwMCUiIHN0b3Atb3BhY2l0eT0iMCIgc3RvcC1jb2xvcj0iI0ZGRkZGRiIvPiYjeGE7ICAgICAgICA8L2xpbmVhckdyYWRpZW50PiYjeGE7ICAgICAgICA8bGluZWFyR3JhZGllbnQgaWQ9ImxpbmVhckdyYWRpZW50LTgiIHkyPSI0MC42MzE2ODY0JSIgeDI9IjQ5Ljk4NDQ5ODclIiB5MT0iODkuODQ1MjQ0MiUiIHgxPSI0OS45ODQ0OTg3JSI+JiN4YTsgICAgICAgICAgICA8c3RvcCBvZmZzZXQ9IjAlIiBzdG9wLWNvbG9yPSIjRkZFRUQ3Ii8+JiN4YTsgICAgICAgICAgICA8c3RvcCBvZmZzZXQ9IjEwMCUiIHN0b3AtY29sb3I9IiNCREJGQzIiLz4mI3hhOyAgICAgICAgPC9saW5lYXJHcmFkaWVudD4mI3hhOyAgICAgICAgPGxpbmVhckdyYWRpZW50IGlkPSJsaW5lYXJHcmFkaWVudC05IiB5Mj0iMjMuNTQ1MTcxNSUiIHgyPSI0Mi43NDU1OTY4JSIgeTE9Ijk5Ljk3NTI0JSIgeDE9IjUzLjUwNDcxMzElIj4mI3hhOyAgICAgICAgICAgIDxzdG9wIG9mZnNldD0iMCUiIHN0b3AtY29sb3I9IiNGRkVFRDciLz4mI3hhOyAgICAgICAgICAgIDxzdG9wIG9mZnNldD0iMTAwJSIgc3RvcC1jb2xvcj0iI0JEQkZDMiIvPiYjeGE7ICAgICAgICA8L2xpbmVhckdyYWRpZW50PiYjeGE7ICAgICAgICA8bGluZWFyR3JhZGllbnQgaWQ9ImxpbmVhckdyYWRpZW50LTEwIiB5Mj0iOTQuNjcyOTY5NCUiIHgyPSI1MC4yNDEyNjEyJSIgeTE9IjEzLjIyODk1NTglIiB4MT0iNDkuODQxMzM2MyUiPiYjeGE7ICAgICAgICAgICAgPHN0b3Agb2Zmc2V0PSIwJSIgc3RvcC1vcGFjaXR5PSIwLjgiIHN0b3AtY29sb3I9IiNGRkZGRkYiLz4mI3hhOyAgICAgICAgICAgIDxzdG9wIG9mZnNldD0iMTAwJSIgc3RvcC1vcGFjaXR5PSIwIiBzdG9wLWNvbG9yPSIjRkZGRkZGIi8+JiN4YTsgICAgICAgIDwvbGluZWFyR3JhZGllbnQ+JiN4YTsgICAgICAgIDxsaW5lYXJHcmFkaWVudCBpZD0ibGluZWFyR3JhZGllbnQtMTEiIHkyPSI5Mi43ODI0NzM1JSIgeDI9IjUwLjcyNzA0NDYlIiB5MT0iMzcuMzI3MDMzNyUiIHgxPSI0OS45MjcyMjk4JSI+JiN4YTsgICAgICAgICAgICA8c3RvcCBvZmZzZXQ9IjAlIiBzdG9wLW9wYWNpdHk9IjAuNjUiIHN0b3AtY29sb3I9IiNGRkZGRkYiLz4mI3hhOyAgICAgICAgICAgIDxzdG9wIG9mZnNldD0iMTAwJSIgc3RvcC1vcGFjaXR5PSIwIiBzdG9wLWNvbG9yPSIjRkZGRkZGIi8+JiN4YTsgICAgICAgIDwvbGluZWFyR3JhZGllbnQ+JiN4YTsgICAgICAgIDxsaW5lYXJHcmFkaWVudCBpZD0ibGluZWFyR3JhZGllbnQtMTIiIHkyPSI4MS4yMDM2MTclIiB4Mj0iNDkuODc1NTU5NyUiIHkxPSIyLjI5OTAwNTg0JSIgeDE9IjQ5Ljg3NTU1OTclIj4mI3hhOyAgICAgICAgICAgIDxzdG9wIG9mZnNldD0iMCUiIHN0b3Atb3BhY2l0eT0iMC42NSIgc3RvcC1jb2xvcj0iI0ZGRkZGRiIvPiYjeGE7ICAgICAgICAgICAgPHN0b3Agb2Zmc2V0PSIxMDAlIiBzdG9wLW9wYWNpdHk9IjAiIHN0b3AtY29sb3I9IiNGRkZGRkYiLz4mI3hhOyAgICAgICAgPC9saW5lYXJHcmFkaWVudD4mI3hhOyAgICAgICAgPGxpbmVhckdyYWRpZW50IGlkPSJsaW5lYXJHcmFkaWVudC0xMyIgeTI9IjcxLjc5ODk2MTclIiB4Mj0iNDkuODI0MDM5OCUiIHkxPSIyLjI3MTg5MDY1JSIgeDE9IjQ5LjgzMzQzOTElIj4mI3hhOyAgICAgICAgICAgIDxzdG9wIG9mZnNldD0iMCUiIHN0b3Atb3BhY2l0eT0iMC42NSIgc3RvcC1jb2xvcj0iI0ZGRkZGRiIvPiYjeGE7ICAgICAgICAgICAgPHN0b3Agb2Zmc2V0PSIxMDAlIiBzdG9wLW9wYWNpdHk9IjAiIHN0b3AtY29sb3I9IiNGRkZGRkYiLz4mI3hhOyAgICAgICAgPC9saW5lYXJHcmFkaWVudD4mI3hhOyAgICAgICAgPGxpbmVhckdyYWRpZW50IGlkPSJsaW5lYXJHcmFkaWVudC0xNCIgeTI9Ijk4LjA5OTk3NzYlIiB4Mj0iMzguOTQ4ODcwOCUiIHkxPSI0OC45MjEzODYxJSIgeDE9IjUzLjQ2NzA2ODMlIj4mI3hhOyAgICAgICAgICAgIDxzdG9wIG9mZnNldD0iMCUiIHN0b3AtY29sb3I9IiNGRkE2M0YiLz4mI3hhOyAgICAgICAgICAgIDxzdG9wIG9mZnNldD0iMTAwJSIgc3RvcC1jb2xvcj0iI0ZGRkYwMCIvPiYjeGE7ICAgICAgICA8L2xpbmVhckdyYWRpZW50PiYjeGE7ICAgICAgICA8bGluZWFyR3JhZGllbnQgaWQ9ImxpbmVhckdyYWRpZW50LTE1IiB5Mj0iLTY0LjYyMTUzODklIiB4Mj0iNDcuNTc5MDklIiB5MT0iMTQzLjAwODkwOSUiIHgxPSI1Mi4zNzMxNTA4JSI+JiN4YTsgICAgICAgICAgICA8c3RvcCBvZmZzZXQ9IjAlIiBzdG9wLWNvbG9yPSIjRkZFRUQ3Ii8+JiN4YTsgICAgICAgICAgICA8c3RvcCBvZmZzZXQ9IjEwMCUiIHN0b3AtY29sb3I9IiNCREJGQzIiLz4mI3hhOyAgICAgICAgPC9saW5lYXJHcmFkaWVudD4mI3hhOyAgICAgICAgPGxpbmVhckdyYWRpZW50IGlkPSJsaW5lYXJHcmFkaWVudC0xNiIgeTI9Ijg5LjE3NTM0OSUiIHgyPSI2NS44ODY3MDI0JSIgeTE9IjM0LjAyNDEwNzklIiB4MT0iMzAuNTgwODE1JSI+JiN4YTsgICAgICAgICAgICA8c3RvcCBvZmZzZXQ9IjAlIiBzdG9wLWNvbG9yPSIjRkZBNjNGIi8+JiN4YTsgICAgICAgICAgICA8c3RvcCBvZmZzZXQ9IjEwMCUiIHN0b3AtY29sb3I9IiNGRkZGMDAiLz4mI3hhOyAgICAgICAgPC9saW5lYXJHcmFkaWVudD4mI3hhOyAgICAgICAgPGxpbmVhckdyYWRpZW50IGlkPSJsaW5lYXJHcmFkaWVudC0xNyIgeTI9IjY2LjExODQ0NjUlIiB4Mj0iNDguMzYwODUyMiUiIHkxPSItMTcuMjE1NTIwNyUiIHgxPSI1OS41NzE1MDkxJSI+JiN4YTsgICAgICAgICAgICA8c3RvcCBvZmZzZXQ9IjAlIiBzdG9wLW9wYWNpdHk9IjAuNjUiIHN0b3AtY29sb3I9IiNGRkZGRkYiLz4mI3hhOyAgICAgICAgICAgIDxzdG9wIG9mZnNldD0iMTAwJSIgc3RvcC1vcGFjaXR5PSIwIiBzdG9wLWNvbG9yPSIjRkZGRkZGIi8+JiN4YTsgICAgICAgIDwvbGluZWFyR3JhZGllbnQ+JiN4YTsgICAgICAgIDxsaW5lYXJHcmFkaWVudCBpZD0ibGluZWFyR3JhZGllbnQtMTgiIHkyPSIxMDQuMzEyODU2JSIgeDI9IjUxLjM3MzMwMjglIiB5MT0iMS41NjQ4MTMwMSUiIHgxPSI0Ny43Njg5NTUzJSI+JiN4YTsgICAgICAgICAgICA8c3RvcCBvZmZzZXQ9IjAlIiBzdG9wLW9wYWNpdHk9IjAuNjUiIHN0b3AtY29sb3I9IiNGRkZGRkYiLz4mI3hhOyAgICAgICAgICAgIDxzdG9wIG9mZnNldD0iMTAwJSIgc3RvcC1vcGFjaXR5PSIwIiBzdG9wLWNvbG9yPSIjRkZGRkZGIi8+JiN4YTsgICAgICAgIDwvbGluZWFyR3JhZGllbnQ+JiN4YTsgICAgICAgIDxsaW5lYXJHcmFkaWVudCBpZD0ibGluZWFyR3JhZGllbnQtMTkiIHkyPSI5Mi44MjY3MTc0JSIgeDI9IjU3LjExNDMyODglIiB5MT0iNC41MzM0ODYxJSIgeDE9IjQzLjU0OTU2MjYlIj4mI3hhOyAgICAgICAgICAgIDxzdG9wIG9mZnNldD0iMCUiIHN0b3Atb3BhY2l0eT0iMC42NSIgc3RvcC1jb2xvcj0iI0ZGRkZGRiIvPiYjeGE7ICAgICAgICAgICAgPHN0b3Agb2Zmc2V0PSIxMDAlIiBzdG9wLW9wYWNpdHk9IjAiIHN0b3AtY29sb3I9IiNGRkZGRkYiLz4mI3hhOyAgICAgICAgPC9saW5lYXJHcmFkaWVudD4mI3hhOyAgICAgICAgPGxpbmVhckdyYWRpZW50IGlkPSJsaW5lYXJHcmFkaWVudC0yMCIgeTI9Ijk5LjM4NTQ2NjclIiB4Mj0iNTAuNTU4MjQ4NyUiIHkxPSIxNy42MDg1MjE2JSIgeDE9IjQ5LjczMjgwNDIlIj4mI3hhOyAgICAgICAgICAgIDxzdG9wIG9mZnNldD0iMCUiIHN0b3AtY29sb3I9IiNGRkE2M0YiLz4mI3hhOyAgICAgICAgICAgIDxzdG9wIG9mZnNldD0iMTAwJSIgc3RvcC1jb2xvcj0iI0ZGRkYwMCIvPiYjeGE7ICAgICAgICA8L2xpbmVhckdyYWRpZW50PiYjeGE7ICAgICAgICA8bGluZWFyR3JhZGllbnQgaWQ9ImxpbmVhckdyYWRpZW50LTIxIiB5Mj0iOTQuMTcwNDI3OSUiIHgyPSI0OS42ODAyMzU5JSIgeTE9IjIuODkwNDg1MzElIiB4MT0iNTAuMTY5NzIxNyUiPiYjeGE7ICAgICAgICAgICAgPHN0b3Agb2Zmc2V0PSIwJSIgc3RvcC1vcGFjaXR5PSIwLjY1IiBzdG9wLWNvbG9yPSIjRkZGRkZGIi8+JiN4YTsgICAgICAgICAgICA8c3RvcCBvZmZzZXQ9IjEwMCUiIHN0b3Atb3BhY2l0eT0iMCIgc3RvcC1jb2xvcj0iI0ZGRkZGRiIvPiYjeGE7ICAgICAgICA8L2xpbmVhckdyYWRpZW50PiYjeGE7ICAgIDwvZGVmcz4mI3hhOyAgICA8ZyBmaWxsPSJub25lIj4mI3hhOyAgICAgICAgPGcgdHJhbnNmb3JtPSJ0cmFuc2xhdGUoMTAuMDAwMDAwLCAwLjAwMDAwMCkiPiYjeGE7ICAgICAgICAgICAgPHBhdGggZmlsdGVyPSJ1cmwoI2ZpbHRlci0xKSIgZmlsbC1vcGFjaXR5PSIwLjIiIGZpbGw9IiMwMDAiIGQ9Ik0yMzUuMTI1NDIzLDI0OS4zNTg2MjggQzIzNS4xMjU0MjMsMjY2LjcxNDI3MSAxODIuNTA3NTI0LDI4MC44NTU5MDUgMTE3LjU4NDU2NywyODAuODU1OTA1IEM1Mi42NjE2MDkzLDI4MC44NTU5MDUgMC4wNDM3MTA1MDU4LDI2Ni44MDYwOTkgMC4wNDM3MTA1MDU4LDI0OS4zNTg2MjggTDAuMDQzNzEwNTA1OCwyNDkuMzU4NjI4IEMwLjA0MzcxMDUwNTgsMjMyLjAwMjk4NiA1Mi42NjE2MDkzLDIxNy44NjEzNTIgMTE3LjU4NDU2NywyMTcuODYxMzUyIEMxODIuNTA3NTI0LDIxNy44NjEzNTIgMjM1LjAzMzU5NCwyMzIuMDAyOTg2IDIzNS4xMjU0MjMsMjQ5LjM1ODYyOCBMMjM1LjEyNTQyMywyNDkuMzU4NjI4IEwyMzUuMTI1NDIzLDI0OS4zNTg2MjggWiIvPiYjeGE7ICAgICAgICAgICAgPHBhdGggZmlsbD0iIzAwMDAwMCIgZD0iTTUzLjIxMjU4MjEsMjE1LjQ3MzgwNCBDNDEuODI1ODExNywxOTkuMTI4Mjc4IDM5LjYyMTkyMDYsMTQ1Ljg2NzU3OCA2Ni4xNjA0NDIsMTEzLjA4NDY5OSBDNzkuMjkxOTU5NSw5Ny4zODE5NzQ4IDgyLjY4OTYyNDksODYuNDU0MzQ4MyA4My42OTk3NDE2LDcxLjY2OTkxMjUgQzg0LjQzNDM3Miw1NC44NjUyNDMzIDcxLjg1MzgyNzIsNC44MTg1NTA2NiAxMTkuMjM3NDg1LDEuMDUzNTcwMTIgQzE2Ny4yNjM5NDQsLTIuODAzMjM5MjIgMTY0LjYwMDkwOSw0NC41ODA0MTg0IDE2NC4zMjU0MjMsNjkuNjQ5Njc5MSBDMTY0LjE0MTc2NSw5MC43NzAzMDE2IDE3OS44NDQ0ODksMTAyLjc5OTg3NCAxOTAuNjgwMjg2LDExOS4zMjkwNTYgQzIxMC42MDcxMzUsMTQ5LjYzMjU1OCAyMDguOTU0MjE2LDIwMS43OTEzMTMgMTg2LjkxNTMwNiwyMzAuMDc0NTgyIEMxNTguOTk5MzUzLDI2NS40Mjg2NjcgMTM1LjEyMzg2NiwyNTAuMDkzMjU5IDExOS4yMzc0ODUsMjUxLjM3ODg2MiBDODkuNDg0OTU1NiwyNTMuMTIzNjA5IDg4LjQ3NDgzODksMjY4LjkxODE2MiA1My4yMTI1ODIxLDIxNS40NzM4MDQgTDUzLjIxMjU4MjEsMjE1LjQ3MzgwNCBaIi8+JiN4YTsgICAgICAgICAgICA8cGF0aCBmaWxsPSJ1cmwoI2xpbmVhckdyYWRpZW50LTIpIiBkPSJNMTY5LjEwMDUyLDEyMi40NTEyMzUgQzE3Ny4zNjUxMTEsMTMwLjA3MzAyNSAxOTguNzYxMjIsMTY0LjE0MTUwOCAxNjQuODc2Mzk1LDE4NS40NDU3ODggQzE1Mi45Mzg2NTIsMTkyLjg4MzkyIDE3NS41Mjg1MzUsMjIxLjE2NzE4OSAxODYuMzY0MzMzLDIwNy40ODQ2OTkgQzIwNS41NTY1NTEsMTgyLjg3NDU4MiAxOTMuMzQzMzIxLDE0My41NzE4NTggMTgxLjc3Mjg5MywxMjkuNTIyMDUzIEMxNzQuMDU5Mjc1LDExOS42MDQ1NDMgMTYyLjEyMTUzMiwxMTUuNzQ3NzM0IDE2OS4xMDA1MiwxMjIuNDUxMjM1IEwxNjkuMTAwNTIsMTIyLjQ1MTIzNSBaIi8+JiN4YTsgICAgICAgICAgICA8cGF0aCBmaWxsPSIjMDAwMDAwIiBzdHJva2Utd2lkdGg9IjAuOTc3MyIgc3Ryb2tlPSIjMDAwMDAwIiBkPSJNMTY2LjgwNDgsMTE3Ljg1OTc5NiBDMTgwLjM5NTQ2MSwxMjguODc5MjUxIDIwNS4wOTc0MDcsMTY3LjQ0NzM0NCAxNjkuMDA4NjkxLDE5Mi42MDg0MzQgQzE1Ny4xNjI3NzcsMjAwLjQxMzg4MSAxNzkuNDc3MTc0LDIyNS4xMTU4MjcgMTkyLjA1NzcxOCwyMTIuNTM1MjgyIEMyMzUuNjc2Mzk1LDE2OC42NDExMTkgMTkwLjk1NTc3MywxMTguMjI3MTExIDE3NS41Mjg1MzUsMTAwLjg3MTQ2OSBDMTYxLjc1NDIxNiw4NS43MTk3MTggMTQ5LjU0MDk4NywxMDQuMzYwOTYzIDE2Ni44MDQ4LDExNy44NTk3OTYgTDE2Ni44MDQ4LDExNy44NTk3OTYgWiIvPiYjeGE7ICAgICAgICAgICAgPHBhdGggZmlsbD0idXJsKCNsaW5lYXJHcmFkaWVudC0zKSIgZD0iTTE0Ny4yNDUyNjcsMjUuMDIwODg1MyBDMTQ2Ljc4NjEyMywzNy42MDE0MyAxMzIuOTE5OTc1LDQ4LjUyOTA1NjUgMTE2LjI5ODk2Myw0OS41MzkxNzMyIEM5OS42Nzc5NTE4LDUwLjU0OTI5IDg2LjYzODI2Myw0MC45OTkwOTU0IDg3LjA5NzQwNywyOC40MTg1NTA3IEw4Ny4wOTc0MDcsMjguNDE4NTUwNyBDODcuNTU2NTUxLDE1LjgzODAwNTkgMTAxLjQyMjY5OSw0LjkxMDM3OTQ2IDExOC4wNDM3MTEsMy45MDAyNjI3MiBDMTM0LjY2NDcyMiwyLjk4MTk3NDc5IDE0Ny43MDQ0MTEsMTIuNDQwMzQwNSAxNDcuMjQ1MjY3LDI1LjAyMDg4NTMgTDE0Ny4yNDUyNjcsMjUuMDIwODg1MyBMMTQ3LjI0NTI2NywyNS4wMjA4ODUzIFoiLz4mI3hhOyAgICAgICAgICAgIDxwYXRoIGZpbGw9InVybCgjbGluZWFyR3JhZGllbnQtNCkiIGQ9Ik0xMDcuNDgzMzk5LDU0Ljk1NzA3MjEgQzEwNy45NDI1NDMsNjMuMTI5ODM0NyAxMDQuMDg1NzM0LDcwLjAxNjk5NDIgOTguNzU5NjYzOCw3MC4yOTI0ODA2IEM5My40MzM1OTM4LDcwLjU2Nzk2NyA4OC43NTAzMjUzLDY0LjIzMTc4MDIgODguMjkxMTgxMyw1Ni4wNTkwMTc2IEw4OC4yOTExODEzLDU2LjA1OTAxNzYgQzg3LjgzMjAzNzQsNDcuODg2MjU0OSA5MS42ODg4NDY3LDQwLjk5OTA5NTQgOTcuMDE0OTE2Nyw0MC43MjM2MDkgQzEwMi4zNDA5ODcsNDAuNDQ4MTIyNiAxMDcuMDI0MjU1LDQ2Ljc4NDMwOTQgMTA3LjQ4MzM5OSw1NC45NTcwNzIxIEwxMDcuNDgzMzk5LDU0Ljk1NzA3MjEgTDEwNy40ODMzOTksNTQuOTU3MDcyMSBaIi8+JiN4YTsgICAgICAgICAgICA8cGF0aCBmaWxsPSJ1cmwoI2xpbmVhckdyYWRpZW50LTUpIiBkPSJNMTE3LjEyNTQyMyw1NS41OTk4NzM2IEMxMTcuMzA5MDgsNjUuMDU4MjM5NCAxMjMuNDYxNjA5LDcyLjU4ODIwMDUgMTMwLjgwNzkxMyw3Mi40MDQ1NDI5IEMxMzguMTU0MjE2LDcyLjIyMDg4NTMgMTQzLjkzOTQzLDY0LjQxNTQzNzggMTQzLjc1NTc3Myw1NC44NjUyNDMzIEwxNDMuNzU1NzczLDU0Ljg2NTI0MzMgQzE0My41NzIxMTUsNDUuNDA2ODc3NSAxMzcuNDE5NTg2LDM3Ljg3NjkxNjQgMTMwLjA3MzI4MiwzOC4wNjA1NzQgQzEyMi43MjY5NzksMzguMjQ0MjMxNiAxMTYuODQ5OTM2LDQ2LjE0MTUwNzkgMTE3LjEyNTQyMyw1NS41OTk4NzM2IEwxMTcuMTI1NDIzLDU1LjU5OTg3MzYgTDExNy4xMjU0MjMsNTUuNTk5ODczNiBaIi8+JiN4YTsgICAgICAgICAgICA8cGF0aCBmaWxsPSIjMDAwMDAwIiBkPSJNMTIzLjE4NjEyMyw1Ny43MTE5MzU5IEMxMjMuMDk0Mjk0LDYyLjk0NjE3NzEgMTI1LjY2NTUsNjcuMTcwMzAxNiAxMjkuMDYzMTY2LDY3LjE3MDMwMTYgQzEzMi4zNjkwMDIsNjcuMTcwMzAxNiAxMzUuMjE1Njk1LDYyLjk0NjE3NzEgMTM1LjMwNzUyNCw1Ny44MDM3NjQ3IEwxMzUuMzA3NTI0LDU3LjgwMzc2NDcgQzEzNS4zOTkzNTMsNTIuNTY5NTIzNCAxMzIuODI4MTQ2LDQ4LjM0NTM5ODkgMTI5LjQzMDQ4MSw0OC4zNDUzOTg5IEMxMjYuMDMyODE2LDQ4LjM0NTM5ODkgMTIzLjI3Nzk1Miw1Mi41Njk1MjM0IDEyMy4xODYxMjMsNTcuNzExOTM1OSBMMTIzLjE4NjEyMyw1Ny43MTE5MzU5IEwxMjMuMTg2MTIzLDU3LjcxMTkzNTkgWiIvPiYjeGE7ICAgICAgICAgICAgPHBhdGggZmlsbD0iIzAwMDAwMCIgZD0iTTEwMS45NzM2NzIsNTcuODAzNzY0NyBDMTAyLjQzMjgxNiw2Mi4xMTk3MTggMTAwLjc3OTg5Nyw2NS43OTI4Njk3IDk4LjM5MjM0ODYsNjYuMTYwMTg0OSBDOTYuMDA0OCw2Ni40MzU2NzEzIDkzLjcwOTA4MDIsNjMuMjIxNjYzNSA5My4yNDk5MzYyLDU4LjkwNTcxMDIgTDkzLjI0OTkzNjIsNTguOTA1NzEwMiBDOTIuNzkwNzkyMiw1NC41ODk3NTY5IDk0LjQ0MzcxMDUsNTAuOTE2NjA1MSA5Ni44MzEyNTkxLDUwLjU0OTI5IEM5OS4yMTg4MDc4LDUwLjI3MzgwMzYgMTAxLjUxNDUyOCw1My40ODc4MTE0IDEwMS45NzM2NzIsNTcuODAzNzY0NyBMMTAxLjk3MzY3Miw1Ny44MDM3NjQ3IEwxMDEuOTczNjcyLDU3LjgwMzc2NDcgWiIvPiYjeGE7ICAgICAgICAgICAgPHBhdGggZmlsbD0idXJsKCNsaW5lYXJHcmFkaWVudC02KSIgZD0iTTEyNC41NjM1NTUsNTQuNzczNDE0NSBDMTI0LjI4ODA2OCw1Ny43MTE5MzU5IDEyNS42NjU1LDYwLjA5OTQ4NDUgMTI3LjU5MzkwNSw2MC4yODMxNDIxIEMxMjkuNTIyMzEsNjAuNDY2Nzk5NyAxMzEuMzU4ODg2LDU4LjE3MTA3OTggMTMxLjYzNDM3Miw1NS4zMjQzODcyIEwxMzEuNjM0MzcyLDU1LjMyNDM4NzIgQzEzMS45MDk4NTgsNTIuMzg1ODY1OCAxMzAuNTMyNDI2LDQ5Ljk5ODMxNzIgMTI4LjYwNDAyMiw0OS44MTQ2NTk2IEMxMjYuNjc1NjE3LDQ5LjYzMTAwMiAxMjQuODM5MDQxLDUxLjkyNjcyMTkgMTI0LjU2MzU1NSw1NC43NzM0MTQ1IEwxMjQuNTYzNTU1LDU0Ljc3MzQxNDUgTDEyNC41NjM1NTUsNTQuNzczNDE0NSBaIi8+JiN4YTsgICAgICAgICAgICA8cGF0aCBmaWxsPSJ1cmwoI2xpbmVhckdyYWRpZW50LTcpIiBkPSJNOTkuOTUzNDM4MSw1NS41MDgwNDQ4IEMxMDAuMjI4OTI1LDU3Ljg5NTU5MzUgOTkuMjE4ODA3OCw2MC4wMDc2NTU3IDk3Ljc0OTU0NzEsNjAuMTkxMzEzMyBDOTYuMjgwMjg2NCw2MC4zNzQ5NzA5IDk0LjkwMjg1NDUsNTguNTM4Mzk1IDk0LjYyNzM2ODEsNTYuMDU5MDE3NiBMOTQuNjI3MzY4MSw1Ni4wNTkwMTc2IEM5NC4zNTE4ODE3LDUzLjY3MTQ2ODkgOTUuMzYxOTk4NCw1MS41NTk0MDY3IDk2LjgzMTI1OTEsNTEuMzc1NzQ5MSBDOTguMzAwNTE5OCw1MS4xOTIwOTE1IDk5LjY3Nzk1MTgsNTMuMTIwNDk2MiA5OS45NTM0MzgxLDU1LjUwODA0NDggTDk5Ljk1MzQzODEsNTUuNTA4MDQ0OCBMOTkuOTUzNDM4MSw1NS41MDgwNDQ4IFoiLz4mI3hhOyAgICAgICAgICAgIDxwYXRoIGZpbGw9InVybCgjbGluZWFyR3JhZGllbnQtOCkiIGQ9Ik03MS4wMjczNjgxLDE0NS42ODM5MiBDNzcuNTQ3MjEyNSwxMzAuODk5NDg1IDkxLjQxMzM2MDMsMTA0LjkxMTkzNiA5MS42ODg4NDY3LDg0LjgwMTQzIEM5MS42ODg4NDY3LDY4LjgyMzIxOTkgMTM5LjUzMTY0OCw2NC45NjY0MTA2IDE0My4zODg0NTgsODAuOTQ0NjIwNyBDMTQ3LjI0NTI2Nyw5Ni45MjI4MzA4IDE1Ni45NzkxMTksMTIwLjc5ODMxNyAxNjMuMjIzNDc3LDEzMi4zNjg3NDUgQzE2OS40Njc4MzUsMTQzLjg0NzM0NCAxODcuNTU4MTA3LDE4MC40ODcwMzMgMTY4LjI3NDA2MSwyMTIuNDQzNDUzIEMxNTAuOTE4NDE5LDI0MC43MjY3MjIgOTguMzAwNTE5OCwyNjMuMTMyOTQ4IDcwLjIwMDkwODksMjA4LjU4NjY0NCBDNjAuNjUwNzE0NCwxODkuNjY5OTEzIDYyLjM5NTQ2MTUsMTY2LjI1MzU3IDcxLjAyNzM2ODEsMTQ1LjY4MzkyIEw3MS4wMjczNjgxLDE0NS42ODM5MiBaIi8+JiN4YTsgICAgICAgICAgICA8cGF0aCBmaWxsPSJ1cmwoI2xpbmVhckdyYWRpZW50LTkpIiBkPSJNNjUuMTUwMzI1MywxMzQuNjY0NDY1IEM1OS41NDg3Njg5LDE0NS4yMjQ3NzYgNDcuOTc4MzQwOSwxNzIuOTU3MDcyIDc2LjI2MTYwOTMsMTg4LjEwODgyMyBDMTA2LjY1Njk0LDIwNC4yNzA2OTEgMTA2LjU2NTExMSwyMzcuNDIwODg1IDcwLjAxNzI1MTQsMjIxLjYyNjMzMyBDMzYuNTkxNTcwNCwyMDcuMzkyODcgNTEuMzc2MDA2MiwxNDkuNzI0Mzg3IDYwLjc0MjU0MzIsMTM1Ljk1MDA2OCBDNjYuODAzMjQzNiwxMjYuMzA4MDQ1IDc1Ljk4NjEyMywxMTQuNDYyMTMgNjUuMTUwMzI1MywxMzQuNjY0NDY1IEw2NS4xNTAzMjUzLDEzNC42NjQ0NjUgWiIvPiYjeGE7ICAgICAgICAgICAgPHBhdGggZmlsbD0iIzAwMDAwMCIgc3Ryb2tlLXdpZHRoPSIxLjI1IiBzdHJva2U9IiMwMDAwMDAiIGQ9Ik02OS45MjU0MjI2LDEyMi43MjY3MjIgQzYxLjAxODAyOTYsMTM3LjIzNTY3MSAzOS43MTM3NDk0LDE3MS4zOTU5ODMgNjguMjcyNTA0MywxODkuMjEwNzY5IEMxMDYuNjU2OTQsMjEyLjgxMDc2OSA5NS44MjExNDI0LDIzNi4zMTg5NCA2MC43NDI1NDMyLDIxNS4xMDY0ODggQzExLjMzODY1MjEsMTg1LjUzNzYxNyA1NC43NzM2NzE2LDEyNS44NDg5MDEgNzQuNTE2ODYyMywxMDMuMDc1MzYgQzk3LjEwNjc0NTUsNzcuNTQ2OTU1MyA3OC44MzI4MTU2LDEwNy43NTg2MjggNjkuOTI1NDIyNiwxMjIuNzI2NzIyIEw2OS45MjU0MjI2LDEyMi43MjY3MjIgWiIvPiYjeGE7ICAgICAgICAgICAgPHBhdGggZmlsbD0idXJsKCNsaW5lYXJHcmFkaWVudC0xMCkiIGQ9Ik0xNTYuNDI4MTQ2LDE1MS4yODU0NzcgQzE1Ni40MjgxNDYsMTY3LjQ0NzM0NCAxNDAuOTA5MDgsMTg4LjM4NDMwOSAxMTQuMjc4NzMsMTg4LjIwMDY1MiBDODYuODIxOTIwNiwxODguMzg0MzA5IDc1LjE1OTY2MzgsMTY3LjQ0NzM0NCA3NS4xNTk2NjM4LDE1MS4yODU0NzcgQzc1LjE1OTY2MzgsMTM1LjEyMzYwOSA5My4zNDE3NjUsMTIxLjk5MjA5MiAxMTUuNzQ3OTkxLDEyMS45OTIwOTIgQzEzOC4yNDYwNDUsMTIyLjA4MzkyIDE1Ni40MjgxNDYsMTM1LjEyMzYwOSAxNTYuNDI4MTQ2LDE1MS4yODU0NzcgTDE1Ni40MjgxNDYsMTUxLjI4NTQ3NyBaIi8+JiN4YTsgICAgICAgICAgICA8cGF0aCBmaWxsPSJ1cmwoI2xpbmVhckdyYWRpZW50LTExKSIgZD0iTTE0MS45MTkxOTcsMTAwLjUwNDE1NCBDMTQxLjY0MzcxMSwxMTcuMjE2OTk0IDEzMC43MTYwODQsMTIxLjE2NTYzMiAxMTYuOTQxNzY1LDEyMS4xNjU2MzIgQzEwMy4xNjc0NDYsMTIxLjE2NTYzMiA5My4xNTgxMDc0LDExOC42ODYyNTUgOTEuOTY0MzMzMSwxMDAuNTA0MTU0IEM5MS45NjQzMzMxLDg5LjExNzM4MzMgMTAzLjE2NzQ0Niw4Mi41MDU3MTAyIDExNi45NDE3NjUsODIuNTA1NzEwMiBDMTMwLjcxNjA4NCw4Mi40MTM4ODE0IDE0MS45MTkxOTcsODkuMDI1NTU0NiAxNDEuOTE5MTk3LDEwMC41MDQxNTQgTDE0MS45MTkxOTcsMTAwLjUwNDE1NCBaIi8+JiN4YTsgICAgICAgICAgICA8cGF0aCBmaWxsPSJ1cmwoI2xpbmVhckdyYWRpZW50LTEyKSIgZD0iTTU4LjYzMDQ4MDksMTI2LjIxNjIxNiBDNjcuNjI5NzAyNywxMTIuNTMzNzI2IDg2LjYzODI2Myw5MS41MDQ5MzIgNjIuMjExODAzOSwxMjkuMTU0NzM3IEM0Mi4zNzY3ODQ0LDE2MC4xOTI4NyA1NC44NjU1MDA0LDE4MC4xMTk3MTggNjEuMjkzNTE2LDE4NS42Mjk0NDYgQzc5Ljg0MjkzMjMsMjAyLjE1ODYyOCA3OS4xMDgzMDE5LDIxMy4yNjk5MTMgNjQuNTA3NTIzNywyMDQuNTQ2MTc3IEMzMy4xOTM5MDUxLDE4NS45MDQ5MzIgMzkuNzEzNzQ5NCwxNTQuNDk5NDg1IDU4LjYzMDQ4MDksMTI2LjIxNjIxNiBMNTguNjMwNDgwOSwxMjYuMjE2MjE2IFoiLz4mI3hhOyAgICAgICAgICAgIDxwYXRoIGZpbGw9InVybCgjbGluZWFyR3JhZGllbnQtMTMpIiBkPSJNMTg4LjkzNTUzOSwxMzEuODE3NzcyIEMxODEuMTMwMDkyLDExNS43NDc3MzQgMTU2LjMzNjMxOCw3NC45NzU3NDkxIDE5MC4xMjkzMTQsMTIyLjM1OTQwNyBDMjIwLjg5MTk2LDE2NS4yNDM0NTMgMTk5LjMxMjE5MywxOTUuMDg3ODExIDE5NS40NTUzODQsMTk4LjAyNjMzMyBDMTkxLjU5ODU3NCwyMDAuOTY0ODU0IDE3OC42NTA3MTQsMjA2LjkzMzcyNiAxODIuNDE1Njk1LDE5Ni41NTcwNzIgQzE4Ni4yNzI1MDQsMTg2LjE4MDQxOCAyMDUuMzcyODkzLDE2Ni41MjkwNTYgMTg4LjkzNTUzOSwxMzEuODE3NzcyIEwxODguOTM1NTM5LDEzMS44MTc3NzIgWiIvPiYjeGE7ICAgICAgICAgICAgPHBhdGggZmlsbD0idXJsKCNsaW5lYXJHcmFkaWVudC0xNCkiIHN0cm9rZS13aWR0aD0iNi4yNSIgc3Ryb2tlPSIjRTY4QzNGIiBkPSJNNTEuODM1MTUwMiwyNTguNTQxNTA4IEMzMS4yNjU1MDA0LDI0Ny42MTM4ODEgMS40MjExNDI0MSwyNjAuNjUzNTcgMTIuMjU2OTQwMSwyMzEuMDg0Njk5IEMxNC40NjA4MzExLDIyNC4zODExOTcgOS4wNDI5MzIzLDIxNC4yODAwMjkgMTIuNTMyNDI2NSwyMDcuNzYwMTg1IEMxNi42NjQ3MjIyLDE5OS43NzEwOCAyNS41NzIxMTUyLDIwMS41MTU4MjcgMzAuODk4MTg1MiwxOTYuMTg5NzU3IEMzNi4xMzI0MjY1LDE5MC42ODAwMjkgMzkuNDM4MjYzLDE4MS4xMjk4MzUgNDkuMjYzOTQ0LDE4Mi41OTkwOTUgQzU4Ljk5Nzc5NjEsMTg0LjA2ODM1NiA2NS41MTc2NDA1LDE5Ni4wMDYwOTkgNzIuMzEyOTcxMiwyMTAuNjk4NzA2IEM3Ny4zNjM1NTQ5LDIyMS4xNjcxODkgOTUuMTc4MzQwOSwyMzUuOTUxNjI1IDkzLjk4NDU2NjUsMjQ3LjcwNTcxIEM5Mi41MTUzMDU4LDI2NS43MDQxNTQgNzIuMDM3NDg0OCwyNjkuMTAxODE5IDUxLjgzNTE1MDIsMjU4LjU0MTUwOCBMNTEuODM1MTUwMiwyNTguNTQxNTA4IFoiLz4mI3hhOyAgICAgICAgICAgIDxwYXRoIGZpbGw9InVybCgjbGluZWFyR3JhZGllbnQtMTUpIiBkPSJNMjAxLjYwNzkxMywxODkuMTE4OTQgQzE5OC40ODU3MzQsMTk0Ljk5NTk4MyAxODUuNDQ2MDQ1LDIwNC40NTQzNDggMTc2LjcyMjMxLDIwMS45NzQ5NzEgQzE2Ny45MDY3NDYsMTk5LjU4NzQyMiAxNjMuODY2Mjc5LDE4Ni4xODA0MTggMTY1LjYxMTAyNiwxNzUuOTg3NDIyIEMxNjcuMjYzOTQ0LDE2NC42MDA2NTIgMTc2LjcyMjMxLDE2My45NTc4NSAxODguNjYwMDUzLDE2OS42NTEyMzUgQzIwMS41MTYwODQsMTc1Ljk4NzQyMiAyMDUuMzcyODkzLDE4MS4zMTM0OTIgMjAxLjYwNzkxMywxODkuMTE4OTQgTDIwMS42MDc5MTMsMTg5LjExODk0IFoiLz4mI3hhOyAgICAgICAgICAgIDxwYXRoIGZpbGw9InVybCgjbGluZWFyR3JhZGllbnQtMTYpIiBzdHJva2Utd2lkdGg9IjYuMjUwNyIgc3Ryb2tlPSIjRTY4QzNGIiBkPSJNMTk0LjQ0NTI2NywyNTMuNDkwOTI0IEMyMDkuNTA1MTg5LDIzNS4yMTY5OTQgMjQzLjAyMjY5OSwyMzguOTgxOTc1IDIyMC40MzI4MTYsMjEzLjkxMjcxNCBDMjE1LjY1NzcxOCwyMDguNDk0ODE1IDIxNy4xMjY5NzksMTk2LjkyNDM4NyAyMTEuMjQ5OTM2LDE5MS45NjU2MzIgQzIwNC4zNjI3NzcsMTg1LjkwNDkzMiAxOTYuNzQwOTg3LDE5MC44NjM2ODcgMTg5Ljc2MTk5OCwxODcuNzQxNTA4IEMxODIuNzgzMDEsMTg0LjM0Mzg0MiAxNzUuNDM2NzA3LDE3Ny44MjM5OTggMTY2Ljg5NjYyOSwxODIuNDE1NDM4IEMxNTguMzU2NTUxLDE4Ny4wOTg3MDYgMTU3LjQzODI2MywxOTkuMjIwMTA3IDE1Ni42MTE4MDQsMjE1LjE5ODMxNyBDMTU1Ljg3NzE3NCwyMjYuNjc2OTE2IDE0NS40MDg2OTEsMjQ1Ljg2OTEzNCAxNTEuMDEwMjQ3LDI1Ni40Mjk0NDYgQzE1OS4wOTExODEsMjcyLjc3NDk3MSAxODAuMTE5OTc1LDI3MC41NzEwOCAxOTQuNDQ1MjY3LDI1My40OTA5MjQgTDE5NC40NDUyNjcsMjUzLjQ5MDkyNCBaIi8+JiN4YTsgICAgICAgICAgICA8cGF0aCBmaWxsPSJ1cmwoI2xpbmVhckdyYWRpZW50LTE3KSIgZD0iTTE4Ny45MjU0MjMsMjI5LjA2NDQ2NSBDMjExLjI0OTkzNiwxOTQuNjI4NjY3IDE5My44OTQyOTQsMTk0LjkwNDE1NCAxODguMDE3MjUxLDE5Mi4yNDExMTkgQzE4Mi4xNDAyMDksMTg5LjQ4NjI1NSAxNzUuOTg3Njc5LDE4NC4wNjgzNTYgMTY5LjEwMDUyLDE4Ny44MzMzMzcgQzE2Mi4yMTMzNiwxOTEuNjkwMTQ2IDE2MS44NDYwNDUsMjAxLjYwNzY1NiAxNjEuNjYyMzg4LDIxNC42NDczNDQgQzE2MS4zODY5MDEsMjI0LjAxMzg4MSAxNTMuNTgxNDU0LDIzOS43MTY2MDUgMTU4LjI2NDcyMiwyNDguNDQwMzQxIEMxNjMuOTU4MTA3LDI1OC42MzMzMzcgMTc3LjczMjQyNiwyNDMuODQ4OTAxIDE4Ny45MjU0MjMsMjI5LjA2NDQ2NSBMMTg3LjkyNTQyMywyMjkuMDY0NDY1IFoiLz4mI3hhOyAgICAgICAgICAgIDxwYXRoIGZpbGw9InVybCgjbGluZWFyR3JhZGllbnQtMTgpIiBkPSJNNDcuMDYwMDUyOSwyMzQuMDIzMjIgQzEyLjE2NTExMTMsMjExLjQzMzMzNyAyOC41MTA2MzY2LDIwMy43MTk3MTggMzMuNzQ0ODc3OCwyMDAuMTM4Mzk1IEM0MC4wODEwNjQ2LDE5NS41NDY5NTUgNDAuMTcyODkzNCwxODYuNzMxMzkxIDQ3Ljk3ODM0MDksMTg3LjU1Nzg1IEM1NS43ODM3ODgzLDE4OC4zODQzMDkgNjAuMzc1MjI4LDE5OC4wMjYzMzMgNjUuNjA5NDY5MywyMDkuOTY0MDc2IEM2OS40NjYyNzg2LDIxOC41MDQxNTQgODIuODczMjgyNSwyMjkuODkwOTI0IDgxLjg2MzE2NTgsMjM5LjcxNjYwNSBDODAuNTc3NTYyNiwyNTEuMjg3MDMzIDYyLjExOTk3NTEsMjQzLjY2NTI0MyA0Ny4wNjAwNTI5LDIzNC4wMjMyMiBMNDcuMDYwMDUyOSwyMzQuMDIzMjIgWiIvPiYjeGE7ICAgICAgICAgICAgPHBhdGggZmlsbD0iIzAwMDAwMCIgZD0iTTE5OS41ODc2NzksMTg4Ljg0MzQ1MyBDMTk2LjgzMjgxNiwxOTMuNjE4NTUxIDE4NS42Mjk3MDMsMjAxLjE0ODUxMiAxNzguMTkxNTcsMTk5LjEyODI3OCBDMTcwLjU2OTc4MSwxOTcuMTk5ODc0IDE2Ny4wODAyODYsMTg2LjQ1NTkwNSAxNjguNjQxMzc2LDE3OC4zNzQ5NzEgQzE3MC4wMTg4MDgsMTY5LjE5MjA5MiAxNzguMTkxNTcsMTY4LjczMjk0OCAxODguNDc2Mzk1LDE3My4zMjQzODcgQzE5OS40MDQwMjIsMTc4LjI4MzE0MiAyMDIuODAxNjg3LDE4Mi41MDcyNjcgMTk5LjU4NzY3OSwxODguODQzNDUzIEwxOTkuNTg3Njc5LDE4OC44NDM0NTMgWiIvPiYjeGE7ICAgICAgICAgICAgPHBhdGggZmlsbD0idXJsKCNsaW5lYXJHcmFkaWVudC0xOSkiIGQ9Ik0xOTIuMDU3NzE4LDE4Ni4xODA0MTggQzE5MC4zMTI5NzEsMTg5LjQ4NjI1NSAxODIuOTY2NjY4LDE5NC43MjA0OTYgMTc3LjgyNDI1NSwxOTMuMzQzMDY0IEMxNzIuNjgxODQzLDE5MS45NjU2MzIgMTcwLjExMDYzNywxODQuNTI3NSAxNzAuOTM3MDk2LDE3OC45MjU5NDQgQzE3MS42NzE3MjYsMTcyLjU4OTc1NyAxNzcuMTgxNDU0LDE3Mi4yMjI0NDIgMTg0LjE2MDQ0MiwxNzUuMzQ0NjIxIEMxOTEuNjkwNDAzLDE3OC44MzQxMTUgMTk0LjA3Nzk1MiwxODEuNzcyNjM2IDE5Mi4wNTc3MTgsMTg2LjE4MDQxOCBMMTkyLjA1NzcxOCwxODYuMTgwNDE4IFoiLz4mI3hhOyAgICAgICAgICAgIDxwYXRoIGZpbGw9InVybCgjbGluZWFyR3JhZGllbnQtMjApIiBzdHJva2Utd2lkdGg9IjMuNzUiIHN0cm9rZT0iI0U2OEMzRiIgZD0iTTk3LjEwNjc0NTUsNjYuMzQzODQyNSBDMTAwLjc3OTg5Nyw2Mi45NDYxNzcxIDEwOS42ODcyOSw1Mi41Njk1MjM0IDEyNi41ODM3ODgsNjMuNDA1MzIxMSBDMTI5LjcwNTk2Nyw2NS40MjU1NTQ2IDEzMi4yNzcxNzQsNjUuNjA5MjEyMSAxMzguMjQ2MDQ1LDY4LjE4MDQxODQgQzE1MC4yNzU2MTcsNzMuMTM5MTczMiAxNDQuNTgyMjMyLDg1LjA3NjkxNjQgMTMxLjcyNjIwMSw4OS4xMTczODMzIEMxMjYuMjE2NDczLDkwLjg2MjEzMDQgMTIxLjI1NzcxOCw5Ny41NjU2MzI0IDExMS4zNDAyMDksOTYuOTIyODMwOCBDMTAyLjgwMDEzMSw5Ni40NjM2ODY4IDEwMC41OTYyNCw5MC44NjIxMzA0IDk1LjM2MTk5ODQsODcuODMxNzgwMiBDODYuMDg3MjkwMyw4Mi41OTc1MzkgODQuNzA5ODU4NCw3NS41MjY3MjE5IDg5Ljc2MDQ0Miw3MS43NjE3NDEzIEM5NC44MTEwMjU3LDY3Ljk5Njc2MDggOTYuNzM5NDMwNCw2Ni42MTkzMjg5IDk3LjEwNjc0NTUsNjYuMzQzODQyNSBMOTcuMTA2NzQ1NSw2Ni4zNDM4NDI1IFoiLz4mI3hhOyAgICAgICAgICAgIDxwYXRoIHN0cm9rZS13aWR0aD0iMi41IiBzdHJva2U9IiNFNjhDM0YiIGQ9Ik0xMzguNDI5NzAzLDc1Ljk4NTg2NTggQzEzMy4zNzkxMTksNzYuMjYxMzUyMiAxMjIuNDUxNDkzLDg3LjE4ODk3ODcgMTEwLjk3Mjg5Myw4Ny4xODg5Nzg3IEM5OS40OTQyOTQyLDg3LjE4ODk3ODcgOTIuNjA3MTM0Niw3Ni41MzY4Mzg2IDkwLjg2MjM4NzUsNzYuNTM2ODM4NiIvPiYjeGE7ICAgICAgICAgICAgPHBhdGggZmlsbD0idXJsKCNsaW5lYXJHcmFkaWVudC0yMSkiIGQ9Ik0xMDIuODAwMTMxLDY1LjQyNTU1NDYgQzEwNC42MzY3MDcsNjMuNzcyNjM2MyAxMTAuNDIxOTIxLDU5LjI3MzAyNTQgMTE4LjA0MzcxMSw2My44NjQ0NjUxIEMxMTkuNjk2NjI5LDY0Ljc4Mjc1MyAxMjEuMzQ5NTQ3LDY1Ljc5Mjg2OTcgMTIzLjczNzA5Niw2Ny4xNzAzMDE2IEMxMjguNjA0MDIyLDcwLjAxNjk5NDIgMTI2LjIxNjQ3Myw3NC4xNDkyOSAxMjAuMzM5NDMsNzYuNzIwNDk2MiBDMTE3LjY3NjM5NSw3Ny44MjI0NDE3IDExMy4yNjg2MTMsODAuMjA5OTkwNCAxMDkuOTYyNzc3LDgwLjAyNjMzMjggQzEwNi4yODk2MjUsNzkuNjU5MDE3NiAxMDMuODEwMjQ3LDc3LjI3MTQ2ODkgMTAxLjQyMjY5OSw3NS43MTAzNzk1IEM5Ni45MjMwODc5LDcyLjc3MTg1ODEgOTcuMTk4NTc0Myw3MC4yOTI0ODA2IDk5LjMxMDYzNjYsNjguMzY0MDc2IEMxMDAuODcxNzI2LDY2Ljg5NDgxNTMgMTAyLjYxNjQ3Myw2NS41MTczODMzIDEwMi44MDAxMzEsNjUuNDI1NTU0NiBMMTAyLjgwMDEzMSw2NS40MjU1NTQ2IFoiLz4mI3hhOyAgICAgICAgPC9nPiYjeGE7ICAgIDwvZz4mI3hhOzwvc3ZnPg==;" vertex="1" parent="1">
          <mxGeometry x="397.64" y="340" width="50.36" height="60" as="geometry" />
        </mxCell>
        <mxCell id="e4Tr5Wjy2GleVXx7RCsq-5" value="" style="shape=image;verticalLabelPosition=bottom;labelBackgroundColor=default;verticalAlign=top;aspect=fixed;imageAspect=0;image=data:image/svg+xml,PHN2ZyB4bWxuczp4bGluaz0iaHR0cDovL3d3dy53My5vcmcvMTk5OS94bGluayIgeG1sbnM9Imh0dHA6Ly93d3cudzMub3JnLzIwMDAvc3ZnIiBwcmVzZXJ2ZUFzcGVjdFJhdGlvPSJ4TWlkWU1pZCIgdmVyc2lvbj0iMS4xIiB2aWV3Qm94PSIwIDYuMjE3MjQ4OTM3OTAwODc3ZS0xNSAyNTYgMjU2Ljc5MTIyOTI0ODA0NjkiIGhlaWdodD0iMjU2Ljc5MTIyOTI0ODA0NjkiIHdpZHRoPSIyNTYiPiYjeGE7ICAgIDxnPiYjeGE7ICAgICAgICA8cGF0aCBmaWxsPSIjMDBBREVGIiBkPSJNMCwzNi4zNTczODE4IEwxMDQuNjE5MDg0LDIyLjEwOTM0NTQgTDEwNC42NjQ4MTcsMTIzLjAyMjkyIEwwLjA5NTU2OTMxNTEsMTIzLjYxODQxMSBMMCwzNi4zNTczODE4IFogTTEwNC41NjkyNDgsMTM0LjY1MDEyOSBMMTA0LjY1MDQ1MiwyMzUuNjUxNjUxIEwwLjA4MTIwNDYwMjEsMjIxLjI3NDkxOSBMMC4wNzUzNDE0NTM5LDEzMy45NzI2NDIgTDEwNC41NjkyNDgsMTM0LjY1MDEyOSBaIE0xMTcuMjUxNTMsMjAuMjQ1NDUwNiBMMjU1Ljk2Nzc1Myw2LjIxNzI0ODk0ZS0xNSBMMjU1Ljk2Nzc1MywxMjEuNzM5NDc3IEwxMTcuMjUxNTMsMTIyLjg0MDcyMyBMMTE3LjI1MTUzLDIwLjI0NTQ1MDYgWiBNMjU2LDEzNS41OTk5NTkgTDI1NS45Njc0NiwyNTYuNzkxMjMyIEwxMTcuMjUxMjM3LDIzNy4yMTMwMDcgTDExNy4wNTY4NzQsMTM1LjM3MzA1NSBMMjU2LDEzNS41OTk5NTkgWiIvPiYjeGE7ICAgIDwvZz4mI3hhOzwvc3ZnPg==;" vertex="1" parent="1">
          <mxGeometry x="290" y="340" width="59.77" height="60" as="geometry" />
        </mxCell>
        <mxCell id="e4Tr5Wjy2GleVXx7RCsq-6" value="" style="shape=image;verticalLabelPosition=bottom;labelBackgroundColor=default;verticalAlign=top;aspect=fixed;imageAspect=0;image=data:image/svg+xml,PHN2ZyB4bWxuczp4bGluaz0iaHR0cDovL3d3dy53My5vcmcvMTk5OS94bGluayIgeG1sbnM9Imh0dHA6Ly93d3cudzMub3JnLzIwMDAvc3ZnIiBwcmVzZXJ2ZUFzcGVjdFJhdGlvPSJ4TWlkWU1pZCIgdmVyc2lvbj0iMS4xIiB2aWV3Qm94PSIwIDAgMjU2IDMxNC40MDAyMDc1MTk1MzEyNSIgaGVpZ2h0PSIzMTQuNDAwMjA3NTE5NTMxMjUiIHdpZHRoPSIyNTYiPiYjeGE7ICAgIDxnPiYjeGE7ICAgICAgICA8cGF0aCBmaWxsPSIjMDAwMDAwIiBkPSJNMjEzLjgwMzM5NCwxNjcuMDMwOTQzIEMyMTQuMjQ1MiwyMTQuNjA5NjQ2IDI1NS41NDI0ODIsMjMwLjQ0MjYzOSAyNTYsMjMwLjY0NDcyNyBDMjU1LjY1MDgxMiwyMzEuNzYxMzU3IDI0OS40MDEzODMsMjUzLjIwODI5MyAyMzQuMjQyNjMsMjc1LjM2MTQ0NiBDMjIxLjEzODU1NSwyOTQuNTEzOTY5IDIwNy41MzgyNTMsMzEzLjU5NjMzMyAxODYuMTEzNzU5LDMxMy45OTE1NDUgQzE2NS4wNjIwNTEsMzE0LjM3OTQ0MiAxNTguMjkyNzUyLDMwMS41MDc4MjggMTM0LjIyNDY5LDMwMS41MDc4MjggQzExMC4xNjM4OTgsMzAxLjUwNzgyOCAxMDIuNjQyODk5LDMxMy41OTYzMDEgODIuNzE1MTEyNiwzMTQuMzc5NDQyIEM2Mi4wMzUwNDA3LDMxNS4xNjIwMSA0Ni4yODczODMxLDI5My42Njg1MjUgMzMuMDc0NDA3OSwyNzQuNTg2MTYyIEM2LjA3NTI5MzE3LDIzNS41NTI1NDQgLTE0LjU1NzYxNjksMTY0LjI4NjMyOCAxMy4xNDcxNjYsMTE2LjE4MDQ3IEMyNi45MTAzMTExLDkyLjI5MDkwNTMgNTEuNTA2MDkxNyw3Ny4xNjMwMzU2IDc4LjIwMjYxMjUsNzYuNzc1MTA5NiBDOTguNTA5OTE0NSw3Ni4zODc3NDU2IDExNy42Nzc1OTQsOTAuNDM3MTg1MSAxMzAuMDkxNzA1LDkwLjQzNzE4NTEgQzE0Mi40OTc5NDUsOTAuNDM3MTg1MSAxNjUuNzkwNzU1LDczLjU0MTUwMjkgMTkwLjI3NzYyNyw3Ni4wMjI4NDc0IEMyMDAuNTI4NjY4LDc2LjQ0OTUwNTUgMjI5LjMwMzUwOSw4MC4xNjM2ODc4IDI0Ny43ODA2MjUsMTA3LjIwOTM4OSBDMjQ2LjI5MTgyNSwxMDguMTMyMzMzIDIxMy40NDYzNSwxMjcuMjUzNDA1IDIxMy44MDMzOTQsMTY3LjAzMDk4OCBNMTc0LjIzOTE0Miw1MC4xOTg3MDMzIEMxODUuMjE4MzMxLDM2LjkwODgzMTkgMTkyLjYwNzk1OCwxOC40MDgxMDE5IDE5MC41OTE5ODgsMCBDMTc0Ljc2NjMxMiwwLjYzNjA1MDIyNSAxNTUuNjI5NTE0LDEwLjU0NTc5MDkgMTQ0LjI3ODEwOSwyMy44MjgzNTA2IEMxMzQuMTA1MDcsMzUuNTkwNjc1OCAxMjUuMTk1Nzc1LDU0LjQxNzAyNzUgMTI3LjU5OTY1Nyw3Mi40NjA3OTMyIEMxNDUuMjM5MjMxLDczLjgyNTU0MzMgMTYzLjI1OTQxMyw2My40OTcwMjYyIDE3NC4yMzkxNDIsNTAuMTk4NzI0OSIvPiYjeGE7ICAgIDwvZz4mI3hhOzwvc3ZnPg==;" vertex="1" parent="1">
          <mxGeometry x="190" y="340" width="48.92" height="60" as="geometry" />
        </mxCell>
        <mxCell id="e4Tr5Wjy2GleVXx7RCsq-7" value="Application" style="text;html=1;align=center;verticalAlign=middle;resizable=0;points=[];autosize=1;strokeColor=none;fillColor=none;fontFamily=Concert One;fontSource=https%3A%2F%2Ffonts.googleapis.com%2Fcss%3Ffamily%3DConcert%2BOne;fontSize=22;" vertex="1" parent="1">
          <mxGeometry x="622" y="305" width="130" height="40" as="geometry" />
        </mxCell>
        <mxCell id="e4Tr5Wjy2GleVXx7RCsq-8" value="Framework" style="text;html=1;align=center;verticalAlign=middle;resizable=0;points=[];autosize=1;strokeColor=none;fillColor=none;fontFamily=Concert One;fontSource=https%3A%2F%2Ffonts.googleapis.com%2Fcss%3Ffamily%3DConcert%2BOne;fontSize=22;" vertex="1" parent="1">
          <mxGeometry x="622" y="390" width="130" height="40" as="geometry" />
        </mxCell>
        <mxCell id="e4Tr5Wjy2GleVXx7RCsq-9" value="Transport" style="text;html=1;align=center;verticalAlign=middle;resizable=0;points=[];autosize=1;strokeColor=none;fillColor=none;fontFamily=Concert One;fontSource=https%3A%2F%2Ffonts.googleapis.com%2Fcss%3Ffamily%3DConcert%2BOne;fontSize=22;" vertex="1" parent="1">
          <mxGeometry x="640" y="480" width="110" height="40" as="geometry" />
        </mxCell>
        <mxCell id="e4Tr5Wjy2GleVXx7RCsq-10" value="Genrated Code" style="text;html=1;align=center;verticalAlign=middle;resizable=0;points=[];autosize=1;strokeColor=none;fillColor=none;fontFamily=Sarala;fontSource=https%3A%2F%2Ffonts.googleapis.com%2Fcss%3Ffamily%3DSarala;" vertex="1" parent="1">
          <mxGeometry x="145" y="498" width="110" height="30" as="geometry" />
        </mxCell>
      </root>
    </mxGraphModel>
  </diagram>
</mxfile>
